<?xml version="1.0" encoding="UTF-8" standalone="no"?>
<!-- Created with Inkscape (http://www.inkscape.org/) -->

<svg
   width="1440"
   height="320"
   viewBox="0 0 381 84.666667"
   version="1.1"
   id="svg1"
   xml:space="preserve"
   inkscape:version="1.3.2 (091e20ef0f, 2023-11-25)"
   sodipodi:docname="made-for-uds.svg"
   inkscape:export-filename="made-for-uds-lc.png"
   inkscape:export-xdpi="96"
   inkscape:export-ydpi="96"
   xmlns:inkscape="http://www.inkscape.org/namespaces/inkscape"
   xmlns:sodipodi="http://sodipodi.sourceforge.net/DTD/sodipodi-0.dtd"
   xmlns="http://www.w3.org/2000/svg"
   xmlns:svg="http://www.w3.org/2000/svg"><sodipodi:namedview
     id="namedview1"
     pagecolor="#ffffff"
     bordercolor="#000000"
     borderopacity="0.25"
     inkscape:showpageshadow="2"
     inkscape:pageopacity="0.0"
     inkscape:pagecheckerboard="0"
     inkscape:deskcolor="#d1d1d1"
     inkscape:document-units="mm"
     inkscape:zoom="0.38740834"
     inkscape:cx="637.57017"
     inkscape:cy="89.053323"
     inkscape:window-width="1920"
     inkscape:window-height="1011"
     inkscape:window-x="0"
     inkscape:window-y="0"
     inkscape:window-maximized="1"
     inkscape:current-layer="layer1"
     inkscape:lockguides="false"
     showgrid="false"><inkscape:grid
       id="grid1"
       units="px"
       originx="0"
       originy="0"
       spacingx="0.26458333"
       spacingy="0.26458333"
       empcolor="#0099e5"
       empopacity="0.30196078"
       color="#0099e5"
       opacity="0.14901961"
       empspacing="5"
       dotted="false"
       gridanglex="30"
       gridanglez="30"
       visible="false" /></sodipodi:namedview><defs
     id="defs1"><clipPath
       id="clip0_1_67"><rect
         width="278"
         height="26"
         fill="#ffffff"
         transform="translate(109,169.647)"
         id="rect151"
         x="0"
         y="0" /></clipPath><linearGradient
       id="paint0_linear_8_3107"
       x1="15.020829"
       y1="0"
       x2="705.97906"
       y2="68"
       gradientUnits="userSpaceOnUse"
       gradientTransform="matrix(1.0337328,0,0,1,-112.13796,0)"><stop
         stop-color="#002555"
         id="stop1" /><stop
         offset="1"
         stop-color="#EB2126"
         id="stop5" /></linearGradient></defs><g
     inkscape:label="Layer 1"
     inkscape:groupmode="layer"
     id="layer1"><g
       style="fill:none"
       id="g2"
       transform="matrix(0.51118896,0,0,1.245098,57.323688,0)"><path
         id="rect1"
         style="fill:#002657;stroke-width:1.01672;fill-opacity:1"
         d="M -106.96212,2.1249999 C -103.30557,0.62375934 -96.506011,0 -96.506011,0 H 617.65902 c 0,0 5.57079,0.16348854 10.34842,2.1249999 3.59708,1.476823 5.17588,4.2484628 5.17588,4.2484628 V 61.631051 c 0,0 -0.29605,2.240475 -5.17588,4.243947 -3.91599,1.607757 -10.41766,2.125004 -10.41766,2.125004 H -96.681749 c 0,0 -6.229531,-0.461882 -10.280371,-2.125004 -5.21844,-2.142487 -5.17585,-4.243018 -5.17585,-4.243018 V 6.3756997 c 0,0 1.34417,-2.6775628 5.17585,-4.2506998 z"
         sodipodi:nodetypes="sccsccsccsccs" /></g><g
       style="fill:none"
       id="g1"
       transform="matrix(0.26458333,0,0,0.26458333,246.82521,13.805031)"><path
         d="m 162.6,36.4471 h 28.6 V 141.447 c 0,14.8 -8.467,22.2 -25.4,22.2 H 139 c -16.8,0 -25.2,-7.4 -25.2,-22.2 V 36.4471 h 28.6 V 137.647 c 0,3.333 1.733,5 5.2,5 h 9.6 c 3.6,0 5.4,-1.667 5.4,-5 z"
         fill="#ffffff"
         id="path1" /><path
         d="m 211.322,36.4471 h 53 c 16.933,0 25.4,7.3333 25.4,22 v 82.9999 c 0,14.8 -8.467,22.2 -25.4,22.2 h -53 z m 49.8,102.5999 V 61.0471 c 0,-3.3333 -1.8,-5 -5.4,-5 h -15.8 v 87.9999 h 15.8 c 3.6,0 5.4,-1.667 5.4,-5 z"
         fill="#ffffff"
         id="path2" /><path
         d="m 352.192,137.647 v -23 c 0,-1.733 -0.4,-2.933 -1.2,-3.6 -0.8,-0.8 -2.2,-1.2 -4.2,-1.2 h -17.6 c -15.733,0 -23.6,-7.467 -23.6,-22.3999 v -29 c 0,-14.6667 8.4,-22 25.2,-22 h 24.4 c 16.8,0 25.2,7.3333 25.2,22 v 16.6 h -28.6 v -12.6 c 0,-3.3333 -1.8,-5 -5.4,-5 h -6.8 c -3.6,0 -5.4,1.6667 -5.4,5 v 22.4 c 0,1.7333 0.4,3 1.2,3.8 0.8,0.6667 2.2,1 4.2,1 h 17.2 c 8.533,0 14.667,1.8667 18.4,5.6 3.733,3.6 5.6,8.9999 5.6,16.1999 v 30 c 0,14.8 -8.4,22.2 -25.2,22.2 h -24.2 c -16.933,0 -25.4,-7.4 -25.4,-22.2 v -16.4 h 28.6 v 12.6 c 0,3.333 1.8,5 5.4,5 h 6.8 c 3.6,0 5.4,-1.667 5.4,-5 z"
         fill="#ffffff"
         id="path3" /><path
         d="m 41.7918,147.025 -7.1209,16.768 -1.2061,16.515 h 16.5218 l 3.2163,-1.811 9.3127,0.325 0.1432,4.404 h 17.3093 l 1.2447,-4.404 H 94.287 c 0,0 -3.6623,-32.199 -9.9131,-36.504 -23.7307,16.119 -42.5876,4.723 -42.5876,4.723"
         fill="#ffffff"
         id="path4" /><path
         d="m 84.6921,165.824 0.9638,12.271 h -4.5875 z"
         fill="#2494d1"
         id="path5" /><path
         d="m 39.3359,151.649 c 0,0 14.3629,8.577 31.5841,0 13.7681,-6.843 -29.1278,-4.625 -29.1278,-4.625 z"
         fill="#2494d1"
         id="path6" /><path
         d="m 94.3915,185.61 h -14.038 l 0.8536,-6.81 h 13.0798 c 0,0 0.1377,4.591 0.1156,6.81"
         fill="#eb2126"
         id="path7" /><path
         d="m 94.3905,187.806 h -14.038 c -0.313,0.002 -0.6228,-0.062 -0.9089,-0.189 -0.2861,-0.127 -0.5418,-0.313 -0.7503,-0.546 -0.2084,-0.234 -0.3647,-0.509 -0.4584,-0.807 -0.0938,-0.299 -0.1229,-0.614 -0.0853,-0.924 l 0.8701,-6.788 c 0.0675,-0.535 0.329,-1.027 0.735,-1.382 0.4061,-0.355 0.9284,-0.549 1.4679,-0.545 h 13.0632 c 0.5721,0 1.1218,0.222 1.5329,0.62 0.4111,0.397 0.6514,0.939 0.67,1.511 0,0 0.1377,4.652 0.1157,6.898 -0.013,0.577 -0.2523,1.126 -0.6664,1.529 -0.4141,0.402 -0.9699,0.626 -1.5475,0.623 z m -11.5653,-4.404 h 9.3624 c 0,-0.82 -0.0331,-1.651 -0.0496,-2.411 h -8.9878 z"
         fill="#144a8f"
         id="path8" /><path
         d="m 89.6066,143.986 c 0,0 9.7203,-12.844 24.9694,-9.265 15.25,3.578 19.232,-5.461 19.232,-5.461 0,0 -7.578,27.723 -26.986,20.077 0,0 2.98,2.499 5.728,4.905 -5.821,4.178 -11.103,6.661 -21.5501,0.374"
         fill="#2494d1"
         id="path9" /><path
         d="m 89.2254,144.856 c 0,0 8.9162,-13.097 21.4016,-10.179 12.484,2.917 20.007,-0.166 20.007,-0.166 0,0 -8.69,17.793 -22.579,9.568 -2.418,-1.728 -5.656,-1.343 -7.237,0.859 -1.5805,2.202 -0.9031,5.395 1.515,7.124 -3.6572,1.481 -8.5256,-0.408 -11.136,-2.147"
         fill="#ffffff"
         id="path10" /><path
         d="m 45.8214,148.885 c 0,0 1.5255,-3.925 -4.0258,-1.861 -5.5513,2.065 -9.1366,33.356 -9.1366,33.356 h 2.4893 c 1.3658,0 4.1084,-0.259 4.0148,-1.619 0,0 0.1707,-9.248 0.8151,-14.407 1.2887,-4.74 5.8432,-15.469 5.8432,-15.469 z"
         fill="#2494d1"
         id="path11" /><path
         d="m 112.597,74.9354 c 0,29.8876 -23.8303,76.7186 -53.2225,76.7186 -29.3922,0 -53.20559,-46.831 -53.20559,-76.7186 0,-29.8871 23.82989,-41.8387 53.22209,-41.8387 29.3922,0 53.222,11.9736 53.222,41.8387"
         fill="#ffffff"
         id="path12" /><path
         d="m 59.3772,153.851 c -30.5928,0 -55.40845,-47.751 -55.40845,-78.9156 0,-27.9989 20.20055,-44.0407 55.42495,-44.0407 35.2244,0 55.4193,16.0638 55.4193,44.0407 C 114.797,106.1 89.97,153.851 59.3772,153.851 Z m 0,-118.5798 c -15.3432,0 -51.02468,3.8536 -51.02468,39.6642 0,28.7476 23.35078,74.5226 51.02468,74.5226 27.6739,0 51.0248,-45.775 51.0248,-74.5226 0,-35.7996 -35.6871,-39.6642 -51.0248,-39.6642 z"
         fill="#144a8f"
         id="path13" /><path
         d="m 13.7826,69.9532 c 0,0 -5.23188,0.8367 -7.80377,-0.2312 -3.45856,-1.4369 2.15884,-5.7529 2.15884,-5.7529 z"
         fill="#2494d1"
         id="path14" /><path
         d="m 72.174,64.3765 c 0,6.6612 -4.4058,8.8852 -12.6667,12.0231 -9.3623,0 -28.2467,-5.3619 -28.2467,-12.0231 0,-6.6611 20.6192,-12.0671 29.9815,-12.0671 9.3624,0 10.9154,5.4005 10.9154,12.0671"
         fill="#2494d1"
         id="path15" /><path
         d="m 67.4113,124.36 c 0,0 -2.9079,-12.111 6.2011,-16.179 -1.7238,4.657 -5.2759,14.764 -3.051,18.331 2.2249,3.568 -3.1501,-2.152 -3.1501,-2.152 z"
         fill="#2494d1"
         id="path16" /><path
         d="m 59.3772,153.851 c -30.5928,0 -55.40845,-47.751 -55.40845,-78.9156 0,-27.9989 20.20055,-44.0407 55.42495,-44.0407 35.2244,0 55.4193,16.0638 55.4193,44.0407 C 114.797,106.1 89.97,153.851 59.3772,153.851 Z m 0,-118.5798 c -15.3432,0 -51.02468,3.8536 -51.02468,39.6642 0,28.7476 23.35078,74.5226 51.02468,74.5226 27.6739,0 51.0248,-45.775 51.0248,-74.5226 0,-35.7996 -35.6871,-39.6642 -51.0248,-39.6642 z"
         fill="#144a8f"
         id="path17" /><path
         d="m 42.3428,85.3949 c 0,0 2.9739,12.6617 22.8551,14.561 1.3327,0.1271 2.1203,-1.5084 1.4043,-2.6369 -0.9362,-1.4809 -3.9212,-3.8811 -3.9652,-5.8464 4.4058,0.5119 11.5652,2.6479 15.3322,0.611 0.2584,-0.1417 0.4722,-0.3526 0.6175,-0.609 0.1452,-0.2564 0.216,-0.5482 0.2046,-0.8426 -0.0114,-0.2944 -0.1047,-0.5798 -0.2694,-0.8242 -0.1647,-0.2444 -0.3942,-0.4381 -0.6629,-0.5593 -2.4397,-1.101 -2.3185,-5.2078 -3.4475,-7.3108"
         fill="#2494d1"
         id="path18" /><path
         d="m 42.9306,81.3708 c 0,0 1.7128,13.9554 26.4734,12.1552 -1.4704,-1.9047 -3.0345,-3.9471 -3.1006,-6.7217 4.9125,0.5505 11.1192,0.6992 14.2473,-2.9617 -2.9189,-0.512 -6.1902,-2.7526 -7.545,-5.2904"
         fill="#ffffff"
         id="path19" /><path
         d="m 65.0989,95.8877 c -22.3429,0 -24.2815,-13.6361 -24.3586,-14.2471 -0.0336,-0.5581 0.1464,-1.1081 0.5035,-1.5384 0.3571,-0.4303 0.8646,-0.7087 1.4195,-0.7787 0.5549,-0.0701 1.1157,0.0735 1.5686,0.4016 0.4529,0.328 0.764,0.816 0.8702,1.365 0.0716,0.4899 1.7788,10.4046 20.0023,10.4046 h 0.2533 c -0.7825,-1.4231 -1.2148,-3.012 -1.2611,-4.6353 -0.0038,-0.3102 0.058,-0.6176 0.1814,-0.9022 0.1234,-0.2846 0.3055,-0.54 0.5345,-0.7493 0.2332,-0.21 0.5087,-0.3678 0.8079,-0.4628 0.2992,-0.0949 0.6152,-0.1248 0.9269,-0.0877 3.9652,0.4624 7.0162,0.3578 9.2191,-0.3193 -1.9521,-1.1332 -3.575,-2.7555 -4.7087,-4.7069 -0.2065,-0.5031 -0.2196,-1.0648 -0.0366,-1.5769 0.183,-0.5121 0.5491,-0.9384 1.0278,-1.1968 0.4787,-0.2584 1.0361,-0.3306 1.5649,-0.2027 0.5288,0.1279 0.9915,0.4469 1.299,0.8955 1.0133,1.8937 3.7009,3.7655 5.9864,4.1673 0.3804,0.069 0.7359,0.2367 1.0309,0.4865 0.295,0.2497 0.5191,0.5727 0.6497,0.9364 0.1306,0.3638 0.1631,0.7554 0.0943,1.1357 -0.0688,0.3803 -0.2365,0.7358 -0.4862,1.0308 -3.1447,3.6884 -8.4426,4.2334 -13.0577,3.9911 0.5668,1.035 1.2306,2.0138 1.9826,2.9233 0.2411,0.3148 0.3928,0.6888 0.4389,1.0826 0.0461,0.3938 -0.015,0.7928 -0.1769,1.1547 -0.1619,0.362 -0.4185,0.6736 -0.7428,0.9018 -0.3243,0.2283 -0.7043,0.3648 -1.0998,0.3951 -1.5457,0.0918 -3.0235,0.1358 -4.4333,0.1321 z"
         fill="#144a8f"
         id="path20" /><path
         d="m 75.8144,61.9269 c 0,4.3491 -7.3577,12.3479 -16.4391,12.3479 -9.0815,0 -16.4447,-7.9988 -16.4447,-12.3479 0,-4.349 6.5812,-59.72469 15.6682,-59.72469 9.0869,0 17.2156,55.38119 17.2156,59.72469 z"
         fill="#ffffff"
         id="path21" /><path
         d="m 59.3774,76.4767 c -10.1113,0 -18.642,-8.9348 -18.642,-14.55 C 40.7354,61.2937 46.2922,0 58.6009,0 c 12.4574,0 19.4185,61.3102 19.4185,61.9267 0,5.6152 -8.5142,14.55 -18.642,14.55 z M 58.6009,4.39857 c -5.645,0 -13.4653,48.87413 -13.4653,57.52813 0,2.9453 6.1627,10.1514 14.2418,10.1514 8.0791,0 14.2417,-7.2061 14.2417,-10.1514 0,-1.9598 -2.0266,-16.8125 -5.1548,-31.0156 C 62.7809,5.14175 58.6394,4.39857 58.6009,4.39857 Z"
         fill="#144a8f"
         id="path22" /><path
         d="m 69.2554,139.829 c 0.2313,1.167 -1.6852,-0.06 -3.6678,0.331 -1.9827,0.39 -3.3044,2.257 -3.5137,1.101 -0.2093,-1.157 0.9583,-3.595 2.9409,-3.992 1.9826,-0.396 4.0093,1.399 4.2406,2.571"
         fill="#144a8f"
         id="path23" /><path
         d="m 49.6772,139.829 c -0.2313,1.167 1.6852,-0.06 3.6679,0.331 1.9826,0.39 3.3043,2.257 3.5136,1.101 0.2093,-1.157 -0.9583,-3.595 -2.9409,-3.992 -1.9826,-0.396 -4.0093,1.399 -4.2406,2.571"
         fill="#144a8f"
         id="path24" /><path
         d="m 28.7489,43.9636 c 0,0 -12.9971,-6.43 -25.01393,-5.6593 -4.268122,12.3479 0.62232,24.6958 9.91303,29.5073"
         fill="#ffffff"
         id="path25" /><path
         d="M 13.6218,70.0138 C 13.2692,70.0123 12.9219,69.9274 12.6084,69.7661 1.94089,64.2225 -2.76781,50.3882 1.65451,37.5833 1.79662,37.1741 2.05634,36.8158 2.40117,36.5534 2.74599,36.2909 3.16059,36.136 3.59307,36.108 16.0835,35.2822 29.1742,41.7177 29.725,41.9929 c 0.4896,0.2773 0.8545,0.7315 1.0198,1.2692 0.1653,0.5378 0.1184,1.1184 -0.131,1.6226 -0.2495,0.5043 -0.6825,0.8941 -1.2103,1.0893 -0.5278,0.1952 -1.1104,0.1811 -1.6281,-0.0394 -0.1156,-0.0551 -11.5652,-5.6152 -22.409,-5.5051 -2.92986,10.3495 0.9087,21.09 9.2687,25.4335 0.4348,0.2286 0.7807,0.596 0.9826,1.0437 0.202,0.4477 0.2484,0.9501 0.1319,1.4272 -0.1165,0.4771 -0.3891,0.9016 -0.7747,1.206 -0.3856,0.3044 -0.8618,0.4712 -1.3531,0.4739 z"
         fill="#144a8f"
         id="path26" /><path
         d="m 7.96029,46.5457 c -0.29188,1.8387 0.08261,9.5348 6.93361,14.9243 0.0545,0.058 0.1279,0.0948 0.207,0.1038 0.0791,0.009 0.1588,-0.0104 0.2249,-0.0547 0.0662,-0.0443 0.1144,-0.1106 0.1362,-0.1872 0.0217,-0.0765 0.0156,-0.1583 -0.0173,-0.2307 -0.4318,-1.192 -0.7148,-2.4327 -0.8427,-3.694 -0.0054,-0.0741 0.0101,-0.1483 0.0449,-0.214 0.0347,-0.0658 0.0872,-0.1204 0.1516,-0.1578 0.0643,-0.0373 0.1378,-0.0558 0.2122,-0.0533 0.0743,0.0025 0.1464,0.0258 0.2082,0.0673 0.6278,0.4239 1.3988,0.7212 2.8913,0.4074 0.1113,-0.0241 0.2155,-0.074 0.304,-0.1457 0.0886,-0.0718 0.159,-0.1633 0.2056,-0.2672 0.0467,-0.104 0.0682,-0.2174 0.0629,-0.3312 -0.0053,-0.1138 -0.0373,-0.2248 -0.0934,-0.3239 -0.3364,-0.4997 -0.5703,-1.061 -0.6884,-1.6515 -0.0147,-0.1002 -0.0071,-0.2024 0.0223,-0.2993 0.0294,-0.097 0.0798,-0.1862 0.1477,-0.2614 0.0678,-0.0752 0.1515,-0.1345 0.2449,-0.1736 0.0934,-0.0392 0.1943,-0.0573 0.2955,-0.053 2.6105,0.0936 4.6481,0.4184 6.2783,-0.7487"
         fill="#2494d1"
         id="path27" /><path
         d="M 23.9488,51.5495 C 19.4419,49.4416 14.6807,47.9261 9.78418,47.0409 Z"
         fill="#ffffff"
         id="path28" /><path
         d="M 23.9494,53.7463 C 23.6117,53.7444 23.2787,53.6673 22.9746,53.5206 18.6584,51.509 14.1014,50.0603 9.41572,49.2101 8.85976,49.0918 8.37111,48.7631 8.05192,48.2929 7.73273,47.8228 7.60772,47.2475 7.70301,46.6873 c 0.0953,-0.5602 0.40353,-1.0618 0.86025,-1.4001 0.45672,-0.3383 1.02657,-0.487 1.59044,-0.4151 5.1083,0.9163 10.0741,2.4988 14.7704,4.7069 0.4408,0.2226 0.794,0.5868 1.0028,1.0342 0.2089,0.4473 0.2613,0.9518 0.1488,1.4325 -0.1124,0.4807 -0.3832,0.9097 -0.7688,1.2181 -0.3856,0.3084 -0.8637,0.4784 -1.3575,0.4825 z"
         fill="#144a8f"
         id="path29" /><path
         d="m 89.9971,43.9636 c 0,0 13.0029,-6.4299 25.0199,-5.6592 4.268,12.3479 -0.623,24.6958 -9.914,29.5072"
         fill="#ffffff"
         id="path30" /><path
         d="m 105.132,70.0138 c -0.492,-0.0016 -0.969,-0.1675 -1.356,-0.4715 -0.386,-0.3039 -0.66,-0.7284 -0.777,-1.2058 -0.117,-0.4775 -0.071,-0.9803 0.131,-1.4286 0.201,-0.4483 0.548,-0.8161 0.983,-1.045 8.349,-4.3435 12.204,-15.0839 9.274,-25.4225 -10.91,-0.1761 -22.2933,5.439 -22.4035,5.4941 -0.5177,0.2205 -1.1002,0.2347 -1.6281,0.0394 -0.5278,-0.1952 -0.9608,-0.5849 -1.2102,-1.0892 -0.2495,-0.5043 -0.2963,-1.0849 -0.1311,-1.6226 0.1653,-0.5378 0.5302,-0.9919 1.0199,-1.2692 0.5507,-0.2698 13.674,-6.6832 26.137,-5.885 0.433,0.028 0.847,0.183 1.192,0.4454 0.345,0.2624 0.605,0.6207 0.747,1.03 4.406,12.8048 -0.286,26.6391 -10.96,32.1827 -0.314,0.1634 -0.664,0.2484 -1.018,0.2478 z"
         fill="#144a8f"
         id="path31" /><path
         d="m 110.808,46.5457 c 0.292,1.8387 -0.082,9.5348 -6.933,14.9243 -0.055,0.058 -0.128,0.0948 -0.207,0.1038 -0.079,0.0089 -0.159,-0.0104 -0.225,-0.0547 -0.066,-0.0443 -0.115,-0.1107 -0.136,-0.1872 -0.022,-0.0765 -0.016,-0.1583 0.017,-0.2308 0.429,-1.1927 0.712,-2.4331 0.842,-3.6939 0.006,-0.0741 -0.01,-0.1483 -0.044,-0.2141 -0.035,-0.0657 -0.088,-0.1204 -0.152,-0.1577 -0.064,-0.0373 -0.138,-0.0558 -0.212,-0.0533 -0.075,0.0025 -0.147,0.0258 -0.208,0.0673 -0.628,0.4239 -1.399,0.7211 -2.892,0.4073 -0.111,-0.024 -0.215,-0.0739 -0.304,-0.1457 -0.088,-0.0717 -0.159,-0.1632 -0.205,-0.2672 -0.047,-0.1039 -0.068,-0.2173 -0.063,-0.3311 0.005,-0.1138 0.037,-0.2248 0.093,-0.3239 0.334,-0.5009 0.568,-1.0618 0.689,-1.6516 0.014,-0.1002 0.007,-0.2024 -0.023,-0.2993 -0.029,-0.0969 -0.08,-0.1861 -0.147,-0.2613 -0.068,-0.0752 -0.152,-0.1345 -0.245,-0.1737 -0.094,-0.0391 -0.195,-0.0572 -0.296,-0.0529 -2.6103,0.0936 -4.6479,0.4184 -6.2781,-0.7487"
         fill="#2494d1"
         id="path32" /><path
         d="m 94.7988,51.5495 c 4.5087,-2.1085 9.2722,-3.624 14.1702,-4.5086 z"
         fill="#ffffff"
         id="path33" /><path
         d="m 94.8041,53.7463 c -0.4943,-0.0029 -0.9733,-0.172 -1.3598,-0.48 -0.3866,-0.3079 -0.6583,-0.7369 -0.7714,-1.2179 -0.1131,-0.481 -0.0612,-0.9861 0.1476,-1.434 0.2087,-0.4479 0.5621,-0.8126 1.0033,-1.0354 4.6997,-2.2091 9.6692,-3.7916 14.7812,-4.7069 0.564,-0.0719 1.134,0.0768 1.591,0.4151 0.456,0.3383 0.765,0.8399 0.86,1.4001 0.095,0.5602 -0.03,1.1355 -0.349,1.6056 -0.319,0.4702 -0.808,0.7989 -1.364,0.9172 -4.687,0.8507 -9.246,2.2994 -13.5641,4.3105 -0.3041,0.1468 -0.6371,0.224 -0.9748,0.2257 z"
         fill="#144a8f"
         id="path34" /><path
         d="m 102.917,120.341 c -5.6009,12.112 -16.6265,18.927 -24.6285,15.233 -8.002,-3.694 -9.9461,-16.515 -4.3507,-28.627 5.5953,-12.1107 16.6264,-18.9315 24.6284,-15.2321 8.0018,3.6994 9.9518,16.5151 4.3508,28.6261 z"
         fill="#ffffff"
         id="path35" /><path
         d="m 82.9797,138.783 c -1.9371,0.009 -3.8526,-0.406 -5.6119,-1.216 -4.5655,-2.109 -7.5945,-6.661 -8.5307,-12.822 -0.8867,-5.824 0.2202,-12.474 3.106,-18.717 6.1021,-13.2121 18.4658,-20.5009 27.5363,-16.306 9.0706,4.1949 11.5216,18.348 5.4246,31.539 -2.891,6.242 -7.242,11.39 -12.2536,14.489 -3.2438,2.015 -6.5481,3.033 -9.6707,3.033 z M 93.9391,92.926 c -6.3168,0 -13.8617,5.9895 -18.0032,14.946 -2.5278,5.472 -3.5081,11.231 -2.7536,16.213 0.7049,4.652 2.8472,8.026 6.0249,9.491 3.1777,1.464 7.1594,0.913 11.1357,-1.564 4.2846,-2.653 8.0405,-7.123 10.5681,-12.596 4.995,-10.801 3.497,-22.5704 -3.271,-25.7028 -1.1616,-0.5286 -2.4247,-0.7972 -3.7009,-0.7872 z"
         fill="#144a8f"
         id="path36" /><path
         d="m 91.6653,113.62 c 0.0011,1.876 -0.5543,3.71 -1.5961,5.27 -1.0418,1.561 -2.523,2.777 -4.2565,3.496 -1.7335,0.719 -3.6413,0.908 -5.4822,0.543 -1.8409,-0.365 -3.5322,-1.267 -4.86,-2.593 -1.3278,-1.326 -2.2325,-3.015 -2.5997,-4.855 -0.3672,-1.84 -0.1804,-3.747 0.5368,-5.481 0.7171,-1.733 1.9325,-3.215 3.4924,-4.258 1.5598,-1.044 3.3941,-1.601 5.2708,-1.602 2.5153,0.001 4.9271,1 6.7062,2.778 1.779,1.777 2.7799,4.187 2.7828,6.702"
         fill="#144a8f"
         id="path37" /><path
         d="m 15.8352,120.341 c 5.5954,12.112 16.6209,18.927 24.6229,15.233 8.0021,-3.694 9.9516,-16.515 4.3508,-28.627 C 39.208,94.8363 28.199,88.021 20.1804,91.7204 12.1619,95.4198 10.2343,108.236 15.8352,120.347"
         fill="#ffffff"
         id="path38" /><path
         d="m 35.7668,138.783 c -3.1226,0 -6.427,-1.018 -9.6763,-3.033 -5.0116,-3.099 -9.3623,-8.258 -12.2536,-14.489 -6.09652,-13.213 -3.6678,-27.3388 5.4246,-31.5391 9.0925,-4.2004 21.4453,3.1158 27.5363,16.3061 2.8858,6.243 3.9873,12.893 3.1006,18.717 -0.9362,6.16 -3.9652,10.713 -8.5252,12.822 -1.7578,0.809 -3.6712,1.224 -5.6064,1.216 z M 24.8129,92.9258 c -1.2782,-0.0113 -2.5433,0.2574 -3.7064,0.7872 -6.7684,3.1324 -8.2609,14.902 -3.2768,25.703 2.5278,5.472 6.2837,9.943 10.5739,12.596 4.0038,2.499 7.958,3.05 11.1356,1.563 3.1777,-1.486 5.3145,-4.839 6.025,-9.49 0.7545,-4.982 -0.2203,-10.741 -2.7536,-16.213 C 38.6636,98.9154 31.1297,92.9258 24.8129,92.9258 Z"
         fill="#144a8f"
         id="path39" /><path
         d="m 15.8352,120.341 c 5.5954,12.112 16.6209,18.927 24.6229,15.233 8.0021,-3.694 9.9516,-16.515 4.3508,-28.627 C 39.208,94.8363 28.199,88.021 20.1804,91.7204 12.1619,95.4198 10.2343,108.236 15.8352,120.347"
         fill="#ffffff"
         id="path40" /><path
         d="m 35.7668,138.783 c -3.1226,0 -6.427,-1.018 -9.6763,-3.033 -5.0116,-3.099 -9.3623,-8.258 -12.2536,-14.489 -6.09652,-13.213 -3.6678,-27.3388 5.4246,-31.5391 9.0925,-4.2004 21.4453,3.1158 27.5363,16.3061 2.8858,6.243 3.9873,12.893 3.1006,18.717 -0.9362,6.16 -3.9652,10.713 -8.5252,12.822 -1.7578,0.809 -3.6712,1.224 -5.6064,1.216 z M 24.8129,92.9258 c -1.2782,-0.0113 -2.5433,0.2574 -3.7064,0.7872 -6.7684,3.1324 -8.2609,14.902 -3.2768,25.703 2.5278,5.472 6.2837,9.943 10.5739,12.596 4.0038,2.499 7.958,3.05 11.1356,1.563 3.1777,-1.486 5.3145,-4.839 6.025,-9.49 0.7545,-4.982 -0.2203,-10.741 -2.7536,-16.213 C 38.6636,98.9154 31.1297,92.9258 24.8129,92.9258 Z"
         fill="#144a8f"
         id="path41" /><path
         d="m 27.0986,113.62 c -0.0011,1.876 0.5545,3.71 1.5965,5.271 1.042,1.56 2.5236,2.777 4.2574,3.496 1.7338,0.719 3.6419,0.907 5.483,0.542 1.841,-0.366 3.5323,-1.268 4.8599,-2.595 1.3276,-1.326 2.2319,-3.016 2.5985,-4.856 0.3666,-1.84 0.179,-3.748 -0.5391,-5.481 -0.718,-1.734 -1.9342,-3.216 -3.4948,-4.258 -1.5606,-1.043 -3.3954,-1.599 -5.2724,-1.599 -2.5157,0 -4.9284,0.998 -6.7078,2.776 -1.7793,1.778 -2.7797,4.189 -2.7812,6.704 z"
         fill="#144a8f"
         id="path42" /><path
         d="m 46.1041,113.62 c 0.0011,1.876 -0.5546,3.711 -1.5969,5.271 -1.0422,1.561 -2.5241,2.778 -4.2582,3.496 -1.7341,0.719 -3.6425,0.907 -5.4837,0.541 -1.8412,-0.365 -3.5325,-1.269 -4.8599,-2.596 -1.3274,-1.327 -2.2312,-3.017 -2.5972,-4.858 -0.366,-1.84 -0.1776,-3.748 0.5413,-5.481 0.7189,-1.734 1.936,-3.215 3.4973,-4.257 1.5613,-1.042 3.3966,-1.597 5.2738,-1.596 2.5148,0.001 4.9261,1.001 6.7043,2.778 1.7782,1.778 2.7778,4.188 2.7792,6.702 z"
         fill="#144a8f"
         id="path43" /><path
         d="m 46.0497,108.638 c 0,1.088 -0.323,2.153 -0.9282,3.058 -0.6051,0.905 -1.4652,1.611 -2.4716,2.028 -1.0063,0.416 -2.1136,0.525 -3.1819,0.313 -1.0683,-0.213 -2.0496,-0.737 -2.8198,-1.507 -0.7702,-0.77 -1.2947,-1.751 -1.5072,-2.818 -0.2125,-1.068 -0.1035,-2.175 0.3134,-3.181 0.4168,-1.006 1.1227,-1.866 2.0283,-2.471 0.9057,-0.605 1.9705,-0.928 3.0597,-0.928 1.4606,0 2.8614,0.58 3.8942,1.613 1.0328,1.032 1.6131,2.432 1.6131,3.893 z"
         fill="#ffffff"
         id="path44" /><path
         d="m 47.8815,134.737 c -1.3748,1.705 -2.0605,3.864 -1.9218,6.05 0.1386,2.186 1.0915,4.24 2.6708,5.758 2.313,2.202 7.3742,3.507 9.9681,3.733 0,0 -18.9119,-1.244 -25.2783,-10.57 2.7536,-2.841 9.9131,-6.705 12.0499,-9.43 2.1368,-2.725 6.6693,-8.021 9.6872,-5.368"
         fill="#2494d1"
         id="path45" /><path
         d="m 52.051,124.206 c 0,0 3.6127,-20.567 -12.0774,-26.4521 3.3814,7.6131 10.3811,24.1731 7.0272,30.3831 -3.3539,6.209 5.0502,-3.931 5.0502,-3.931 z"
         fill="#2494d1"
         id="path46" /><path
         d="m 59.3649,153.851 c -10.5464,0 -21.1533,-5.643 -30.6809,-16.312 -0.1653,-0.19 -0.2992,-0.406 -0.3965,-0.638 -5.6615,-2.72 -11.0145,-8.258 -14.451,-15.635 -6.09657,-13.212 -3.6624,-27.3437 5.4246,-31.5441 4.56,-2.1084 9.9957,-1.4643 15.2936,1.8167 5.0172,3.0994 9.3624,8.2576 12.2537,14.4894 2.8307,6.127 3.822,12.464 3.1611,17.914 2.6169,-2.433 6.0749,-3.757 9.6476,-3.694 3.5728,0.063 6.9823,1.507 9.5122,4.029 l 7.8313,7.785 c 0.3704,0.419 0.5673,0.963 0.5507,1.522 -0.0167,0.56 -0.2455,1.091 -0.6402,1.488 -0.3946,0.397 -0.9254,0.628 -1.4847,0.648 -0.5592,0.019 -1.105,-0.175 -1.5264,-0.543 l -7.8368,-7.789 c -1.7642,-1.758 -4.1536,-2.745 -6.6445,-2.745 -2.491,0 -4.8803,0.987 -6.6445,2.745 l -7.6606,7.624 c -0.0695,0.067 -0.1431,0.13 -0.2203,0.187 -1.0174,0.978 -2.1898,1.779 -3.4696,2.373 -1.6859,0.77 -3.5161,1.173 -5.3695,1.184 5.9423,5.505 13.9939,10.702 23.3507,10.702 0.5843,0 1.1446,0.232 1.5577,0.645 0.4131,0.413 0.6452,0.973 0.6452,1.557 0,0.584 -0.2321,1.144 -0.6452,1.557 -0.4131,0.413 -0.9734,0.645 -1.5577,0.645 z M 17.8292,119.416 c 5.0832,11.011 14.809,17.347 21.7096,14.159 6.7684,-3.126 8.2609,-14.896 3.3044,-25.703 C 40.3153,102.406 36.5594,97.93 32.2692,95.2765 28.2655,92.7992 24.3113,92.2487 21.1336,93.7131 14.3652,96.84 12.8727,108.615 17.8568,119.416 Z"
         fill="#144a8f"
         id="path47" /><path
         d="m 102.211,160.066 c -3.3041,0 -6.7737,-0.892 -10.4635,-2.664 -0.5018,-0.267 -0.8811,-0.717 -1.0588,-1.256 -0.1777,-0.54 -0.14,-1.127 0.1053,-1.639 0.2452,-0.513 0.679,-0.911 1.2108,-1.111 0.5317,-0.2 1.1203,-0.187 1.6427,0.036 6.9775,3.336 11.6755,2.467 15.2775,0.551 -1.9,-1.652 -3.464,-2.945 -3.47,-2.945 -0.391,-0.337 -0.651,-0.801 -0.734,-1.31 -0.084,-0.509 0.014,-1.032 0.276,-1.476 0.262,-0.445 0.673,-0.783 1.159,-0.956 0.486,-0.173 1.018,-0.17 1.502,0.009 4.125,1.652 7.804,1.586 11.24,-0.132 4.345,-2.169 7.496,-6.639 9.588,-10.641 -3.304,1.293 -7.98,1.849 -14.412,0.347 -13.609,-3.193 -22.3486,7.982 -22.712,8.461 -0.3614,0.44 -0.8792,0.723 -1.4449,0.79 -0.5657,0.067 -1.1352,-0.088 -1.5891,-0.432 -0.4539,-0.344 -0.7568,-0.851 -0.8452,-1.413 -0.0884,-0.563 0.0446,-1.137 0.371,-1.604 0.4351,-0.551 10.7722,-13.939 27.2282,-10.085 13.112,3.071 16.582,-3.936 16.725,-4.234 0.233,-0.5 0.645,-0.895 1.155,-1.106 0.51,-0.211 1.08,-0.223 1.599,-0.033 0.514,0.19 0.939,0.565 1.192,1.051 0.253,0.487 0.315,1.05 0.174,1.58 -0.177,0.65 -4.461,15.965 -15.057,21.244 -2.056,1.044 -4.307,1.646 -6.609,1.767 0.19,0.233 0.33,0.502 0.412,0.79 0.082,0.289 0.104,0.591 0.064,0.889 -0.039,0.297 -0.138,0.584 -0.292,0.841 -0.154,0.258 -0.359,0.481 -0.602,0.657 -3.745,2.692 -7.567,4.024 -11.632,4.024 z"
         fill="#144a8f"
         id="path48" /><path
         d="M 51.4791,181.882 H 33.4648 v 7.454 h 18.0143 z"
         fill="#eb2126"
         id="path49" /><path
         d="M 79.3837,185.224 H 61.375 v 7.454 h 18.0087 z"
         fill="#eb2126"
         id="path50" /><path
         d="m 70.0827,193.647 c -0.5842,0 -1.1445,-0.232 -1.5577,-0.645 -0.4131,-0.413 -0.6452,-0.973 -0.6452,-1.557 v -3.039 c 0,-0.584 0.2321,-1.144 0.6452,-1.557 0.4132,-0.413 0.9735,-0.645 1.5577,-0.645 0.5843,0 1.1446,0.232 1.5577,0.645 0.4131,0.413 0.6452,0.973 0.6452,1.557 v 3.039 c 0,0.584 -0.2321,1.144 -0.6452,1.557 -0.4131,0.413 -0.9734,0.645 -1.5577,0.645 z"
         fill="#144a8f"
         id="path51" /><path
         d="m 33.7781,181.073 c 0,0 2.4893,0 4.4058,-0.11 0.6058,-0.027 1.0409,0.788 0.8096,1.536 -0.8867,2.896 -0.1211,5.236 -0.793,6.138 -0.8041,1.063 -5.2925,-0.583 -5.2925,-0.583 z"
         fill="#a62126"
         id="path52" /><path
         d="m 61.116,184.723 c 0,0 2.4673,-0.325 4.3562,-0.661 0.5948,-0.104 1.1015,0.65 0.9913,1.421 -0.5121,2.984 0.5508,5.208 0,6.188 -0.6663,1.161 -5.3255,0.088 -5.3255,0.088 z"
         fill="#a62126"
         id="path53" /><path
         d="m 51.1542,59.1466 c 0,0 9.2192,7.7511 15.525,6.0556 3.811,-1.0295 -0.2148,7.1566 -14.9908,5.1032 -15.3762,-2.147 -7.4073,-17.82 -7.4073,-17.82 z"
         fill="#eb2126"
         id="path54" /><path
         d="m 53.1735,43.0881 c 1.0574,2.4994 9.0925,6.2759 14.6823,5.9566 0.3695,-0.0262 0.737,0.0724 1.0436,0.2801 0.3066,0.2076 0.5345,0.5122 0.6472,0.8649 1.3382,4.327 1.3823,9.3091 0.2588,11.313 C 68.704,63.4184 44.1746,58.9043 44.07,48.5657 43.9654,38.2272 48.1068,38.0235 48.1068,38.0235 Z"
         fill="#eb2126"
         id="path55" /><path
         d="m 53.3348,25.8079 c 0.8316,2.3837 7.1154,6.1712 11.345,6.5511 0.4974,0.0469 0.9704,0.2374 1.3615,0.5482 0.3912,0.3108 0.6834,0.7286 0.8414,1.2024 1.1014,3.237 1.4264,6.7327 1.9495,9.8596 C 69.1627,45.929 45.9441,41.624 45.856,31.3075 45.7679,20.991 49.1603,20.7653 49.1603,20.7653 Z"
         fill="#eb2126"
         id="path56" /><path
         d="m 67.1364,63.5782 c -7.0218,0 -13.322,-2.9452 -15.6296,-4.1619 -4.2791,-2.2681 -8.9878,-5.8849 -9.4669,-9.243 -0.0507,-0.5647 0.1185,-1.1271 0.4722,-1.5702 0.3538,-0.4431 0.8649,-0.7328 1.4269,-0.8087 0.5621,-0.0759 1.1317,0.0678 1.5904,0.4012 0.4587,0.3334 0.7711,0.8308 0.8722,1.3886 0.1487,0.8643 2.649,3.6719 7.7487,6.2428 2.7867,1.4038 12.4959,5.6758 20.4649,1.6901 0.26,-0.1492 0.5477,-0.2438 0.8455,-0.2781 0.2978,-0.0342 0.5994,-0.0073 0.8865,0.0791 0.287,0.0864 0.5534,0.2304 0.7828,0.4232 0.2294,0.1929 0.4171,0.4305 0.5514,0.6984 0.1344,0.2678 0.2127,0.5603 0.23,0.8594 0.0174,0.2992 -0.0265,0.5987 -0.129,0.8803 -0.1025,0.2816 -0.2614,0.5393 -0.4669,0.7574 -0.2056,0.2181 -0.4535,0.3919 -0.7287,0.5109 -2.9401,1.4393 -6.1769,2.169 -9.4504,2.1305 z M 65.8532,47.0629 c -4.6613,-0.0958 -9.2302,-1.3178 -13.3165,-3.5618 -3.7119,-1.9653 -7.8148,-5.1197 -8.2168,-8.0814 -0.0571,-0.5673 0.1081,-1.1345 0.4609,-1.5824 0.3528,-0.448 0.8656,-0.7417 1.4306,-0.8194 0.5649,-0.0777 1.1381,0.0666 1.5988,0.4026 0.4607,0.336 0.773,0.8376 0.8714,1.3991 0.2038,0.7377 2.6049,3.3581 7.4238,5.5546 2.8252,1.2882 10.0452,3.9582 16.0536,0.9414 0.5165,-0.2233 1.0988,-0.2406 1.6277,-0.0483 0.5288,0.1922 0.9639,0.5795 1.2161,1.0824 0.2523,0.5028 0.3024,1.083 0.1402,1.6217 -0.1622,0.5386 -0.5244,0.9947 -1.0124,1.2748 -2.5801,1.2413 -5.4144,1.8634 -8.2774,1.8167 z"
         fill="#144a8f"
         id="path57" /><path
         d="m 64.6951,22.6921 c 0.1091,0.4506 0.04,0.926 -0.1929,1.327 -0.2329,0.4009 -0.6116,0.6966 -1.0572,0.8254 -1.7108,0.598 -3.5031,0.9303 -5.3145,0.9855 -6.2508,0.1486 -8.8006,-7.4374 -8.8006,-7.4374 0,0 2.4397,-14.56098 7.9249,-14.41234 1.8615,0.04954 6.0305,12.84884 7.4403,18.71734"
         fill="#eb2126"
         id="path58" /><path
         d="m 59.3762,76.4767 c -10.1113,0 -18.642,-8.9348 -18.642,-14.55 0,-0.3743 2.0817,-23.4682 6.5095,-41.3377 0.0219,-0.2005 0.0719,-0.397 0.1487,-0.5835 C 50.1901,8.92375 53.902,0 58.5997,0 c 12.4574,0 19.4186,61.3102 19.4186,61.9267 0,5.6152 -8.5143,14.55 -18.6421,14.55 z m -8.74,-50.8065 c -3.1006,14.3133 -5.5072,31.4671 -5.5072,36.2565 0,2.9453 6.1626,10.1514 14.2417,10.1514 8.0791,0 14.2418,-7.2061 14.2418,-10.1514 0,-1.9598 -2.0267,-16.8125 -5.1548,-31.0156 -0.0661,-0.3138 -0.1377,-0.6221 -0.2038,-0.9249 -4.2957,1.101 -9.5,0.3303 -14.451,-2.2901 -1.1081,-0.5895 -2.1671,-1.2669 -3.1667,-2.0259 z m 1.129,-4.9546 c 0.6333,0.8588 2.8142,2.7526 6.3113,4.1123 2.0487,0.8038 5.7386,1.8608 9.1806,0.8919 C 62.2069,5.02615 58.6327,4.40407 58.5997,4.40407 56.4519,4.39857 53.9901,11.4726 51.7652,20.7101 Z"
         fill="#144a8f"
         id="path59" /><path
         d="m 91.6034,108.637 c 0,1.089 -0.323,2.154 -0.9281,3.059 -0.6052,0.905 -1.4653,1.611 -2.4716,2.027 -1.0063,0.417 -2.1137,0.526 -3.182,0.314 -1.0683,-0.213 -2.0496,-0.737 -2.8198,-1.507 -0.7702,-0.77 -1.2947,-1.751 -1.5072,-2.819 -0.2125,-1.067 -0.1034,-2.174 0.3134,-3.18 0.4168,-1.006 1.1227,-1.866 2.0284,-2.471 0.9056,-0.605 1.9704,-0.928 3.0597,-0.928 1.4606,0 2.8614,0.58 3.8942,1.613 1.0328,1.032 1.613,2.432 1.613,3.892 z"
         fill="#ffffff"
         id="path60" /><path
         d="m 59.4625,159.284 0.1928,-0.473 c 1.933,-0.369 4.7637,0.914 5.5403,2.719 l 2.4727,7.201 c 0.3334,0.974 0.3774,2.024 0.1267,3.022 l -2.8583,11.467 -1.0739,-13.069 z"
         fill="#2494d1"
         id="path61" /><path
         d="m 42.0497,191.214 c -0.5843,0 -1.1446,-0.232 -1.5577,-0.645 -0.4131,-0.413 -0.6452,-0.973 -0.6452,-1.557 v -2.703 c 0,-0.584 0.2321,-1.144 0.6452,-1.557 0.4131,-0.413 0.9734,-0.645 1.5577,-0.645 0.5842,0 1.1445,0.232 1.5577,0.645 0.4131,0.413 0.6452,0.973 0.6452,1.557 v 2.703 c 0,0.584 -0.2321,1.144 -0.6452,1.557 -0.4132,0.413 -0.9735,0.645 -1.5577,0.645 z m 7.9304,-8.704 H 33.4584 c -0.5843,0 -1.1446,-0.232 -1.5577,-0.645 -0.4131,-0.413 -0.6452,-0.973 -0.6452,-1.557 0,-0.584 0.2321,-1.144 0.6452,-1.557 0.4131,-0.413 0.9734,-0.645 1.5577,-0.645 h 16.5217 c 0.5843,0 1.1446,0.232 1.5577,0.645 0.4131,0.413 0.6452,0.973 0.6452,1.557 0,0.584 -0.2321,1.144 -0.6452,1.557 -0.4131,0.413 -0.9734,0.645 -1.5577,0.645 z"
         fill="#144a8f"
         id="path62" /><path
         d="M 78.3166,185.406 H 62.6539 c -0.5842,0 -1.1445,-0.232 -1.5577,-0.645 -0.4131,-0.413 -0.6452,-0.973 -0.6452,-1.557 0,-0.584 0.2321,-1.144 0.6452,-1.557 0.4132,-0.413 0.9735,-0.645 1.5577,-0.645 h 15.6627 c 0.5842,0 1.1446,0.232 1.5577,0.645 0.4131,0.413 0.6452,0.973 0.6452,1.557 0,0.584 -0.2321,1.144 -0.6452,1.557 -0.4131,0.413 -0.9735,0.645 -1.5577,0.645 z"
         fill="#144a8f"
         id="path63" /><path
         d="m 60.8412,162.081 c 2.0211,2.02 5.5403,7.602 4.0863,9.05 -1.4539,1.448 -6.0579,0.143 -8.0626,-1.877 -2.0046,-2.021 -2.671,-4.746 -1.2171,-6.193 2.9794,1.227 3.1722,-3.001 5.1934,-0.98 z"
         fill="#2494d1"
         id="path64" /><path
         d="M 49.7818,191.533 H 32.9737 c -0.3013,0 -0.5994,-0.061 -0.876,-0.18 -0.2766,-0.12 -0.5258,-0.294 -0.7321,-0.514 -0.2062,-0.22 -0.3648,-0.48 -0.4662,-0.764 -0.1014,-0.284 -0.1433,-0.586 -0.1231,-0.887 l 1.6962,-25.549 c 0.0156,-0.215 0.062,-0.426 0.1377,-0.628 l 6.6803,-17.798 c 0.2246,-0.519 0.6402,-0.931 1.1608,-1.152 0.5206,-0.221 1.1062,-0.234 1.6357,-0.035 0.5294,0.199 0.9621,0.594 1.2084,1.103 0.2462,0.509 0.2873,1.093 0.1145,1.631 l -6.5646,17.479 -1.52,22.901 h 12.3032 l 0.3139,-14.203 c 0.008,-0.291 0.0735,-0.577 0.1928,-0.843 l 3.855,-8.604 c 0.1081,-0.278 0.2715,-0.531 0.4802,-0.744 0.2088,-0.212 0.4586,-0.381 0.7343,-0.494 0.2758,-0.114 0.5717,-0.17 0.8699,-0.166 0.2981,0.004 0.5923,0.069 0.8647,0.19 0.2725,0.122 0.5174,0.297 0.7201,0.515 0.2026,0.219 0.3588,0.477 0.4589,0.757 0.1002,0.281 0.1423,0.579 0.1237,0.877 -0.0185,0.297 -0.0973,0.588 -0.2315,0.854 l -3.6513,8.197 -0.3524,15.91 c -0.0145,0.578 -0.256,1.128 -0.6723,1.529 -0.4163,0.402 -0.974,0.624 -1.5527,0.618 z"
         fill="#144a8f"
         id="path65" /><path
         d="M 62.5021,178.8 H 51.1406 v 6.804 h 11.3615 z"
         fill="#eb2126"
         id="path66" /><path
         d="M 62.5097,187.806 H 51.1482 c -0.5843,0 -1.1446,-0.232 -1.5577,-0.645 -0.4131,-0.413 -0.6452,-0.973 -0.6452,-1.557 V 178.8 c 0,-0.584 0.2321,-1.144 0.6452,-1.557 0.4131,-0.413 0.9734,-0.645 1.5577,-0.645 h 11.3615 c 0.5842,0 1.1445,0.232 1.5576,0.645 0.4132,0.413 0.6453,0.973 0.6453,1.557 v 6.809 c -0.0015,0.583 -0.2342,1.142 -0.6472,1.554 -0.413,0.412 -0.9725,0.643 -1.5557,0.643 z m -9.1641,-4.404 h 6.9612 v -2.411 h -6.9612 z"
         fill="#144a8f"
         id="path67" /><path
         d="M 78.6958,193.642 H 61.8876 c -0.3068,0.001 -0.6104,-0.062 -0.8914,-0.185 -0.2811,-0.122 -0.5334,-0.303 -0.7408,-0.529 -0.2074,-0.226 -0.3653,-0.492 -0.4635,-0.783 -0.0983,-0.29 -0.1348,-0.598 -0.1072,-0.903 l 1.922,-20.744 -3.855,-8.747 c -0.207,-0.531 -0.2005,-1.121 0.0183,-1.646 0.2187,-0.526 0.6326,-0.946 1.1549,-1.174 0.5222,-0.227 1.1122,-0.243 1.6461,-0.045 0.5339,0.199 0.9702,0.596 1.2175,1.109 l 4.0478,9.265 c 0.1536,0.345 0.2125,0.725 0.1707,1.101 l -1.7458,18.91 h 12.5015 l 3.6293,-23.672 c 0.0319,-0.296 0.1235,-0.582 0.2691,-0.841 0.1456,-0.26 0.3422,-0.487 0.5781,-0.668 0.2358,-0.181 0.506,-0.313 0.7941,-0.387 0.2881,-0.074 0.5883,-0.089 0.8824,-0.044 0.2941,0.045 0.576,0.149 0.8287,0.306 0.2527,0.157 0.4711,0.363 0.6418,0.607 0.1707,0.243 0.2903,0.519 0.3516,0.81 0.0613,0.291 0.063,0.591 0.0049,0.883 l -2.5719,17.165 c 0.1064,-0.006 0.2131,-0.006 0.3195,0 h 2.8031 c 0.1395,-0.449 0.4189,-0.841 0.7974,-1.12 0.3785,-0.279 0.8363,-0.429 1.3064,-0.429 0.4701,0 0.9279,0.15 1.3064,0.429 0.3785,0.279 0.6579,0.671 0.7974,1.12 h 2.6985 c -0.4075,-32.221 -9.7203,-40.908 -9.8194,-40.991 -0.4352,-0.385 -0.7008,-0.926 -0.7389,-1.505 -0.0382,-0.579 0.1541,-1.151 0.5351,-1.589 0.3778,-0.433 0.9102,-0.702 1.4834,-0.748 0.5731,-0.046 1.1417,0.133 1.5842,0.5 0.4626,0.397 11.367,10.036 11.367,46.529 0,0.584 -0.2321,1.144 -0.6453,1.557 -0.4131,0.413 -0.9734,0.645 -1.5576,0.645 H 82.4682 c -0.3314,0.001 -0.6586,-0.073 -0.9582,-0.214 l -0.6389,4.184 c -0.0849,0.515 -0.3503,0.983 -0.7488,1.321 -0.3984,0.338 -0.9041,0.523 -1.4265,0.523 z m -22.4421,-6.904 c -0.5843,0 -1.1446,-0.232 -1.5577,-0.645 -0.4131,-0.413 -0.6452,-0.973 -0.6452,-1.557 v -0.479 c 0,-0.584 0.2321,-1.144 0.6452,-1.557 0.4131,-0.413 0.9734,-0.645 1.5577,-0.645 0.5842,0 1.1445,0.232 1.5577,0.645 0.4131,0.413 0.6452,0.973 0.6452,1.557 v 0.49 c -0.0029,0.582 -0.2363,1.14 -0.6491,1.55 -0.4128,0.411 -0.9715,0.641 -1.5538,0.641 z"
         fill="#144a8f"
         id="path68" /><path
         d="m 41.7918,147.025 -7.1209,16.768 -1.2061,16.515 h 16.5218 l 3.2163,-1.811 9.3127,0.325 0.1432,4.404 h 17.3093 l 1.2447,-4.404 H 94.287 c 0,0 -3.6623,-32.199 -9.9131,-36.504 -23.7307,16.119 -42.5876,4.723 -42.5876,4.723"
         fill="#ffffff"
         id="path69" /><path
         d="m 84.6921,165.824 0.9638,12.271 h -4.5875 z"
         fill="#2494d1"
         id="path70" /><path
         d="m 39.3359,151.649 c 0,0 14.3629,8.577 31.5841,0 13.7681,-6.843 -29.1278,-4.625 -29.1278,-4.625 z"
         fill="#2494d1"
         id="path71" /><path
         d="m 94.3915,185.61 h -14.038 l 0.8536,-6.81 h 13.0798 c 0,0 0.1377,4.591 0.1156,6.81"
         fill="#eb2126"
         id="path72" /><path
         d="m 94.3905,187.806 h -14.038 c -0.313,0.002 -0.6228,-0.062 -0.9089,-0.189 -0.2861,-0.127 -0.5418,-0.313 -0.7503,-0.546 -0.2084,-0.234 -0.3647,-0.509 -0.4584,-0.807 -0.0938,-0.299 -0.1229,-0.614 -0.0853,-0.924 l 0.8701,-6.788 c 0.0675,-0.535 0.329,-1.027 0.735,-1.382 0.4061,-0.355 0.9284,-0.549 1.4679,-0.545 h 13.0632 c 0.5721,0 1.1218,0.222 1.5329,0.62 0.4111,0.397 0.6514,0.939 0.67,1.511 0,0 0.1377,4.652 0.1157,6.898 -0.013,0.577 -0.2523,1.126 -0.6664,1.529 -0.4141,0.402 -0.9699,0.626 -1.5475,0.623 z m -11.5653,-4.404 h 9.3624 c 0,-0.82 -0.0331,-1.651 -0.0496,-2.411 h -8.9878 z"
         fill="#144a8f"
         id="path73" /><path
         d="m 89.6066,143.986 c 0,0 9.7203,-12.844 24.9694,-9.265 15.25,3.578 19.232,-5.461 19.232,-5.461 0,0 -7.578,27.723 -26.986,20.077 0,0 2.98,2.499 5.728,4.905 -5.821,4.178 -11.103,6.661 -21.5501,0.374"
         fill="#2494d1"
         id="path74" /><path
         d="m 88.29,146.177 c 0,0 9.8525,-14.418 22.337,-11.5 12.485,2.917 20.008,-0.165 20.008,-0.165 0,0 -8.69,17.792 -22.579,9.567 -2.418,-1.728 -5.656,-1.343 -7.237,0.859 -1.5806,2.202 -0.9032,5.395 1.515,7.124 -3.6573,1.481 -8.5257,-0.408 -11.1361,-2.147"
         fill="#ffffff"
         id="path75" /><path
         d="m 45.8214,148.885 c 0,0 1.5255,-3.925 -4.0258,-1.861 -5.5513,2.065 -9.1366,33.356 -9.1366,33.356 h 2.4893 c 1.3658,0 4.1084,-0.259 4.0148,-1.619 0,0 0.1707,-9.248 0.8151,-14.407 1.2887,-4.74 5.8432,-15.469 5.8432,-15.469 z"
         fill="#2494d1"
         id="path76" /><path
         d="m 112.597,74.9354 c 0,29.8876 -23.8303,76.7186 -53.2225,76.7186 -29.3922,0 -53.20559,-46.831 -53.20559,-76.7186 0,-29.8871 23.82989,-41.8387 53.22209,-41.8387 29.3922,0 53.222,11.9736 53.222,41.8387"
         fill="#ffffff"
         id="path77" /><path
         d="m 59.3772,153.851 c -30.5928,0 -55.40845,-47.751 -55.40845,-78.9156 0,-27.9989 20.20055,-44.0407 55.42495,-44.0407 35.2244,0 55.4193,16.0638 55.4193,44.0407 C 114.797,106.1 89.97,153.851 59.3772,153.851 Z m 0,-118.5798 c -15.3432,0 -51.02468,3.8536 -51.02468,39.6642 0,28.7476 23.35078,74.5226 51.02468,74.5226 27.6739,0 51.0248,-45.775 51.0248,-74.5226 0,-35.7996 -35.6871,-39.6642 -51.0248,-39.6642 z"
         fill="#144a8f"
         id="path78" /><path
         d="m 13.7826,69.9532 c 0,0 -5.23188,0.8367 -7.80377,-0.2312 -3.45856,-1.4369 2.15884,-5.7529 2.15884,-5.7529 z"
         fill="#2494d1"
         id="path79" /><path
         d="m 72.174,64.3765 c 0,6.6612 -4.4058,8.8852 -12.6667,12.0231 -9.3623,0 -28.2467,-5.3619 -28.2467,-12.0231 0,-6.6611 20.6192,-12.0671 29.9815,-12.0671 9.3624,0 10.9154,5.4005 10.9154,12.0671"
         fill="#2494d1"
         id="path80" /><path
         d="m 67.4113,124.36 c 0,0 -2.9079,-12.111 6.2011,-16.179 -1.7238,4.657 -5.2759,14.764 -3.051,18.331 2.2249,3.568 -3.1501,-2.152 -3.1501,-2.152 z"
         fill="#2494d1"
         id="path81" /><path
         d="m 59.3772,153.851 c -30.5928,0 -55.40845,-47.751 -55.40845,-78.9156 0,-27.9989 20.20055,-44.0407 55.42495,-44.0407 35.2244,0 55.4193,16.0638 55.4193,44.0407 C 114.797,106.1 89.97,153.851 59.3772,153.851 Z m 0,-118.5798 c -15.3432,0 -51.02468,3.8536 -51.02468,39.6642 0,28.7476 23.35078,74.5226 51.02468,74.5226 27.6739,0 51.0248,-45.775 51.0248,-74.5226 0,-35.7996 -35.6871,-39.6642 -51.0248,-39.6642 z"
         fill="#144a8f"
         id="path82" /><path
         d="m 42.3428,85.3949 c 0,0 2.9739,12.6617 22.8551,14.561 1.3327,0.1271 2.1203,-1.5084 1.4043,-2.6369 -0.9362,-1.4809 -3.9212,-3.8811 -3.9652,-5.8464 4.4058,0.5119 11.5652,2.6479 15.3322,0.611 0.2584,-0.1417 0.4722,-0.3526 0.6175,-0.609 0.1452,-0.2564 0.216,-0.5482 0.2046,-0.8426 -0.0114,-0.2944 -0.1047,-0.5798 -0.2694,-0.8242 -0.1647,-0.2444 -0.3942,-0.4381 -0.6629,-0.5593 -2.4397,-1.101 -2.3185,-5.2078 -3.4475,-7.3108"
         fill="#2494d1"
         id="path83" /><path
         d="m 42.9306,81.3708 c 0,0 1.7128,13.9554 26.4734,12.1552 -1.4704,-1.9047 -3.0345,-3.9471 -3.1006,-6.7217 4.9125,0.5505 11.1192,0.6992 14.2473,-2.9617 -2.9189,-0.512 -6.1902,-2.7526 -7.545,-5.2904"
         fill="#ffffff"
         id="path84" /><path
         d="m 65.0989,95.8877 c -22.3429,0 -24.2815,-13.6361 -24.3586,-14.2471 -0.0336,-0.5581 0.1464,-1.1081 0.5035,-1.5384 0.3571,-0.4303 0.8646,-0.7087 1.4195,-0.7787 0.5549,-0.0701 1.1157,0.0735 1.5686,0.4016 0.4529,0.328 0.764,0.816 0.8702,1.365 0.0716,0.4899 1.7788,10.4046 20.0023,10.4046 h 0.2533 c -0.7825,-1.4231 -1.2148,-3.012 -1.2611,-4.6353 -0.0038,-0.3102 0.058,-0.6176 0.1814,-0.9022 0.1234,-0.2846 0.3055,-0.54 0.5345,-0.7493 0.2332,-0.21 0.5087,-0.3678 0.8079,-0.4628 0.2992,-0.0949 0.6152,-0.1248 0.9269,-0.0877 3.9652,0.4624 7.0162,0.3578 9.2191,-0.3193 -1.9521,-1.1332 -3.575,-2.7555 -4.7087,-4.7069 -0.2065,-0.5031 -0.2196,-1.0648 -0.0366,-1.5769 0.183,-0.5121 0.5491,-0.9384 1.0278,-1.1968 0.4787,-0.2584 1.0361,-0.3306 1.5649,-0.2027 0.5288,0.1279 0.9915,0.4469 1.299,0.8955 1.0133,1.8937 3.7009,3.7655 5.9864,4.1673 0.3804,0.069 0.7359,0.2367 1.0309,0.4865 0.295,0.2497 0.5191,0.5727 0.6497,0.9364 0.1306,0.3638 0.1631,0.7554 0.0943,1.1357 -0.0688,0.3803 -0.2365,0.7358 -0.4862,1.0308 -3.1447,3.6884 -8.4426,4.2334 -13.0577,3.9911 0.5668,1.035 1.2306,2.0138 1.9826,2.9233 0.2411,0.3148 0.3928,0.6888 0.4389,1.0826 0.0461,0.3938 -0.015,0.7928 -0.1769,1.1547 -0.1619,0.362 -0.4185,0.6736 -0.7428,0.9018 -0.3243,0.2283 -0.7043,0.3648 -1.0998,0.3951 -1.5457,0.0918 -3.0235,0.1358 -4.4333,0.1321 z"
         fill="#144a8f"
         id="path85" /><path
         d="m 75.8144,61.9269 c 0,4.3491 -7.3577,12.3479 -16.4391,12.3479 -9.0815,0 -16.4447,-7.9988 -16.4447,-12.3479 0,-4.349 6.5812,-59.72469 15.6682,-59.72469 9.0869,0 17.2156,55.38119 17.2156,59.72469 z"
         fill="#ffffff"
         id="path86" /><path
         d="m 59.3774,76.4767 c -10.1113,0 -18.642,-8.9348 -18.642,-14.55 C 40.7354,61.2937 46.2922,0 58.6009,0 c 12.4574,0 19.4185,61.3102 19.4185,61.9267 0,5.6152 -8.5142,14.55 -18.642,14.55 z M 58.6009,4.39857 c -5.645,0 -13.4653,48.87413 -13.4653,57.52813 0,2.9453 6.1627,10.1514 14.2418,10.1514 8.0791,0 14.2417,-7.2061 14.2417,-10.1514 0,-1.9598 -2.0266,-16.8125 -5.1548,-31.0156 C 62.7809,5.14175 58.6394,4.39857 58.6009,4.39857 Z"
         fill="#144a8f"
         id="path87" /><path
         d="m 69.2554,139.829 c 0.2313,1.167 -1.6852,-0.06 -3.6678,0.331 -1.9827,0.39 -3.3044,2.257 -3.5137,1.101 -0.2093,-1.157 0.9583,-3.595 2.9409,-3.992 1.9826,-0.396 4.0093,1.399 4.2406,2.571"
         fill="#144a8f"
         id="path88" /><path
         d="m 49.6772,139.829 c -0.2313,1.167 1.6852,-0.06 3.6679,0.331 1.9826,0.39 3.3043,2.257 3.5136,1.101 0.2093,-1.157 -0.9583,-3.595 -2.9409,-3.992 -1.9826,-0.396 -4.0093,1.399 -4.2406,2.571"
         fill="#144a8f"
         id="path89" /><path
         d="m 28.7489,43.9636 c 0,0 -12.9971,-6.43 -25.01393,-5.6593 -4.268122,12.3479 0.62232,24.6958 9.91303,29.5073"
         fill="#ffffff"
         id="path90" /><path
         d="M 13.6218,70.0138 C 13.2692,70.0123 12.9219,69.9274 12.6084,69.7661 1.94089,64.2225 -2.76781,50.3882 1.65451,37.5833 1.79662,37.1741 2.05634,36.8158 2.40117,36.5534 2.74599,36.2909 3.16059,36.136 3.59307,36.108 16.0835,35.2822 29.1742,41.7177 29.725,41.9929 c 0.4896,0.2773 0.8545,0.7315 1.0198,1.2692 0.1653,0.5378 0.1184,1.1184 -0.131,1.6226 -0.2495,0.5043 -0.6825,0.8941 -1.2103,1.0893 -0.5278,0.1952 -1.1104,0.1811 -1.6281,-0.0394 -0.1156,-0.0551 -11.5652,-5.6152 -22.409,-5.5051 -2.92986,10.3495 0.9087,21.09 9.2687,25.4335 0.4348,0.2286 0.7807,0.596 0.9826,1.0437 0.202,0.4477 0.2484,0.9501 0.1319,1.4272 -0.1165,0.4771 -0.3891,0.9016 -0.7747,1.206 -0.3856,0.3044 -0.8618,0.4712 -1.3531,0.4739 z"
         fill="#144a8f"
         id="path91" /><path
         d="m 7.96029,46.5457 c -0.29188,1.8387 0.08261,9.5348 6.93361,14.9243 0.0545,0.058 0.1279,0.0948 0.207,0.1038 0.0791,0.009 0.1588,-0.0104 0.2249,-0.0547 0.0662,-0.0443 0.1144,-0.1106 0.1362,-0.1872 0.0217,-0.0765 0.0156,-0.1583 -0.0173,-0.2307 -0.4318,-1.192 -0.7148,-2.4327 -0.8427,-3.694 -0.0054,-0.0741 0.0101,-0.1483 0.0449,-0.214 0.0347,-0.0658 0.0872,-0.1204 0.1516,-0.1578 0.0643,-0.0373 0.1378,-0.0558 0.2122,-0.0533 0.0743,0.0025 0.1464,0.0258 0.2082,0.0673 0.6278,0.4239 1.3988,0.7212 2.8913,0.4074 0.1113,-0.0241 0.2155,-0.074 0.304,-0.1457 0.0886,-0.0718 0.159,-0.1633 0.2056,-0.2672 0.0467,-0.104 0.0682,-0.2174 0.0629,-0.3312 -0.0053,-0.1138 -0.0373,-0.2248 -0.0934,-0.3239 -0.3364,-0.4997 -0.5703,-1.061 -0.6884,-1.6515 -0.0147,-0.1002 -0.0071,-0.2024 0.0223,-0.2993 0.0294,-0.097 0.0798,-0.1862 0.1477,-0.2614 0.0678,-0.0752 0.1515,-0.1345 0.2449,-0.1736 0.0934,-0.0392 0.1943,-0.0573 0.2955,-0.053 2.6105,0.0936 4.6481,0.4184 6.2783,-0.7487"
         fill="#2494d1"
         id="path92" /><path
         d="M 23.9488,51.5495 C 19.4419,49.4416 14.6807,47.9261 9.78418,47.0409 Z"
         fill="#ffffff"
         id="path93" /><path
         d="M 23.9494,53.7463 C 23.6117,53.7444 23.2787,53.6673 22.9746,53.5206 18.6584,51.509 14.1014,50.0603 9.41572,49.2101 8.85976,49.0918 8.37111,48.7631 8.05192,48.2929 7.73273,47.8228 7.60772,47.2475 7.70301,46.6873 c 0.0953,-0.5602 0.40353,-1.0618 0.86025,-1.4001 0.45672,-0.3383 1.02657,-0.487 1.59044,-0.4151 5.1083,0.9163 10.0741,2.4988 14.7704,4.7069 0.4408,0.2226 0.794,0.5868 1.0028,1.0342 0.2089,0.4473 0.2613,0.9518 0.1488,1.4325 -0.1124,0.4807 -0.3832,0.9097 -0.7688,1.2181 -0.3856,0.3084 -0.8637,0.4784 -1.3575,0.4825 z"
         fill="#144a8f"
         id="path94" /><path
         d="m 89.9971,43.9636 c 0,0 13.0029,-6.4299 25.0199,-5.6592 4.268,12.3479 -0.623,24.6958 -9.914,29.5072"
         fill="#ffffff"
         id="path95" /><path
         d="m 105.132,70.0138 c -0.492,-0.0016 -0.969,-0.1675 -1.356,-0.4715 -0.386,-0.3039 -0.66,-0.7284 -0.777,-1.2058 -0.117,-0.4775 -0.071,-0.9803 0.131,-1.4286 0.201,-0.4483 0.548,-0.8161 0.983,-1.045 8.349,-4.3435 12.204,-15.0839 9.274,-25.4225 -10.91,-0.1761 -22.2933,5.439 -22.4035,5.4941 -0.5177,0.2205 -1.1002,0.2347 -1.6281,0.0394 -0.5278,-0.1952 -0.9608,-0.5849 -1.2102,-1.0892 -0.2495,-0.5043 -0.2963,-1.0849 -0.1311,-1.6226 0.1653,-0.5378 0.5302,-0.9919 1.0199,-1.2692 0.5507,-0.2698 13.674,-6.6832 26.137,-5.885 0.433,0.028 0.847,0.183 1.192,0.4454 0.345,0.2624 0.605,0.6207 0.747,1.03 4.406,12.8048 -0.286,26.6391 -10.96,32.1827 -0.314,0.1634 -0.664,0.2484 -1.018,0.2478 z"
         fill="#144a8f"
         id="path96" /><path
         d="m 110.808,46.5457 c 0.292,1.8387 -0.082,9.5348 -6.933,14.9243 -0.055,0.058 -0.128,0.0948 -0.207,0.1038 -0.079,0.0089 -0.159,-0.0104 -0.225,-0.0547 -0.066,-0.0443 -0.115,-0.1107 -0.136,-0.1872 -0.022,-0.0765 -0.016,-0.1583 0.017,-0.2308 0.429,-1.1927 0.712,-2.4331 0.842,-3.6939 0.006,-0.0741 -0.01,-0.1483 -0.044,-0.2141 -0.035,-0.0657 -0.088,-0.1204 -0.152,-0.1577 -0.064,-0.0373 -0.138,-0.0558 -0.212,-0.0533 -0.075,0.0025 -0.147,0.0258 -0.208,0.0673 -0.628,0.4239 -1.399,0.7211 -2.892,0.4073 -0.111,-0.024 -0.215,-0.0739 -0.304,-0.1457 -0.088,-0.0717 -0.159,-0.1632 -0.205,-0.2672 -0.047,-0.1039 -0.068,-0.2173 -0.063,-0.3311 0.005,-0.1138 0.037,-0.2248 0.093,-0.3239 0.334,-0.5009 0.568,-1.0618 0.689,-1.6516 0.014,-0.1002 0.007,-0.2024 -0.023,-0.2993 -0.029,-0.0969 -0.08,-0.1861 -0.147,-0.2613 -0.068,-0.0752 -0.152,-0.1345 -0.245,-0.1737 -0.094,-0.0391 -0.195,-0.0572 -0.296,-0.0529 -2.6103,0.0936 -4.6479,0.4184 -6.2781,-0.7487"
         fill="#2494d1"
         id="path97" /><path
         d="m 94.7988,51.5495 c 4.5087,-2.1085 9.2722,-3.624 14.1702,-4.5086 z"
         fill="#ffffff"
         id="path98" /><path
         d="m 94.8041,53.7463 c -0.4943,-0.0029 -0.9733,-0.172 -1.3598,-0.48 -0.3866,-0.3079 -0.6583,-0.7369 -0.7714,-1.2179 -0.1131,-0.481 -0.0612,-0.9861 0.1476,-1.434 0.2087,-0.4479 0.5621,-0.8126 1.0033,-1.0354 4.6997,-2.2091 9.6692,-3.7916 14.7812,-4.7069 0.564,-0.0719 1.134,0.0768 1.591,0.4151 0.456,0.3383 0.765,0.8399 0.86,1.4001 0.095,0.5602 -0.03,1.1355 -0.349,1.6056 -0.319,0.4702 -0.808,0.7989 -1.364,0.9172 -4.687,0.8507 -9.246,2.2994 -13.5641,4.3105 -0.3041,0.1468 -0.6371,0.224 -0.9748,0.2257 z"
         fill="#144a8f"
         id="path99" /><path
         d="m 102.917,120.341 c -5.6009,12.112 -16.6265,18.927 -24.6285,15.233 -8.002,-3.694 -9.9461,-16.515 -4.3507,-28.627 5.5953,-12.1107 16.6264,-18.9315 24.6284,-15.2321 8.0018,3.6994 9.9518,16.5151 4.3508,28.6261 z"
         fill="#ffffff"
         id="path100" /><path
         d="m 82.9797,138.783 c -1.9371,0.009 -3.8526,-0.406 -5.6119,-1.216 -4.5655,-2.109 -7.5945,-6.661 -8.5307,-12.822 -0.8867,-5.824 0.2202,-12.474 3.106,-18.717 6.1021,-13.2121 18.4658,-20.5009 27.5363,-16.306 9.0706,4.1949 11.5216,18.348 5.4246,31.539 -2.891,6.242 -7.242,11.39 -12.2536,14.489 -3.2438,2.015 -6.5481,3.033 -9.6707,3.033 z M 93.9391,92.926 c -6.3168,0 -13.8617,5.9895 -18.0032,14.946 -2.5278,5.472 -3.5081,11.231 -2.7536,16.213 0.7049,4.652 2.8472,8.026 6.0249,9.491 3.1777,1.464 7.1594,0.913 11.1357,-1.564 4.2846,-2.653 8.0405,-7.123 10.5681,-12.596 4.995,-10.801 3.497,-22.5704 -3.271,-25.7028 -1.1616,-0.5286 -2.4247,-0.7972 -3.7009,-0.7872 z"
         fill="#144a8f"
         id="path101" /><path
         d="m 15.8352,120.341 c 5.5954,12.112 16.6209,18.927 24.6229,15.233 8.0021,-3.694 9.9516,-16.515 4.3508,-28.627 C 39.208,94.8363 28.199,88.021 20.1804,91.7204 12.1619,95.4198 10.2343,108.236 15.8352,120.347"
         fill="#ffffff"
         id="path102" /><path
         d="m 35.7668,138.783 c -3.1226,0 -6.427,-1.018 -9.6763,-3.033 -5.0116,-3.099 -9.3623,-8.258 -12.2536,-14.489 -6.09652,-13.213 -3.6678,-27.3388 5.4246,-31.5391 9.0925,-4.2004 21.4453,3.1158 27.5363,16.3061 2.8858,6.243 3.9873,12.893 3.1006,18.717 -0.9362,6.16 -3.9652,10.713 -8.5252,12.822 -1.7578,0.809 -3.6712,1.224 -5.6064,1.216 z M 24.8129,92.9258 c -1.2782,-0.0113 -2.5433,0.2574 -3.7064,0.7872 -6.7684,3.1324 -8.2609,14.902 -3.2768,25.703 2.5278,5.472 6.2837,9.943 10.5739,12.596 4.0038,2.499 7.958,3.05 11.1356,1.563 3.1777,-1.486 5.3145,-4.839 6.025,-9.49 0.7545,-4.982 -0.2203,-10.741 -2.7536,-16.213 C 38.6636,98.9154 31.1297,92.9258 24.8129,92.9258 Z"
         fill="#144a8f"
         id="path103" /><path
         d="m 15.8352,120.341 c 5.5954,12.112 16.6209,18.927 24.6229,15.233 8.0021,-3.694 9.9516,-16.515 4.3508,-28.627 C 39.208,94.8363 28.199,88.021 20.1804,91.7204 12.1619,95.4198 10.2343,108.236 15.8352,120.347"
         fill="#ffffff"
         id="path104" /><path
         d="m 35.7668,138.783 c -3.1226,0 -6.427,-1.018 -9.6763,-3.033 -5.0116,-3.099 -9.3623,-8.258 -12.2536,-14.489 -6.09652,-13.213 -3.6678,-27.3388 5.4246,-31.5391 9.0925,-4.2004 21.4453,3.1158 27.5363,16.3061 2.8858,6.243 3.9873,12.893 3.1006,18.717 -0.9362,6.16 -3.9652,10.713 -8.5252,12.822 -1.7578,0.809 -3.6712,1.224 -5.6064,1.216 z M 24.8129,92.9258 c -1.2782,-0.0113 -2.5433,0.2574 -3.7064,0.7872 -6.7684,3.1324 -8.2609,14.902 -3.2768,25.703 2.5278,5.472 6.2837,9.943 10.5739,12.596 4.0038,2.499 7.958,3.05 11.1356,1.563 3.1777,-1.486 5.3145,-4.839 6.025,-9.49 0.7545,-4.982 -0.2203,-10.741 -2.7536,-16.213 C 38.6636,98.9154 31.1297,92.9258 24.8129,92.9258 Z"
         fill="#144a8f"
         id="path105" /><path
         d="m 45.5909,110.839 c -0.3381,0.771 -0.8485,1.454 -1.4919,1.997 -0.6434,0.542 -1.4028,0.93 -2.2196,1.134 -0.8169,0.203 -1.6696,0.217 -2.4925,0.04 -0.823,-0.178 -1.5943,-0.541 -2.2547,-1.063 -0.6605,-0.522 -1.1924,-1.188 -1.555,-1.948 -0.3626,-0.759 -0.5462,-1.592 -0.5366,-2.433 0.0095,-0.842 0.2119,-1.67 0.5916,-2.421 0.3797,-0.751 0.9267,-1.405 1.5987,-1.912 -0.2203,0 -0.4295,-0.066 -0.6553,-0.066 -2.0439,-0.035 -4.0461,0.58 -5.7177,1.757 -1.6716,1.176 -2.9264,2.852 -3.5833,4.787 -0.6569,1.935 -0.682,4.029 -0.0718,5.979 0.6103,1.95 1.8245,3.656 3.4674,4.872 1.6429,1.216 3.6297,1.879 5.6738,1.893 2.0442,0.015 4.0401,-0.62 5.6998,-1.813 1.6598,-1.193 2.8977,-2.882 3.5352,-4.823 0.6375,-1.942 0.6417,-4.036 0.0119,-5.98 z"
         fill="#144a8f"
         id="path106" /><path
         d="m 47.8815,134.737 c -1.3748,1.705 -2.0605,3.864 -1.9218,6.05 0.1386,2.186 1.0915,4.24 2.6708,5.758 2.313,2.202 7.3742,3.507 9.9681,3.733 0,0 -18.9119,-1.244 -25.2783,-10.57 2.7536,-2.841 9.9131,-6.705 12.0499,-9.43 2.1368,-2.725 6.6693,-8.021 9.6872,-5.368"
         fill="#2494d1"
         id="path107" /><path
         d="m 52.051,124.206 c 0,0 3.6127,-20.567 -12.0774,-26.4521 3.3814,7.6131 10.3811,24.1731 7.0272,30.3831 -3.3539,6.209 5.0502,-3.931 5.0502,-3.931 z"
         fill="#2494d1"
         id="path108" /><path
         d="m 59.3649,153.851 c -10.5464,0 -21.1533,-5.643 -30.6809,-16.312 -0.1653,-0.19 -0.2992,-0.406 -0.3965,-0.638 -5.6615,-2.72 -11.0145,-8.258 -14.451,-15.635 -6.09657,-13.212 -3.6624,-27.3437 5.4246,-31.5441 4.56,-2.1084 9.9957,-1.4643 15.2936,1.8167 5.0172,3.0994 9.3624,8.2576 12.2537,14.4894 2.8307,6.127 3.822,12.464 3.1611,17.914 2.6169,-2.433 6.0749,-3.757 9.6476,-3.694 3.5728,0.063 6.9823,1.507 9.5122,4.029 l 7.8313,7.785 c 0.3704,0.419 0.5673,0.963 0.5507,1.522 -0.0167,0.56 -0.2455,1.091 -0.6402,1.488 -0.3946,0.397 -0.9254,0.628 -1.4847,0.648 -0.5592,0.019 -1.105,-0.175 -1.5264,-0.543 l -7.8368,-7.789 c -1.7642,-1.758 -4.1536,-2.745 -6.6445,-2.745 -2.491,0 -4.8803,0.987 -6.6445,2.745 l -7.6606,7.624 c -0.0695,0.067 -0.1431,0.13 -0.2203,0.187 -1.0174,0.978 -2.1898,1.779 -3.4696,2.373 -1.6859,0.77 -3.5161,1.173 -5.3695,1.184 5.9423,5.505 13.9939,10.702 23.3507,10.702 0.5843,0 1.1446,0.232 1.5577,0.645 0.4131,0.413 0.6452,0.973 0.6452,1.557 0,0.584 -0.2321,1.144 -0.6452,1.557 -0.4131,0.413 -0.9734,0.645 -1.5577,0.645 z M 17.8292,119.416 c 5.0832,11.011 14.809,17.347 21.7096,14.159 6.7684,-3.126 8.2609,-14.896 3.3044,-25.703 C 40.3153,102.406 36.5594,97.93 32.2692,95.2765 28.2655,92.7992 24.3113,92.2487 21.1336,93.7131 14.3652,96.84 12.8727,108.615 17.8568,119.416 Z"
         fill="#144a8f"
         id="path109" /><path
         d="m 101.778,159.923 c -3.9436,-0.059 -7.8237,-1 -11.3562,-2.753 -0.4953,-0.269 -0.8683,-0.718 -1.0422,-1.255 -0.1739,-0.536 -0.1355,-1.118 0.1073,-1.627 0.2429,-0.509 0.6716,-0.905 1.198,-1.107 0.5263,-0.202 1.1102,-0.195 1.6314,0.02 5.9148,2.824 11.6757,3.055 16.5217,0.727 -1.878,-1.608 -3.403,-2.896 -3.409,-2.896 -0.391,-0.337 -0.651,-0.801 -0.734,-1.31 -0.084,-0.509 0.014,-1.031 0.276,-1.476 0.262,-0.444 0.673,-0.782 1.159,-0.955 0.486,-0.173 1.018,-0.17 1.502,0.009 4.125,1.651 7.804,1.585 11.24,-0.132 4.345,-2.169 7.496,-6.64 9.588,-10.642 -3.304,1.294 -7.98,1.85 -14.412,0.347 -13.664,-3.209 -23.9511,9.529 -24.0503,9.656 -0.3726,0.423 -0.8932,0.687 -1.4547,0.738 -0.5614,0.051 -1.121,-0.116 -1.5635,-0.465 -0.4425,-0.349 -0.7342,-0.855 -0.8151,-1.412 -0.0809,-0.558 0.0552,-1.126 0.3803,-1.586 0.4846,-0.617 12.0829,-15.067 28.5113,-11.214 13.112,3.072 16.582,-3.936 16.725,-4.233 0.233,-0.5 0.645,-0.895 1.155,-1.106 0.51,-0.211 1.081,-0.223 1.599,-0.034 0.514,0.19 0.94,0.565 1.192,1.052 0.253,0.486 0.315,1.05 0.174,1.58 -0.177,0.649 -4.461,15.964 -15.057,21.244 -2.056,1.043 -4.307,1.645 -6.609,1.767 0.19,0.232 0.33,0.501 0.412,0.79 0.082,0.289 0.104,0.591 0.064,0.888 -0.039,0.298 -0.138,0.584 -0.292,0.842 -0.154,0.257 -0.359,0.481 -0.602,0.656 -3.5,2.537 -7.716,3.898 -12.039,3.887 z"
         fill="#144a8f"
         id="path110" /><path
         d="M 51.4791,181.882 H 33.4648 v 7.454 h 18.0143 z"
         fill="#eb2126"
         id="path111" /><path
         d="M 79.3837,185.224 H 61.375 v 7.454 h 18.0087 z"
         fill="#eb2126"
         id="path112" /><path
         d="m 70.0827,193.647 c -0.5842,0 -1.1445,-0.232 -1.5577,-0.645 -0.4131,-0.413 -0.6452,-0.973 -0.6452,-1.557 v -3.039 c 0,-0.584 0.2321,-1.144 0.6452,-1.557 0.4132,-0.413 0.9735,-0.645 1.5577,-0.645 0.5843,0 1.1446,0.232 1.5577,0.645 0.4131,0.413 0.6452,0.973 0.6452,1.557 v 3.039 c 0,0.584 -0.2321,1.144 -0.6452,1.557 -0.4131,0.413 -0.9734,0.645 -1.5577,0.645 z"
         fill="#144a8f"
         id="path113" /><path
         d="m 33.7781,181.073 c 0,0 2.4893,0 4.4058,-0.11 0.6058,-0.027 1.0409,0.788 0.8096,1.536 -0.8867,2.896 -0.1211,5.236 -0.793,6.138 -0.8041,1.063 -5.2925,-0.583 -5.2925,-0.583 z"
         fill="#a62126"
         id="path114" /><path
         d="m 61.116,184.723 c 0,0 2.4673,-0.325 4.3562,-0.661 0.5948,-0.104 1.1015,0.65 0.9913,1.421 -0.5121,2.984 0.5508,5.208 0,6.188 -0.6663,1.161 -5.3255,0.088 -5.3255,0.088 z"
         fill="#a62126"
         id="path115" /><path
         d="m 51.1542,59.1466 c 0,0 9.2192,7.7511 15.525,6.0556 3.811,-1.0295 -0.2148,7.1566 -14.9908,5.1032 -15.3762,-2.147 -7.4073,-17.82 -7.4073,-17.82 z"
         fill="#eb2126"
         id="path116" /><path
         d="m 53.1735,43.0881 c 1.0574,2.4994 9.0925,6.2759 14.6823,5.9566 0.3695,-0.0262 0.737,0.0724 1.0436,0.2801 0.3066,0.2076 0.5345,0.5122 0.6472,0.8649 1.3382,4.327 1.3823,9.3091 0.2588,11.313 C 68.704,63.4184 44.1746,58.9043 44.07,48.5657 43.9654,38.2272 48.1068,38.0235 48.1068,38.0235 Z"
         fill="#eb2126"
         id="path117" /><path
         d="m 53.3348,25.8079 c 0.8316,2.3837 7.1154,6.1712 11.345,6.5511 0.4974,0.0469 0.9704,0.2374 1.3615,0.5482 0.3912,0.3108 0.6834,0.7286 0.8414,1.2024 1.1014,3.237 1.4264,6.7327 1.9495,9.8596 C 69.1627,45.929 45.9441,41.624 45.856,31.3075 45.7679,20.991 49.1603,20.7653 49.1603,20.7653 Z"
         fill="#eb2126"
         id="path118" /><path
         d="m 67.1364,63.5782 c -7.0218,0 -13.322,-2.9452 -15.6296,-4.1619 -4.2791,-2.2681 -8.9878,-5.8849 -9.4669,-9.243 -0.0507,-0.5647 0.1185,-1.1271 0.4722,-1.5702 0.3538,-0.4431 0.8649,-0.7328 1.4269,-0.8087 0.5621,-0.0759 1.1317,0.0678 1.5904,0.4012 0.4587,0.3334 0.7711,0.8308 0.8722,1.3886 0.1487,0.8643 2.649,3.6719 7.7487,6.2428 2.7867,1.4038 12.4959,5.6758 20.4649,1.6901 0.26,-0.1492 0.5477,-0.2438 0.8455,-0.2781 0.2978,-0.0342 0.5994,-0.0073 0.8865,0.0791 0.287,0.0864 0.5534,0.2304 0.7828,0.4232 0.2294,0.1929 0.4171,0.4305 0.5514,0.6984 0.1344,0.2678 0.2127,0.5603 0.23,0.8594 0.0174,0.2992 -0.0265,0.5987 -0.129,0.8803 -0.1025,0.2816 -0.2614,0.5393 -0.4669,0.7574 -0.2056,0.2181 -0.4535,0.3919 -0.7287,0.5109 -2.9401,1.4393 -6.1769,2.169 -9.4504,2.1305 z M 65.8532,47.0629 c -4.6613,-0.0958 -9.2302,-1.3178 -13.3165,-3.5618 -3.7119,-1.9653 -7.8148,-5.1197 -8.2168,-8.0814 -0.0571,-0.5673 0.1081,-1.1345 0.4609,-1.5824 0.3528,-0.448 0.8656,-0.7417 1.4306,-0.8194 0.5649,-0.0777 1.1381,0.0666 1.5988,0.4026 0.4607,0.336 0.773,0.8376 0.8714,1.3991 0.2038,0.7377 2.6049,3.3581 7.4238,5.5546 2.8252,1.2882 10.0452,3.9582 16.0536,0.9414 0.5165,-0.2233 1.0988,-0.2406 1.6277,-0.0483 0.5288,0.1922 0.9639,0.5795 1.2161,1.0824 0.2523,0.5028 0.3024,1.083 0.1402,1.6217 -0.1622,0.5386 -0.5244,0.9947 -1.0124,1.2748 -2.5801,1.2413 -5.4144,1.8634 -8.2774,1.8167 z"
         fill="#144a8f"
         id="path119" /><path
         d="m 64.6951,22.6921 c 0.1091,0.4506 0.04,0.926 -0.1929,1.327 -0.2329,0.4009 -0.6116,0.6966 -1.0572,0.8254 -1.7108,0.598 -3.5031,0.9303 -5.3145,0.9855 -6.2508,0.1486 -8.8006,-7.4374 -8.8006,-7.4374 0,0 2.4397,-14.56098 7.9249,-14.41234 1.8615,0.04954 6.0305,12.84884 7.4403,18.71734"
         fill="#eb2126"
         id="path120" /><path
         d="m 59.3762,76.4767 c -10.1113,0 -18.642,-8.9348 -18.642,-14.55 0,-0.3743 2.0817,-23.4682 6.5095,-41.3377 0.0219,-0.2005 0.0719,-0.397 0.1487,-0.5835 C 50.1901,8.92375 53.902,0 58.5997,0 c 12.4574,0 19.4186,61.3102 19.4186,61.9267 0,5.6152 -8.5143,14.55 -18.6421,14.55 z m -8.74,-50.8065 c -3.1006,14.3133 -5.5072,31.4671 -5.5072,36.2565 0,2.9453 6.1626,10.1514 14.2417,10.1514 8.0791,0 14.2418,-7.2061 14.2418,-10.1514 0,-1.9598 -2.0267,-16.8125 -5.1548,-31.0156 -0.0661,-0.3138 -0.1377,-0.6221 -0.2038,-0.9249 -4.2957,1.101 -9.5,0.3303 -14.451,-2.2901 -1.1081,-0.5895 -2.1671,-1.2669 -3.1667,-2.0259 z m 1.129,-4.9546 c 0.6333,0.8588 2.8142,2.7526 6.3113,4.1123 2.0487,0.8038 5.7386,1.8608 9.1806,0.8919 C 62.2069,5.02615 58.6327,4.40407 58.5997,4.40407 56.4519,4.39857 53.9901,11.4726 51.7652,20.7101 Z"
         fill="#144a8f"
         id="path121" /><path
         d="m 91.175,110.762 c -0.3319,0.776 -0.8379,1.466 -1.4787,2.015 -0.6408,0.549 -1.3994,0.944 -2.2172,1.154 -0.8178,0.209 -1.6728,0.228 -2.499,0.055 -0.8262,-0.173 -1.6015,-0.534 -2.266,-1.055 -0.6645,-0.52 -1.2003,-1.187 -1.5662,-1.947 -0.3658,-0.761 -0.5519,-1.595 -0.5437,-2.439 0.0081,-0.844 0.2103,-1.675 0.5907,-2.428 0.3805,-0.753 0.9291,-1.409 1.6035,-1.917 -0.2092,0 -0.4075,-0.06 -0.6223,-0.06 -1.877,0 -3.7118,0.556 -5.2723,1.599 -1.5606,1.042 -2.7768,2.524 -3.4949,4.257 -0.718,1.734 -0.9056,3.641 -0.539,5.482 0.3665,1.84 1.2708,3.53 2.5984,4.856 1.3277,1.326 3.0189,2.229 4.86,2.595 1.841,0.365 3.7491,0.176 5.4829,-0.542 1.7338,-0.719 3.2154,-1.936 4.2574,-3.496 1.042,-1.561 1.5976,-3.395 1.5965,-5.271 -0.0128,-0.973 -0.1782,-1.937 -0.4901,-2.858 z"
         fill="#144a8f"
         id="path122" /><path
         d="m 59.4625,159.284 0.1928,-0.473 c 1.933,-0.369 4.7637,0.914 5.5403,2.719 l 2.4727,7.201 c 0.3334,0.974 0.3774,2.024 0.1267,3.022 l -2.8583,11.467 -1.0739,-13.069 z"
         fill="#2494d1"
         id="path123" /><path
         d="m 42.0497,191.214 c -0.5843,0 -1.1446,-0.232 -1.5577,-0.645 -0.4131,-0.413 -0.6452,-0.973 -0.6452,-1.557 v -2.703 c 0,-0.584 0.2321,-1.144 0.6452,-1.557 0.4131,-0.413 0.9734,-0.645 1.5577,-0.645 0.5842,0 1.1445,0.232 1.5577,0.645 0.4131,0.413 0.6452,0.973 0.6452,1.557 v 2.703 c 0,0.584 -0.2321,1.144 -0.6452,1.557 -0.4132,0.413 -0.9735,0.645 -1.5577,0.645 z m 7.9304,-8.704 H 33.4584 c -0.5843,0 -1.1446,-0.232 -1.5577,-0.645 -0.4131,-0.413 -0.6452,-0.973 -0.6452,-1.557 0,-0.584 0.2321,-1.144 0.6452,-1.557 0.4131,-0.413 0.9734,-0.645 1.5577,-0.645 h 16.5217 c 0.5843,0 1.1446,0.232 1.5577,0.645 0.4131,0.413 0.6452,0.973 0.6452,1.557 0,0.584 -0.2321,1.144 -0.6452,1.557 -0.4131,0.413 -0.9734,0.645 -1.5577,0.645 z"
         fill="#144a8f"
         id="path124" /><path
         d="M 78.3166,185.406 H 62.6539 c -0.5842,0 -1.1445,-0.232 -1.5577,-0.645 -0.4131,-0.413 -0.6452,-0.973 -0.6452,-1.557 0,-0.584 0.2321,-1.144 0.6452,-1.557 0.4132,-0.413 0.9735,-0.645 1.5577,-0.645 h 15.6627 c 0.5842,0 1.1446,0.232 1.5577,0.645 0.4131,0.413 0.6452,0.973 0.6452,1.557 0,0.584 -0.2321,1.144 -0.6452,1.557 -0.4131,0.413 -0.9735,0.645 -1.5577,0.645 z"
         fill="#144a8f"
         id="path125" /><path
         d="m 60.8412,162.081 c 2.0211,2.02 5.5403,7.602 4.0863,9.05 -1.4539,1.448 -6.0579,0.143 -8.0626,-1.877 -2.0046,-2.021 -2.671,-4.746 -1.2171,-6.193 2.9794,1.227 3.1722,-3.001 5.1934,-0.98 z"
         fill="#2494d1"
         id="path126" /><path
         d="M 49.7818,191.533 H 32.9737 c -0.3013,0 -0.5994,-0.061 -0.876,-0.18 -0.2766,-0.12 -0.5258,-0.294 -0.7321,-0.514 -0.2062,-0.22 -0.3648,-0.48 -0.4662,-0.764 -0.1014,-0.284 -0.1433,-0.586 -0.1231,-0.887 l 1.6962,-25.549 c 0.0156,-0.215 0.062,-0.426 0.1377,-0.628 l 6.6803,-17.798 c 0.2246,-0.519 0.6402,-0.931 1.1608,-1.152 0.5206,-0.221 1.1062,-0.234 1.6357,-0.035 0.5294,0.199 0.9621,0.594 1.2084,1.103 0.2462,0.509 0.2873,1.093 0.1145,1.631 l -6.5646,17.479 -1.52,22.901 h 12.3032 l 0.3139,-14.203 c 0.008,-0.291 0.0735,-0.577 0.1928,-0.843 l 3.855,-8.604 c 0.1081,-0.278 0.2715,-0.531 0.4802,-0.744 0.2088,-0.212 0.4586,-0.381 0.7343,-0.494 0.2758,-0.114 0.5717,-0.17 0.8699,-0.166 0.2981,0.004 0.5923,0.069 0.8647,0.19 0.2725,0.122 0.5174,0.297 0.7201,0.515 0.2026,0.219 0.3588,0.477 0.4589,0.757 0.1002,0.281 0.1423,0.579 0.1237,0.877 -0.0185,0.297 -0.0973,0.588 -0.2315,0.854 l -3.6513,8.197 -0.3524,15.91 c -0.0145,0.578 -0.256,1.128 -0.6723,1.529 -0.4163,0.402 -0.974,0.624 -1.5527,0.618 z"
         fill="#144a8f"
         id="path127" /><path
         d="M 62.5021,178.8 H 51.1406 v 6.804 h 11.3615 z"
         fill="#eb2126"
         id="path128" /><path
         d="M 62.5096,187.806 H 51.1481 c -0.5842,0 -1.1445,-0.232 -1.5577,-0.645 -0.4131,-0.413 -0.6452,-0.973 -0.6452,-1.557 V 178.8 c 0,-0.584 0.2321,-1.144 0.6452,-1.557 0.4132,-0.413 0.9735,-0.645 1.5577,-0.645 h 11.3615 c 0.5843,0 1.1446,0.232 1.5577,0.645 0.4131,0.413 0.6452,0.973 0.6452,1.557 v 6.81 c -0.0014,0.583 -0.2342,1.142 -0.6471,1.553 -0.413,0.412 -0.9725,0.643 -1.5558,0.643 z m -9.1641,-4.404 h 6.9612 v -2.411 h -6.9612 z"
         fill="#144a8f"
         id="path129" /><path
         d="M 78.6947,193.642 H 61.8866 c -0.3068,0.001 -0.6104,-0.062 -0.8915,-0.185 -0.281,-0.123 -0.5333,-0.303 -0.7407,-0.529 -0.2074,-0.226 -0.3653,-0.492 -0.4636,-0.783 -0.0982,-0.29 -0.1347,-0.598 -0.1071,-0.904 l 1.922,-20.743 -3.8551,-8.747 c -0.207,-0.531 -0.2004,-1.121 0.0184,-1.646 0.2187,-0.526 0.6326,-0.946 1.1549,-1.174 0.5222,-0.227 1.1122,-0.243 1.6461,-0.045 0.5339,0.198 0.9702,0.596 1.2175,1.109 l 4.0478,9.265 c 0.1536,0.345 0.2125,0.725 0.1707,1.101 l -1.7458,18.91 h 12.5015 l 3.6293,-23.672 c 0.0319,-0.296 0.1235,-0.582 0.2691,-0.841 0.1456,-0.26 0.3422,-0.487 0.5781,-0.668 0.2358,-0.182 0.5059,-0.313 0.7941,-0.387 0.2881,-0.074 0.5883,-0.089 0.8823,-0.044 0.2941,0.045 0.576,0.149 0.8288,0.306 0.2527,0.157 0.471,0.363 0.6418,0.607 0.1707,0.243 0.2903,0.519 0.3516,0.81 0.0613,0.291 0.0629,0.591 0.0049,0.883 l -2.5719,17.165 c 0.1064,-0.006 0.213,-0.006 0.3194,0 h 2.8032 c 0.1395,-0.449 0.4189,-0.841 0.7974,-1.12 0.3785,-0.279 0.8363,-0.429 1.3064,-0.429 0.4701,0 0.9279,0.15 1.3064,0.429 0.3785,0.279 0.6579,0.671 0.7974,1.12 h 2.6985 c -0.4075,-32.222 -9.7203,-40.909 -9.8194,-40.991 -0.4352,-0.385 -0.7008,-0.926 -0.739,-1.505 -0.0381,-0.58 0.1542,-1.151 0.5352,-1.589 0.3778,-0.433 0.9102,-0.702 1.4833,-0.748 0.5732,-0.046 1.1418,0.133 1.5843,0.5 0.4626,0.397 11.3669,10.036 11.3669,46.529 0,0.584 -0.2321,1.144 -0.6452,1.557 -0.4131,0.413 -0.9734,0.645 -1.5577,0.645 H 82.4672 c -0.3314,0 -0.6586,-0.073 -0.9583,-0.214 l -0.6388,4.183 c -0.0849,0.516 -0.3503,0.984 -0.7488,1.322 -0.3985,0.338 -0.9041,0.523 -1.4266,0.523 z m -22.442,-6.904 c -0.5843,0 -1.1446,-0.232 -1.5577,-0.645 -0.4132,-0.413 -0.6452,-0.973 -0.6452,-1.557 v -0.479 c 0,-0.584 0.232,-1.144 0.6452,-1.557 0.4131,-0.413 0.9734,-0.645 1.5577,-0.645 0.5842,0 1.1445,0.232 1.5576,0.645 0.4132,0.413 0.6453,0.973 0.6453,1.557 v 0.49 c -0.0029,0.582 -0.2363,1.14 -0.6491,1.55 -0.4128,0.411 -0.9715,0.641 -1.5538,0.641 z"
         fill="#144a8f"
         id="path130" /><g
         clip-path="url(#clip0_1_67)"
         id="g151"><path
           d="m 127.747,172.175 c 0,1.942 -0.752,3.744 -1.481,5.452 -0.329,1.451 -0.587,3.113 -0.587,4.938 0,8.144 1.739,9.01 2.608,9.01 0.306,0 0.517,-0.07 0.799,-0.187 0.024,0 0.071,0.07 0.071,0.094 0,0.234 -0.353,0.702 -0.893,0.702 -2.679,0 -4.982,-2.341 -5.264,-7.934 -2.021,3.604 -4.089,6.576 -4.864,6.576 -1.128,0 -4.136,-2.317 -4.136,-4.938 0,-3.206 1.762,-13.596 2.397,-14.228 0.258,-0.258 0.517,-0.351 0.822,-0.351 1.058,0 2.28,1.31 2.28,2.012 0,0.141 -0.024,0.211 -0.094,0.281 -0.964,0.936 -2.797,8.823 -2.797,12.684 0,1.264 0.212,2.083 0.705,2.083 1.316,0 3.76,-4.212 5.781,-8.425 0.305,-4.446 1.245,-9.876 2.185,-9.876 0.823,0 2.256,0.515 2.468,2.107 z"
           fill="#ffffff"
           id="path131" /><path
           d="m 135.37,184.11 c 0,-2.317 0.705,-4.845 0.705,-5.64 0,-0.164 -0.023,-0.258 -0.094,-0.258 -0.47,0 -2.232,3.277 -3.008,6.834 -0.023,1.872 -0.164,3.323 -0.164,3.323 0.07,0.07 0.117,0.281 0.117,0.491 0,0.328 -0.117,0.702 -0.611,0.702 -0.987,0 -2.678,-1.029 -2.678,-2.293 0,-1.264 0.704,-2.013 0.704,-7.77 0,-1.38 -1.01,-2.153 -1.01,-2.48 0,-0.328 0.353,-0.655 0.658,-0.655 0.258,0 0.775,0.023 1.363,0.608 0.963,0.959 1.363,3.042 1.551,5.172 1.081,-2.574 2.514,-5.195 3.36,-5.195 2.303,0 2.984,1.193 2.984,1.731 0,0.773 -0.54,4.189 -0.54,6.857 0,1.826 0.258,3.3 1.128,3.3 1.339,0 1.997,-5.172 2.068,-5.921 0.023,-0.234 0.117,-0.327 0.258,-0.327 0.282,0 0.705,0.514 0.705,1.006 v 0.07 c -0.211,1.966 -0.658,6.951 -3.548,6.951 -2.373,0 -3.924,-2.622 -3.924,-6.483 z"
           fill="#ffffff"
           id="path132" /><path
           d="m 147.261,189.586 c -0.423,0 -1.41,-0.515 -2.139,-1.24 -0.587,-0.585 -0.822,-2.739 -0.822,-4.915 0,-2.527 0.305,-5.125 0.705,-5.476 0.188,-0.164 0.446,-0.234 0.705,-0.234 0.493,0 1.081,0.234 1.457,0.585 0.235,0.234 0.352,0.538 0.352,1.053 0,0.351 -0.188,0.468 -0.188,0.468 0,0 -0.446,3.604 -0.446,5.944 0,1.124 0.094,1.99 0.423,1.99 1.48,0 1.856,-2.645 1.997,-3.628 0,-0.07 0.094,-0.117 0.235,-0.117 0.282,0 0.752,0.211 0.752,0.515 0,0.328 -0.047,1.217 -0.329,2.153 -0.47,1.568 -1.551,2.902 -2.655,2.902 z m -1.293,-18.137 c 0.306,-0.304 1.081,-0.585 1.481,-0.585 0.893,0 1.433,0.702 1.433,1.521 0,0.164 -0.07,0.281 -0.164,0.351 -0.4,0.398 -0.517,2.106 -1.645,2.106 -0.494,0 -1.528,-0.702 -1.528,-1.942 0,-0.842 0.141,-1.17 0.447,-1.474 z"
           fill="#ffffff"
           id="path133" /><path
           d="m 151.537,183.688 c 0,-4.774 2.303,-6.669 4.723,-6.669 1.481,0 2.515,0.749 2.515,1.895 0,1.615 -1.011,3.651 -1.786,3.651 -0.188,0 -0.259,-0.117 -0.259,-0.257 0,-0.047 0,-0.141 0.047,-0.164 0.259,-0.281 0.729,-1.334 0.729,-2.902 0,-0.725 -0.306,-1.311 -0.705,-1.311 -0.823,0 -2.796,1.498 -2.796,6.109 0,2.48 1.292,4.189 2.937,4.189 2.397,0 2.984,-3.838 3.078,-4.704 0.024,-0.234 0.094,-0.328 0.235,-0.328 0.282,0 0.729,0.515 0.729,1.03 v 0.047 c -0.188,1.895 -1.058,5.92 -4.277,5.92 -3.219,0 -5.193,-2.855 -5.193,-6.506 z"
           fill="#ffffff"
           id="path134" /><path
           d="m 175.446,187.503 c 0,1.264 0.493,1.428 0.799,1.428 1.057,0 1.95,-4.143 2.021,-4.938 0.023,-0.234 0.117,-0.328 0.258,-0.328 0.282,0 0.705,0.445 0.705,0.936 v 0.117 c -0.211,1.896 -0.94,5.71 -3.36,5.71 -2.608,0 -3.172,-2.223 -3.172,-4.235 0,-2.013 0.846,-5.406 0.846,-6.085 0,-0.468 -0.423,-0.796 -0.94,-1.077 -0.517,3.417 -2.256,5.219 -3.713,5.453 -0.517,3.113 -1.833,5.593 -3.501,5.593 -1.481,0 -3.713,-1.872 -3.713,-5.382 0,-3.511 1.292,-7.606 4.37,-7.606 1.598,0 2.609,0.843 2.609,1.779 0,0.608 -0.094,0.936 -0.259,1.1 0.541,0.257 0.729,0.959 0.729,1.638 0,0.585 -0.024,1.17 -0.071,1.731 1.058,-0.21 2.421,-1.848 2.632,-4.82 -0.705,-0.351 -1.339,-0.773 -1.339,-1.358 0,-0.585 0.893,-1.006 1.598,-1.006 0.47,0 0.822,0.187 0.822,0.632 0,0.327 0,0.655 -0.023,0.936 1.362,0.515 3.642,1.474 3.642,3.089 0,0.866 -0.94,5.312 -0.94,6.693 z m -7.684,-7.629 c -0.024,-0.492 -0.165,-1.357 -0.799,-1.357 -1.48,0 -2.42,3.627 -2.42,6.365 0,1.638 0.329,2.972 1.128,2.972 0.728,0 1.503,-1.872 1.879,-3.627 -0.564,-0.421 -0.987,-1.194 -0.987,-2.364 0,-0.959 0.541,-1.849 1.199,-1.966 z m 0.047,1.451 c 0,0 -0.024,0.304 -0.024,0.562 0,0.117 0,0.21 0.024,0.304 z"
           fill="#ffffff"
           id="path135" /><path
           d="m 185.997,184.11 c 0,-2.317 0.705,-4.845 0.705,-5.64 0,-0.164 -0.023,-0.258 -0.094,-0.258 -0.47,0 -2.232,3.277 -3.008,6.834 -0.023,1.872 -0.164,3.323 -0.164,3.323 0.07,0.07 0.117,0.281 0.117,0.491 0,0.328 -0.117,0.702 -0.611,0.702 -0.987,0 -2.679,-1.029 -2.679,-2.293 0,-1.264 0.705,-2.013 0.705,-7.77 0,-1.38 -1.01,-2.153 -1.01,-2.48 0,-0.328 0.352,-0.655 0.658,-0.655 0.258,0 0.775,0.023 1.363,0.608 0.963,0.959 1.363,3.042 1.551,5.172 1.081,-2.574 2.514,-5.195 3.36,-5.195 2.303,0 2.984,1.193 2.984,1.731 0,0.773 -0.54,4.189 -0.54,6.857 0,1.826 0.258,3.3 1.128,3.3 1.339,0 1.997,-5.172 2.068,-5.921 0.023,-0.234 0.141,-0.327 0.258,-0.327 0.282,0 0.705,0.514 0.705,1.006 v 0.07 c -0.211,1.966 -0.658,6.951 -3.548,6.951 -2.373,0 -3.924,-2.622 -3.924,-6.483 z"
           fill="#ffffff"
           id="path136" /><path
           d="m 214.879,186.965 c 0,0.702 0.094,1.193 0.234,1.544 h 0.329 c 0.94,0 5.335,-2.784 5.335,-8.822 0,-5.71 -4.16,-8.706 -6.909,-8.706 -3.196,0 -6.016,2.738 -6.016,7.606 0,3.112 1.41,4.516 2.115,4.516 0.705,0 0.611,-0.304 0.823,-0.304 0.54,0 0.047,0.866 -0.705,0.866 -2.256,0 -5.969,-1.1 -5.969,-5.85 0,-3.932 3.008,-8.168 8.319,-8.168 6.227,0 11.138,4.798 11.138,10.742 0,5.944 -3.783,10.999 -6.486,10.999 -0.963,0 -1.997,-0.515 -2.725,-1.194 -0.611,-0.023 -1.34,-0.234 -1.763,-0.655 -0.681,-0.702 -0.752,-2.481 -0.752,-3.557 0,-3.581 0.541,-9.548 2.139,-9.548 1.809,0 2.514,0.819 2.514,1.1 0,0.725 -1.645,1.38 -1.645,9.431 z"
           fill="#ffffff"
           id="path137" /><path
           d="m 233.675,183.337 c 0.023,-0.234 0.117,-0.327 0.258,-0.327 0.282,0 0.705,0.491 0.705,1.029 0,2.411 -1.786,5.711 -4.371,5.711 -3.336,0 -4.793,-2.996 -4.793,-6.132 0,-4.587 1.645,-6.459 3.853,-6.459 0,-0.608 0.47,-0.725 0.729,-0.725 1.457,0 1.974,1.006 1.974,3.019 0,3.159 -2.162,5.593 -3.784,5.593 h -0.235 c 0.353,1.24 1.175,2.457 2.75,2.457 1.833,0 2.726,-2.083 2.914,-4.142 z m -3.901,-5.172 c -1.011,0.211 -1.974,2.083 -1.974,5.266 0,0.187 0.023,0.398 0.023,0.562 0.611,-0.071 2.209,-1.592 2.209,-4.377 0,-0.725 -0.141,-1.17 -0.258,-1.474 z"
           fill="#ffffff"
           id="path138" /><path
           d="m 237.153,188.814 c -0.752,-0.749 -0.964,-3.792 -0.964,-6.67 0,-4.423 0.752,-10.601 1.363,-11.21 0.235,-0.234 0.494,-0.327 0.776,-0.327 0.869,0 1.833,0.959 1.833,1.357 0,0.538 -1.622,4.095 -1.622,12.59 0,3.16 0.752,3.604 1.081,3.604 0.611,0 1.551,-1.965 1.833,-4.048 0,-0.07 0.094,-0.117 0.235,-0.117 0.282,0 0.752,0.21 0.752,0.515 0,0.936 -0.564,5.616 -2.726,5.616 -0.869,0 -1.833,-0.538 -2.585,-1.31 z"
           fill="#ffffff"
           id="path139" /><path
           d="m 246.999,189.586 c -0.423,0 -1.41,-0.515 -2.138,-1.24 -0.588,-0.585 -0.823,-2.739 -0.823,-4.915 0,-2.527 0.306,-5.125 0.705,-5.476 0.188,-0.164 0.447,-0.234 0.705,-0.234 0.493,0 1.081,0.234 1.457,0.585 0.235,0.234 0.352,0.538 0.352,1.053 0,0.351 -0.188,0.468 -0.188,0.468 0,0 -0.446,3.604 -0.446,5.944 0,1.124 0.094,1.99 0.423,1.99 1.48,0 1.856,-2.645 1.997,-3.628 0,-0.07 0.094,-0.117 0.235,-0.117 0.282,0 0.752,0.211 0.752,0.515 0,0.328 -0.047,1.217 -0.329,2.153 -0.47,1.568 -1.551,2.902 -2.655,2.902 z m -1.293,-18.137 c 0.306,-0.304 1.081,-0.585 1.481,-0.585 0.893,0 1.433,0.702 1.433,1.521 0,0.164 -0.07,0.281 -0.164,0.351 -0.4,0.398 -0.517,2.106 -1.645,2.106 -0.494,0 -1.527,-0.702 -1.527,-1.942 0,-0.842 0.14,-1.17 0.446,-1.474 z"
           fill="#ffffff"
           id="path140" /><path
           d="m 257.08,181.418 c -0.705,-0.865 -1.175,-2.036 -1.175,-2.784 0,-1.358 0.446,-2.434 1.48,-2.434 1.034,0 1.434,1.287 1.434,2.317 0,0.561 -0.188,1.638 -0.447,2.925 0.329,0.281 0.682,0.444 0.987,0.444 0.258,0 0.564,-0.14 0.752,-0.14 0.07,0 0.141,0.023 0.141,0.14 0,0.352 -0.423,0.796 -1.081,0.796 -0.329,0 -0.634,-0.093 -0.963,-0.281 -0.799,3.464 -2.233,7.77 -3.502,7.77 -0.446,0 -1.269,-0.258 -1.621,-0.609 -1.504,-1.474 -1.809,-7.254 -1.809,-10.32 0,-1.264 -0.423,-1.217 -0.423,-1.474 0,-0.211 0.094,-0.281 0.423,-0.281 0.493,0 2.772,0.538 2.772,1.872 v 1.03 c 0,5.335 0.024,7.676 0.799,7.676 0.776,0 1.763,-3.885 2.256,-6.647 z"
           fill="#ffffff"
           id="path141" /><path
           d="m 268.544,183.337 c 0.023,-0.234 0.117,-0.327 0.258,-0.327 0.282,0 0.705,0.491 0.705,1.029 0,2.411 -1.786,5.711 -4.371,5.711 -3.336,0 -4.793,-2.996 -4.793,-6.132 0,-4.587 1.645,-6.459 3.854,-6.459 0,-0.608 0.469,-0.725 0.728,-0.725 1.457,0 1.974,1.006 1.974,3.019 0,3.159 -2.162,5.593 -3.783,5.593 h -0.235 c 0.352,1.24 1.175,2.457 2.749,2.457 1.833,0 2.726,-2.083 2.914,-4.142 z m -3.901,-5.172 c -1.01,0.211 -1.974,2.083 -1.974,5.266 0,0.187 0.024,0.398 0.024,0.562 0.611,-0.071 2.208,-1.592 2.208,-4.377 0,-0.725 -0.141,-1.17 -0.258,-1.474 z"
           fill="#ffffff"
           id="path142" /><path
           d="m 273.784,185.841 c 0,-2.059 0.517,-5.405 0.517,-6.084 0,-0.562 -0.87,-0.96 -1.809,-1.311 -0.094,3.651 -0.447,6.225 -0.447,6.225 0,0 0,0.094 -0.117,0.094 -0.306,-0.047 -0.846,-0.304 -0.846,-0.608 v -0.047 c 0,0 0.329,-2.294 0.399,-6.085 -0.775,-0.304 -1.363,-0.679 -1.363,-1.193 0,-0.515 0.776,-0.866 1.457,-0.866 0.517,0 0.987,0.21 0.987,0.725 v 0.772 c 1.621,0.586 4.582,1.498 4.582,2.715 0,0.866 -0.54,5.617 -0.54,6.997 0,1.288 0.258,1.756 0.587,1.756 1.551,0 2.068,-5.032 2.115,-5.594 0.024,-0.234 0.094,-0.304 0.235,-0.304 0.282,0 0.728,0.515 0.728,1.03 v 0.047 c -0.117,1.872 -0.822,5.967 -3.336,5.967 -2.515,0 -3.102,-2.223 -3.102,-4.259 z"
           fill="#ffffff"
           id="path143" /><path
           d="m 287.155,178.61 c 0,-0.491 0.117,-0.936 0.705,-0.936 0.47,0 1.574,1.17 1.574,2.036 0,0.819 -0.188,2.551 -0.188,4.423 0,0.632 0,1.241 0.047,1.802 1.41,-1.825 2.42,-3.697 2.42,-4.376 0,-0.234 0.165,-0.398 0.306,-0.398 0.258,0 0.587,0.398 0.587,1.474 0,1.077 -1.504,2.739 -3.266,4.517 0.047,0.796 0.094,1.638 0.094,2.645 0,3.393 -1.316,5.85 -4.324,5.85 -1.316,0 -2.538,-1.053 -2.538,-1.895 0,-0.843 0.94,-1.849 4.324,-5.219 0.094,-1.24 0.165,-2.715 0.165,-4.376 v -0.305 c -0.658,2.621 -1.645,5.921 -2.585,5.921 -2.068,0 -3.079,-1.638 -3.079,-3.814 0,-2.902 0.776,-7.396 1.504,-7.396 0.729,0 1.88,0.492 1.88,1.498 0,0.515 -0.963,2.34 -0.963,6.6 0,1.427 0.305,1.778 0.705,1.778 0.822,0 2.585,-8.308 2.585,-9.01 v -0.795 z m -0.353,11.21 c -1.433,1.615 -2.42,3.183 -2.42,3.908 0,0.187 0.164,0.304 0.423,0.304 0.94,0 1.645,-1.38 2.021,-4.212 z"
           fill="#ffffff"
           id="path144" /><path
           d="m 310.544,171.426 c 1.339,-1.334 3.689,-1.755 5.898,-1.755 3.407,0 5.146,1.053 5.146,4.54 0,5.031 -3.337,8.729 -5.357,8.729 -0.964,0 -1.528,-0.468 -1.528,-0.702 0,-0.071 0.071,-0.117 0.212,-0.117 1.715,0 3.454,-4.166 3.454,-7.747 0,-2.199 -0.776,-3.112 -1.88,-3.112 -2.491,0 -6.509,4.657 -6.509,9.852 0,5.196 9.587,2.411 9.587,5.804 0,2.574 -2.866,4.212 -4.159,4.212 -1.903,0 -4.7,-1.333 -4.7,-2.246 0,-0.515 0.353,-0.913 0.705,-0.913 0.353,0 0.259,1.451 2.585,1.451 1.833,0 2.773,-1.17 2.773,-2.387 0,-1.661 -9.611,-0.445 -9.611,-6.178 0,-3.908 1.105,-7.161 3.407,-9.431 z"
           fill="#ffffff"
           id="path145" /><path
           d="m 330.421,183.337 c 0.023,-0.234 0.117,-0.327 0.258,-0.327 0.282,0 0.705,0.491 0.705,1.029 0,2.411 -1.786,5.711 -4.371,5.711 -3.336,0 -4.793,-2.996 -4.793,-6.132 0,-4.587 1.645,-6.459 3.853,-6.459 0,-0.608 0.47,-0.725 0.729,-0.725 1.457,0 1.974,1.006 1.974,3.019 0,3.159 -2.162,5.593 -3.783,5.593 h -0.235 c 0.352,1.24 1.174,2.457 2.749,2.457 1.833,0 2.726,-2.083 2.914,-4.142 z m -3.901,-5.172 c -1.01,0.211 -1.974,2.083 -1.974,5.266 0,0.187 0.024,0.398 0.024,0.562 0.611,-0.071 2.208,-1.592 2.208,-4.377 0,-0.725 -0.141,-1.17 -0.258,-1.474 z"
           fill="#ffffff"
           id="path146" /><path
           d="m 335.637,185.841 c 0,-2.059 0.517,-5.405 0.517,-6.084 0,-0.562 -0.869,-0.96 -1.809,-1.311 -0.094,3.651 -0.446,6.225 -0.446,6.225 0,0 0,0.094 -0.118,0.094 -0.305,-0.047 -0.846,-0.304 -0.846,-0.608 v -0.047 c 0,0 0.329,-2.294 0.4,-6.085 -0.776,-0.304 -1.363,-0.679 -1.363,-1.193 0,-0.515 0.775,-0.866 1.457,-0.866 0.517,0 0.987,0.21 0.987,0.725 v 0.772 c 1.621,0.586 4.582,1.498 4.582,2.715 0,0.866 -0.541,5.617 -0.541,6.997 0,1.288 0.259,1.756 0.588,1.756 1.551,0 2.068,-5.032 2.115,-5.594 0.023,-0.234 0.094,-0.304 0.235,-0.304 0.282,0 0.728,0.515 0.728,1.03 v 0.047 c -0.117,1.872 -0.822,5.967 -3.337,5.967 -2.514,0 -3.102,-2.223 -3.102,-4.259 z"
           fill="#ffffff"
           id="path147" /><path
           d="m 349.079,181.418 c -0.705,-0.865 -1.175,-2.036 -1.175,-2.784 0,-1.358 0.446,-2.434 1.48,-2.434 1.034,0 1.434,1.287 1.434,2.317 0,0.561 -0.188,1.638 -0.447,2.925 0.329,0.281 0.682,0.444 0.987,0.444 0.258,0 0.564,-0.14 0.752,-0.14 0.07,0 0.141,0.023 0.141,0.14 0,0.352 -0.423,0.796 -1.081,0.796 -0.329,0 -0.634,-0.093 -0.963,-0.281 -0.799,3.464 -2.233,7.77 -3.502,7.77 -0.446,0 -1.269,-0.258 -1.621,-0.609 -1.504,-1.474 -1.809,-7.254 -1.809,-10.32 0,-1.264 -0.423,-1.217 -0.423,-1.474 0,-0.211 0.094,-0.281 0.423,-0.281 0.493,0 2.772,0.538 2.772,1.872 v 1.03 c 0,5.335 0.024,7.676 0.799,7.676 0.776,0 1.763,-3.885 2.256,-6.647 z"
           fill="#ffffff"
           id="path148" /><path
           d="m 355.679,189.586 c -0.423,0 -1.41,-0.515 -2.138,-1.24 -0.588,-0.585 -0.823,-2.739 -0.823,-4.915 0,-2.527 0.306,-5.125 0.705,-5.476 0.188,-0.164 0.447,-0.234 0.705,-0.234 0.494,0 1.081,0.234 1.457,0.585 0.235,0.234 0.353,0.538 0.353,1.053 0,0.351 -0.188,0.468 -0.188,0.468 0,0 -0.447,3.604 -0.447,5.944 0,1.124 0.094,1.99 0.423,1.99 1.48,0 1.856,-2.645 1.997,-3.628 0,-0.07 0.094,-0.117 0.235,-0.117 0.282,0 0.752,0.211 0.752,0.515 0,0.328 -0.047,1.217 -0.329,2.153 -0.47,1.568 -1.551,2.902 -2.655,2.902 z m -1.292,-18.137 c 0.305,-0.304 1.081,-0.585 1.48,-0.585 0.893,0 1.433,0.702 1.433,1.521 0,0.164 -0.07,0.281 -0.164,0.351 -0.4,0.398 -0.517,2.106 -1.645,2.106 -0.493,0 -1.527,-0.702 -1.527,-1.942 0,-0.842 0.141,-1.17 0.446,-1.474 z"
           fill="#ffffff"
           id="path149" /><path
           d="m 359.956,183.688 c 0,-4.774 2.302,-6.669 4.723,-6.669 1.48,0 2.514,0.749 2.514,1.895 0,1.615 -1.01,3.651 -1.786,3.651 -0.188,0 -0.258,-0.117 -0.258,-0.257 0,-0.047 0,-0.141 0.047,-0.164 0.258,-0.281 0.728,-1.334 0.728,-2.902 0,-0.725 -0.305,-1.311 -0.705,-1.311 -0.822,0 -2.796,1.498 -2.796,6.109 0,2.48 1.292,4.189 2.937,4.189 2.397,0 2.985,-3.838 3.079,-4.704 0.023,-0.234 0.094,-0.328 0.235,-0.328 0.282,0 0.728,0.515 0.728,1.03 v 0.047 c -0.188,1.895 -1.057,5.92 -4.277,5.92 -3.219,0 -5.193,-2.855 -5.193,-6.506 z"
           fill="#ffffff"
           id="path150" /><path
           d="m 379.036,183.337 c 0.024,-0.234 0.118,-0.327 0.259,-0.327 0.282,0 0.705,0.491 0.705,1.029 0,2.411 -1.786,5.711 -4.371,5.711 -3.337,0 -4.794,-2.996 -4.794,-6.132 0,-4.587 1.645,-6.459 3.854,-6.459 0,-0.608 0.47,-0.725 0.729,-0.725 1.457,0 1.974,1.006 1.974,3.019 0,3.159 -2.162,5.593 -3.784,5.593 h -0.235 c 0.353,1.24 1.175,2.457 2.75,2.457 1.832,0 2.725,-2.083 2.913,-4.142 z m -3.9,-5.172 c -1.011,0.211 -1.974,2.083 -1.974,5.266 0,0.187 0.023,0.398 0.023,0.562 0.611,-0.071 2.209,-1.592 2.209,-4.377 0,-0.725 -0.141,-1.17 -0.258,-1.474 z"
           fill="#ffffff"
           id="path151" /></g></g><text
       xml:space="preserve"
       style="font-style:normal;font-variant:normal;font-weight:500;font-stretch:normal;font-size:45.1556px;font-family:Poppins;-inkscape-font-specification:'Poppins, Medium';font-variant-ligatures:normal;font-variant-caps:normal;font-variant-numeric:normal;font-variant-east-asian:normal;fill:#000000;fill-opacity:0;fill-rule:evenodd;stroke:#000000;stroke-width:0.873125;paint-order:markers fill stroke"
       x="28.557606"
       y="58.308521"
       id="text1"><tspan
         sodipodi:role="line"
         id="tspan1"
         style="font-style:normal;font-variant:normal;font-weight:500;font-stretch:normal;font-size:45.1556px;font-family:Poppins;-inkscape-font-specification:'Poppins, Medium';font-variant-ligatures:normal;font-variant-caps:normal;font-variant-numeric:normal;font-variant-east-asian:normal;fill:#ffffff;fill-opacity:1;stroke:none;stroke-width:0.873125"
         x="28.557606"
         y="58.308521">Made for</tspan></text></g></svg>
