<svg width="1835" height="320" viewBox="0 0 1835 320" fill="none" xmlns="http://www.w3.org/2000/svg">
<rect width="1835" height="320" rx="24" fill="#0A0E2E"/>
<path d="M1026.8 90.3H1056.8V200.3C1056.8 215.8 1047.9 223.5 1030.2 223.5H1002.1C984.5 223.5 975.7 215.8 975.7 200.3V90.3H1005.7V196.3C1005.7 199.8 1007.5 201.5 1011.1 201.5H1021.2C1025 201.5 1026.9 199.8 1026.9 196.3V90.3H1026.8Z" fill="white"/>
<path d="M1077.9 90.3H1133.4C1151.1 90.3 1160 98 1160 113.3V200.2C1160 215.7 1151.1 223.4 1133.4 223.4H1077.9V90.3ZM1130 197.7V116C1130 112.5 1128.1 110.8 1124.3 110.8H1107.8V203H1124.3C1128.1 203 1130 201.3 1130 197.8V197.7Z" fill="white"/>
<path d="M1225.4 196.3V172.2C1225.4 170.4 1225 169.1 1224.1 168.4C1223.3 167.6 1221.8 167.1 1219.7 167.1H1201.3C1184.8 167.1 1176.6 159.3 1176.6 143.6V113.2C1176.6 97.8 1185.4 90.2 1203 90.2H1228.6C1246.2 90.2 1255 97.9 1255 113.2V130.6H1225V117.4C1225 113.9 1223.1 112.2 1219.3 112.2H1212.2C1208.4 112.2 1206.5 113.9 1206.5 117.4V140.9C1206.5 142.7 1206.9 144 1207.8 144.9C1208.6 145.6 1210.1 145.9 1212.2 145.9H1230.2C1239.1 145.9 1245.6 147.9 1249.5 151.8C1253.4 155.6 1255.4 161.2 1255.4 168.8V200.2C1255.4 215.7 1246.6 223.4 1229 223.4H1203.7C1186 223.4 1177.1 215.7 1177.1 200.2V183H1207.1V196.2C1207.1 199.7 1209 201.4 1212.8 201.4H1219.9C1223.7 201.4 1225.6 199.7 1225.6 196.2L1225.4 196.3Z" fill="white"/>
<path d="M900.3 206.1L892.8 223.7L891.5 241H908.8L912.2 239.1L922 239.4V244H940.3L941.6 239.4H955.3C955.3 239.4 951.5 205.7 944.9 201.2C920 218.1 900.3 206.1 900.3 206.1Z" fill="white"/>
<path d="M945.3 225.8L946.3 238.7H941.5L945.3 225.8Z" fill="#2494D1"/>
<path d="M897.8 210.9C897.8 210.9 912.8 219.9 930.9 210.9C945.3 203.7 900.4 206.1 900.4 206.1L897.8 210.9Z" fill="#2494D1"/>
<path d="M955.4 246.5H940.7L941.6 239.4H955.3C955.3 239.4 955.4 244.2 955.4 246.5Z" fill="#EB2126"/>
<path d="M955.4 248.8H940.7C940.4 248.8 940 248.8 939.7 248.6C939.4 248.5 939.1 248.3 938.9 248C938.7 247.8 938.5 247.5 938.4 247.2C938.4 246.9 938.3 246.6 938.4 246.2L939.3 239.1C939.3 238.5 939.6 238 940.1 237.7C940.5 237.3 941.1 237.1 941.6 237.1H955.3C955.9 237.1 956.5 237.3 956.9 237.7C957.3 238.1 957.6 238.7 957.6 239.3C957.6 239.3 957.7 244.2 957.7 246.5C957.7 247.1 957.4 247.7 957 248.1C956.6 248.5 956 248.8 955.4 248.8ZM943.3 244.2H953.1C953.1 243.3 953.1 242.5 953.1 241.7H943.7L943.4 244.2H943.3Z" fill="#144A8F"/>
<path d="M950.4 202.9C950.4 202.9 960.6 189.4 976.5 193.2C992.5 196.9 996.6 187.5 996.6 187.5C996.6 187.5 988.7 216.5 968.3 208.5C968.3 208.5 971.4 211.1 974.3 213.6C968.2 218 962.7 220.6 951.7 214" fill="#2494D1"/>
<path d="M950 203.8C950 203.8 959.3 190.1 972.4 193.1C985.5 196.2 993.4 192.9 993.4 192.9C993.4 192.9 984.3 211.5 969.8 202.9C967.3 201.1 963.9 201.5 962.2 203.8C960.5 206.1 961.3 209.4 963.8 211.3C960 212.9 954.9 210.9 952.1 209.1" fill="white"/>
<path d="M904.6 208C904.6 208 906.2 203.9 900.4 206.1C894.6 208.3 890.8 241 890.8 241H893.4C894.8 241 897.7 240.7 897.6 239.3C897.6 239.3 897.8 229.6 898.5 224.2C899.8 219.2 904.6 208 904.6 208Z" fill="#2494D1"/>
<path d="M974.5 130.6C974.5 161.9 949.5 210.9 918.8 210.9C888.1 210.9 863.1 161.9 863.1 130.6C863.1 99.3 888.1 86.8 918.8 86.8C949.5 86.8 974.5 99.3 974.5 130.6Z" fill="white"/>
<path d="M918.7 213.2C886.7 213.2 860.7 163.2 860.7 130.6C860.7 98 881.9 84.5 918.7 84.5C955.5 84.5 976.7 101.3 976.7 130.6C976.7 163.2 950.7 213.2 918.6 213.2H918.7ZM918.7 89C902.6 89 865.3 93 865.3 130.5C865.3 168 889.8 208.5 918.7 208.5C947.6 208.5 972.1 160.6 972.1 130.5C972.1 100.4 934.7 89 918.7 89Z" fill="#144A8F"/>
<path d="M871 125.4C871 125.4 865.5 126.3 862.8 125.2C859.2 123.7 865.1 119.2 865.1 119.2L871 125.5V125.4Z" fill="#2494D1"/>
<path d="M932.1 119.5C932.1 126.5 927.5 128.8 918.8 132.1C909 132.1 889.2 126.5 889.2 119.5C889.2 112.5 910.8 106.9 920.6 106.9C930.4 106.9 932 112.6 932 119.5" fill="#2494D1"/>
<path d="M927.2 182.3C927.2 182.3 924.2 169.6 933.7 165.4C931.9 170.3 928.2 180.9 930.5 184.6C932.8 188.3 927.2 182.3 927.2 182.3Z" fill="#2494D1"/>
<path d="M918.7 213.2C886.7 213.2 860.7 163.2 860.7 130.6C860.7 98 881.9 84.5 918.7 84.5C955.5 84.5 976.7 101.3 976.7 130.6C976.7 163.2 950.7 213.2 918.6 213.2H918.7ZM918.7 89C902.6 89 865.3 93 865.3 130.5C865.3 168 889.8 208.5 918.7 208.5C947.6 208.5 972.1 160.6 972.1 130.5C972.1 100.4 934.7 89 918.7 89Z" fill="#144A8F"/>
<path d="M900.9 141.5C900.9 141.5 904 154.8 924.8 156.7C926.2 156.8 927 155.1 926.3 153.9C925.3 152.3 922.2 149.8 922.1 147.8C926.7 148.3 934.2 150.6 938.2 148.4C938.5 148.3 938.7 148 938.8 147.8C939 147.5 939 147.2 939 146.9C939 146.6 938.9 146.3 938.7 146C938.5 145.7 938.3 145.5 938 145.4C935.4 144.2 935.6 139.9 934.4 137.7" fill="#2494D1"/>
<path d="M901.5 137.3C901.5 137.3 903.3 151.9 929.2 150C927.7 148 926 145.9 926 143C931.1 143.6 937.6 143.7 940.9 139.9C937.8 139.4 934.4 137 933 134.4" fill="white"/>
<path d="M924.7 152.5C901.3 152.5 899.3 138.2 899.2 137.6C899.2 137 899.4 136.4 899.7 136C900.1 135.5 900.6 135.3 901.2 135.2C901.8 135.2 902.4 135.2 902.8 135.6C903.3 135.9 903.6 136.5 903.7 137C903.7 137.5 905.6 147.9 924.6 147.9H924.9C924.1 146.4 923.6 144.7 923.6 143C923.6 142.7 923.6 142.4 923.8 142.1C924 141.8 924.1 141.5 924.4 141.3C924.6 141.1 924.9 140.9 925.2 140.8C925.5 140.8 925.8 140.7 926.2 140.8C930.4 141.3 933.5 141.2 935.9 140.5C933.9 139.3 932.2 137.6 931 135.6C930.8 135.1 930.8 134.5 931 133.9C931.2 133.3 931.6 132.9 932.1 132.6C932.6 132.3 933.2 132.3 933.7 132.4C934.2 132.5 934.7 132.9 935.1 133.3C936.2 135.3 939 137.2 941.4 137.7C941.8 137.7 942.2 137.9 942.5 138.2C942.8 138.5 943 138.8 943.2 139.2C943.3 139.6 943.4 140 943.2 140.4C943.2 140.8 943 141.2 942.7 141.5C939.4 145.4 933.9 145.9 929 145.7C929.6 146.8 930.3 147.8 931.1 148.8C931.4 149.1 931.5 149.5 931.6 149.9C931.6 150.3 931.6 150.7 931.4 151.1C931.2 151.5 931 151.8 930.6 152C930.3 152.2 929.9 152.4 929.4 152.4C927.8 152.4 926.2 152.5 924.8 152.5H924.7Z" fill="#144A8F"/>
<path d="M936 117C936 121.6 928.3 129.9 918.8 129.9C909.3 129.9 901.6 121.5 901.6 117C901.6 112.5 908.5 54.5 918 54.5C927.5 54.5 936 112.5 936 117Z" fill="white"/>
<path d="M918.7 132.2C908.1 132.2 899.2 122.8 899.2 117C899.2 116.3 905 52.1 917.9 52.1C930.8 52.1 938.2 116.3 938.2 117C938.2 122.9 929.3 132.2 918.7 132.2ZM917.9 56.7C912 56.7 903.8 107.9 903.8 116.9C903.8 125.9 910.3 127.5 918.7 127.5C927.1 127.5 933.6 120 933.6 116.9C933.6 113.8 931.5 99.3 928.2 84.4C922.2 57.4 917.9 56.6 917.9 56.6V56.7Z" fill="#144A8F"/>
<path d="M929.1 198.5C929.3 199.7 927.3 198.5 925.3 198.8C923.2 199.2 921.8 201.2 921.6 200C921.4 198.8 922.6 196.2 924.7 195.8C926.8 195.4 928.9 197.3 929.1 198.5Z" fill="#144A8F"/>
<path d="M908.6 198.5C908.4 199.7 910.4 198.5 912.4 198.8C914.5 199.2 915.9 201.2 916.1 200C916.3 198.8 915.1 196.2 913 195.8C910.9 195.4 908.8 197.3 908.6 198.5Z" fill="#144A8F"/>
<path d="M886.7 98.1C886.7 98.1 873.1 91.4 860.5 92.2C856 105.1 861.2 118.1 870.9 123.1" fill="white"/>
<path d="M870.8 125.4C870.4 125.4 870.1 125.4 869.7 125.1C858.5 119.3 853.6 104.8 858.2 91.4C858.3 91 858.6 90.6 859 90.3C859.4 90 859.8 89.9 860.2 89.8C873.3 88.9 887 95.7 887.6 96C888.1 96.3 888.5 96.8 888.7 97.3C888.9 97.9 888.8 98.5 888.6 99C888.3 99.5 887.9 99.9 887.3 100.1C886.7 100.3 886.1 100.3 885.6 100.1C885.5 100.1 873.5 94.2 862.1 94.3C859 105.1 863.1 116.4 871.8 120.9C872.3 121.1 872.6 121.5 872.8 122C873 122.5 873.1 123 872.9 123.5C872.7 124 872.5 124.4 872.1 124.8C871.7 125.2 871.2 125.3 870.7 125.3L870.8 125.4Z" fill="#144A8F"/>
<path d="M864.9 100.9C864.6 102.8 864.9 110.9 872.2 116.5C872.2 116.5 872.3 116.5 872.4 116.6H872.6C872.6 116.6 872.7 116.5 872.7 116.4V116.2C872.2 115 872 113.7 871.8 112.3V112.1C871.8 112.1 871.8 112 872 111.9C872 111.9 872.1 111.9 872.2 111.9H872.4C873.1 112.3 873.9 112.7 875.4 112.3C875.5 112.3 875.6 112.3 875.7 112.1C875.7 112.1 875.9 111.9 875.9 111.8C875.9 111.7 875.9 111.6 875.9 111.5C875.9 111.4 875.9 111.3 875.9 111.2C875.5 110.7 875.3 110.1 875.2 109.5C875.2 109.4 875.2 109.3 875.2 109.2C875.2 109.1 875.2 109 875.4 108.9C875.4 108.9 875.6 108.8 875.7 108.7C875.7 108.7 875.9 108.7 876 108.7C878.7 108.7 880.9 109.1 882.6 107.9" fill="#2494D1"/>
<path d="M881.6 106.1C876.9 103.9 871.9 102.3 866.8 101.4L881.6 106.1Z" fill="white"/>
<path d="M881.6 108.4C881.2 108.4 880.9 108.4 880.6 108.2C876.1 106.1 871.3 104.6 866.4 103.7C865.8 103.6 865.3 103.2 865 102.7C864.7 102.2 864.5 101.6 864.6 101C864.6 100.4 865 99.9 865.5 99.5C866 99.1 866.6 99 867.2 99.1C872.5 100.1 877.8 101.7 882.7 104C883.2 104.2 883.5 104.6 883.8 105.1C884 105.6 884.1 106.1 884 106.6C883.9 107.1 883.6 107.6 883.2 107.9C882.8 108.2 882.3 108.4 881.8 108.4H881.6Z" fill="#144A8F"/>
<path d="M950.8 98.1C950.8 98.1 964.4 91.4 977 92.2C981.5 105.1 976.3 118.1 966.6 123.1" fill="white"/>
<path d="M966.7 125.4C966.2 125.4 965.7 125.2 965.3 124.9C964.9 124.6 964.6 124.1 964.5 123.6C964.4 123.1 964.5 122.6 964.6 122.1C964.8 121.6 965.2 121.2 965.6 121C974.3 116.5 978.4 105.2 975.3 94.4C963.9 94.2 952 100.1 951.8 100.2C951.3 100.4 950.6 100.4 950.1 100.2C949.5 100 949.1 99.6 948.8 99.1C948.5 98.6 948.5 98 948.7 97.4C948.9 96.8 949.3 96.4 949.8 96.1C950.4 95.8 964.1 89.1 977.2 89.9C977.7 89.9 978.1 90.1 978.4 90.4C978.7 90.7 979 91.1 979.2 91.5C983.8 104.9 978.9 119.4 967.7 125.2C967.4 125.4 967 125.5 966.6 125.5L966.7 125.4Z" fill="#144A8F"/>
<path d="M972.6 100.9C972.9 102.8 972.6 110.9 965.3 116.5C965.3 116.5 965.2 116.5 965.1 116.6H964.9C964.9 116.6 964.8 116.5 964.8 116.4V116.2C965.2 115 965.5 113.7 965.7 112.3V112.1C965.7 112.1 965.7 112 965.5 111.9C965.3 111.8 965.4 111.9 965.3 111.9H965.1C964.4 112.3 963.6 112.7 962.1 112.3C962 112.3 961.9 112.3 961.8 112.1C961.8 112.1 961.6 111.9 961.6 111.8C961.6 111.7 961.6 111.6 961.6 111.5C961.6 111.4 961.6 111.3 961.6 111.2C961.9 110.7 962.2 110.1 962.3 109.5C962.3 109.4 962.3 109.3 962.3 109.2C962.3 109.1 962.3 109 962.1 108.9C962.1 108.9 961.9 108.8 961.8 108.7C961.8 108.7 961.6 108.7 961.5 108.7C958.8 108.7 956.6 109.1 954.9 107.9" fill="#2494D1"/>
<path d="M955.8 106.1C960.5 103.9 965.5 102.3 970.6 101.4L955.8 106.1Z" fill="white"/>
<path d="M955.8 108.4C955.3 108.4 954.8 108.2 954.4 107.9C954 107.6 953.7 107.1 953.6 106.6C953.5 106.1 953.6 105.6 953.8 105.1C954 104.6 954.4 104.2 954.9 104C959.8 101.7 965 100 970.4 99.1C971 99.1 971.6 99.1 972.1 99.5C972.6 99.9 972.9 100.4 973 101C973.1 101.6 973 102.2 972.6 102.7C972.3 103.2 971.8 103.5 971.2 103.7C966.3 104.6 961.5 106.1 957 108.2C956.7 108.4 956.3 108.4 956 108.4H955.8Z" fill="#144A8F"/>
<path d="M964.3 178.1C958.4 190.8 946.9 197.9 938.5 194.1C930.1 190.2 928.1 176.8 933.9 164.1C939.8 151.4 951.3 144.3 959.7 148.1C968.1 152 970.1 165.4 964.3 178.1Z" fill="white"/>
<path d="M943.5 197.4C941.5 197.4 939.5 197 937.6 196.1C932.8 193.9 929.6 189.1 928.7 182.7C927.8 176.6 928.9 169.6 932 163.1C938.4 149.3 951.3 141.6 960.8 146C970.3 150.4 972.9 165.2 966.5 179C963.5 185.5 958.9 190.9 953.7 194.2C950.3 196.3 946.8 197.4 943.6 197.4H943.5ZM954.9 149.4C948.3 149.4 940.4 155.7 936 165.1C933.4 170.8 932.3 176.9 933.1 182.1C933.8 187 936.1 190.5 939.4 192C942.7 193.5 946.9 193 951.1 190.4C955.6 187.6 959.5 182.9 962.2 177.2C967.4 165.9 965.9 153.6 958.8 150.3C957.6 149.7 956.3 149.5 954.9 149.5V149.4Z" fill="#144A8F"/>
<path d="M952.6 171.1C952.6 173.1 952 175 950.9 176.6C949.8 178.2 948.3 179.5 946.4 180.3C944.5 181.1 942.6 181.3 940.7 180.9C938.8 180.5 937 179.6 935.6 178.2C934.2 176.8 933.3 175 932.9 173.1C932.5 171.2 932.7 169.2 933.5 167.4C934.3 165.6 935.5 164 937.2 162.9C938.8 161.8 940.8 161.2 942.7 161.2C945.3 161.2 947.9 162.2 949.7 164.1C951.6 166 952.6 168.5 952.6 171.1Z" fill="#144A8F"/>
<path d="M873.1 178.1C879 190.8 890.5 197.9 898.9 194.1C907.3 190.2 909.3 176.8 903.5 164.1C897.6 151.4 886.1 144.3 877.7 148.2C869.3 152.1 867.3 165.5 873.1 178.2" fill="white"/>
<path d="M894 197.4C890.7 197.4 887.3 196.3 883.9 194.2C878.7 191 874.1 185.6 871.1 179C864.7 165.2 867.3 150.4 876.8 146C886.3 141.6 899.3 149.3 905.6 163.1C908.6 169.6 909.8 176.6 908.8 182.7C907.8 189.2 904.6 193.9 899.9 196.1C898.1 196.9 896.1 197.4 894 197.4ZM882.5 149.4C881.2 149.4 879.8 149.7 878.6 150.2C871.5 153.5 869.9 165.8 875.2 177.1C877.8 182.8 881.8 187.5 886.3 190.3C890.5 192.9 894.6 193.5 898 191.9C901.3 190.3 903.6 186.8 904.3 182C905.1 176.8 904.1 170.8 901.4 165C897.1 155.6 889.2 149.3 882.6 149.3L882.5 149.4Z" fill="#144A8F"/>
<path d="M873.1 178.1C879 190.8 890.5 197.9 898.9 194.1C907.3 190.2 909.3 176.8 903.5 164.1C897.6 151.4 886.1 144.3 877.7 148.2C869.3 152.1 867.3 165.5 873.1 178.2" fill="white"/>
<path d="M894 197.4C890.7 197.4 887.3 196.3 883.9 194.2C878.7 191 874.1 185.6 871.1 179C864.7 165.2 867.3 150.4 876.8 146C886.3 141.6 899.3 149.3 905.6 163.1C908.6 169.6 909.8 176.6 908.8 182.7C907.8 189.2 904.6 193.9 899.9 196.1C898.1 196.9 896.1 197.4 894 197.4ZM882.5 149.4C881.2 149.4 879.8 149.7 878.6 150.2C871.5 153.5 869.9 165.8 875.2 177.1C877.8 182.8 881.8 187.5 886.3 190.3C890.5 192.9 894.6 193.5 898 191.9C901.3 190.3 903.6 186.8 904.3 182C905.1 176.8 904.1 170.8 901.4 165C897.1 155.6 889.2 149.3 882.6 149.3L882.5 149.4Z" fill="#144A8F"/>
<path d="M884.9 171.1C884.9 173.1 885.5 175 886.6 176.6C887.7 178.2 889.2 179.5 891.1 180.3C893 181.1 894.9 181.2 896.8 180.9C898.7 180.5 900.5 179.6 901.9 178.2C903.3 176.8 904.2 175 904.6 173.1C905 171.2 904.8 169.2 904 167.4C903.2 165.6 902 164 900.3 162.9C898.7 161.8 896.7 161.2 894.8 161.2C892.9 161.2 889.6 162.2 887.8 164.1C885.9 166 884.9 168.5 884.9 171.1Z" fill="#144A8F"/>
<path d="M904.8 171.1C904.8 173.1 904.2 175 903.1 176.6C902 178.2 900.5 179.5 898.6 180.3C896.8 181.1 894.8 181.2 892.9 180.9C891 180.5 889.2 179.6 887.8 178.2C886.4 176.8 885.5 175 885.1 173.1C884.7 171.2 884.9 169.2 885.7 167.4C886.5 165.6 887.7 164 889.4 162.9C891 161.8 893 161.2 894.9 161.2C897.5 161.2 900.1 162.2 901.9 164.1C903.8 166 904.8 168.5 904.8 171.1Z" fill="#144A8F"/>
<path d="M904.8 165.9C904.8 167 904.5 168.2 903.8 169.1C903.2 170 902.3 170.8 901.2 171.2C900.1 171.6 899 171.7 897.9 171.5C896.8 171.3 895.8 170.7 894.9 169.9C894.1 169.1 893.5 168.1 893.3 166.9C893.1 165.8 893.2 164.6 893.6 163.6C894 162.5 894.8 161.6 895.7 161C896.6 160.4 897.8 160 898.9 160C900 160 901.9 160.6 903 161.7C904.1 162.8 904.7 164.2 904.7 165.8L904.8 165.9Z" fill="white"/>
<path d="M906.7 193.2C905.3 195 904.5 197.2 904.7 199.5C904.8 201.8 905.8 203.9 907.5 205.5C909.9 207.8 915.2 209.2 917.9 209.4C917.9 209.4 898.1 208.1 891.4 198.3C894.3 195.3 901.8 191.3 904 188.4C906.2 185.5 911 180 914.1 182.8" fill="#2494D1"/>
<path d="M911.1 182.2C911.1 182.2 914.9 160.7 898.5 154.5C902 162.5 909.4 179.8 905.9 186.3C902.4 192.8 911.2 182.2 911.2 182.2H911.1Z" fill="#2494D1"/>
<path d="M918.7 213.2C907.7 213.2 896.5 207.3 886.6 196.1C886.4 195.9 886.3 195.7 886.2 195.4C880.3 192.6 874.7 186.8 871.1 179C864.7 165.2 867.3 150.4 876.8 146C881.6 143.8 887.3 144.5 892.8 147.9C898.1 151.1 902.6 156.5 905.6 163.1C908.6 169.5 909.6 176.2 908.9 181.9C911.6 179.4 915.3 178 919 178C922.7 178 926.3 179.6 929 182.2L937.2 190.4C937.6 190.8 937.8 191.4 937.8 192C937.8 192.6 937.5 193.1 937.1 193.6C936.7 194 936.1 194.3 935.5 194.3C934.9 194.3 934.3 194.1 933.9 193.7L925.7 185.5C923.9 183.7 921.4 182.6 918.7 182.6C916 182.6 913.6 183.6 911.7 185.5L903.7 193.5C903.7 193.5 903.6 193.6 903.5 193.7C902.4 194.7 901.2 195.6 899.9 196.2C898.1 197 896.2 197.4 894.3 197.4C900.5 203.2 909 208.6 918.8 208.6C928.6 208.6 920 208.8 920.4 209.3C920.8 209.7 921.1 210.3 921.1 210.9C921.1 211.5 920.9 212.1 920.4 212.5C920 212.9 919.4 213.2 918.8 213.2H918.7ZM875.2 177.2C880.5 188.7 890.7 195.4 897.9 192C905 188.7 906.6 176.4 901.4 165.1C898.8 159.4 894.8 154.7 890.3 151.9C886.1 149.3 882 148.7 878.6 150.3C871.5 153.6 869.9 165.9 875.2 177.2Z" fill="#144A8F"/>
<path d="M963.6 219.7C960.1 219.7 956.5 218.8 952.6 216.9C952.1 216.6 951.7 216.1 951.5 215.6C951.3 215 951.4 214.4 951.6 213.9C951.9 213.4 952.3 212.9 952.9 212.7C953.5 212.5 954.1 212.5 954.6 212.7C961.9 216.2 966.8 215.3 970.6 213.3C968.6 211.6 967 210.2 967 210.2C966.6 209.8 966.3 209.4 966.2 208.8C966.2 208.3 966.2 207.7 966.5 207.3C966.8 206.8 967.2 206.5 967.7 206.3C968.2 206.1 968.8 206.1 969.3 206.3C973.6 208 977.5 208 981.1 206.2C985.7 203.9 989 199.2 991.1 195.1C987.6 196.5 982.7 197 976 195.5C961.7 192.2 952.6 203.9 952.2 204.4C951.8 204.9 951.3 205.2 950.7 205.2C950.1 205.2 949.5 205.2 949 204.7C948.5 204.3 948.2 203.8 948.1 203.2C948.1 202.6 948.1 202 948.5 201.5C949 200.9 959.8 186.9 977 190.9C990.7 194.1 994.4 186.8 994.5 186.5C994.7 186 995.2 185.6 995.7 185.3C996.2 185.1 996.8 185.1 997.4 185.3C997.9 185.5 998.4 185.9 998.6 186.4C998.9 186.9 998.9 187.5 998.8 188.1C998.6 188.8 994.1 204.8 983 210.3C980.8 211.4 978.5 212 976.1 212.2C976.3 212.4 976.4 212.7 976.5 213C976.5 213.3 976.6 213.6 976.5 213.9C976.5 214.2 976.4 214.5 976.2 214.8C976 215.1 975.8 215.3 975.6 215.5C971.7 218.3 967.7 219.7 963.4 219.7H963.6Z" fill="#144A8F"/>
<path d="M910.5 242.6H891.6V250.4H910.5V242.6Z" fill="#EB2126"/>
<path d="M939.7 246.1H920.8V253.9H939.7V246.1Z" fill="#EB2126"/>
<path d="M930 254.9C929.4 254.9 928.8 254.7 928.4 254.2C928 253.8 927.7 253.2 927.7 252.6V249.4C927.7 248.8 927.9 248.2 928.4 247.8C928.8 247.4 929.4 247.1 930 247.1C930.6 247.1 931.2 247.3 931.6 247.8C932 248.2 932.3 248.8 932.3 249.4V252.6C932.3 253.2 932.1 253.8 931.6 254.2C931.2 254.6 930.6 254.9 930 254.9Z" fill="#144A8F"/>
<path d="M891.9 241.7C891.9 241.7 894.5 241.7 896.5 241.6C897.1 241.6 897.6 242.4 897.3 243.2C896.4 246.2 897.2 248.7 896.5 249.6C895.7 250.7 891 249 891 249L891.9 241.7Z" fill="#A62126"/>
<path d="M920.6 245.6C920.6 245.6 923.2 245.3 925.2 244.9C925.8 244.8 926.4 245.6 926.2 246.4C925.7 249.5 926.8 251.9 926.2 252.9C925.5 254.1 920.6 252.9 920.6 252.9V245.5V245.6Z" fill="#A62126"/>
<path d="M910.1 114C910.1 114 919.8 122.1 926.4 120.3C930.4 119.2 926.2 127.8 910.7 125.6C894.6 123.4 902.9 106.9 902.9 106.9L910.1 113.9V114Z" fill="#EB2126"/>
<path d="M912.2 97.2C913.3 99.8 921.7 103.8 927.6 103.4C928 103.4 928.4 103.4 928.7 103.7C929 103.9 929.3 104.2 929.4 104.6C930.8 109.1 930.8 114.3 929.7 116.4C928.5 118.4 902.9 113.7 902.7 102.9C902.6 92.1 906.9 91.9 906.9 91.9L912.2 97.2Z" fill="#EB2126"/>
<path d="M912.4 79.1C913.3 81.6 919.9 85.6 924.3 86C924.8 86 925.3 86.2 925.7 86.6C926.1 86.9 926.4 87.4 926.6 87.9C927.8 91.3 928.1 95 928.6 98.2C928.9 100.3 904.6 95.7 904.5 84.9C904.5 74.1 908 73.9 908 73.9L912.4 79.2V79.1Z" fill="#EB2126"/>
<path d="M926.9 118.7C919.5 118.7 912.9 115.6 910.5 114.3C906 111.9 901.1 108.1 900.6 104.6C900.6 104 900.7 103.4 901.1 103C901.5 102.5 902 102.2 902.6 102.2C903.2 102.2 903.8 102.2 904.3 102.6C904.8 102.9 905.1 103.5 905.2 104.1C905.4 105 908 107.9 913.3 110.6C916.2 112.1 926.4 116.5 934.7 112.4C935 112.2 935.3 112.1 935.6 112.1C935.9 112.1 936.2 112.1 936.5 112.1C936.8 112.1 937.1 112.3 937.3 112.5C937.5 112.7 937.7 113 937.9 113.2C938 113.5 938.1 113.8 938.1 114.1C938.1 114.4 938.1 114.7 938 115C937.9 115.3 937.7 115.6 937.5 115.8C937.3 116 937 116.2 936.7 116.3C933.6 117.8 930.2 118.6 926.8 118.5L926.9 118.7ZM925.5 101.4C920.6 101.3 915.8 100 911.6 97.7C907.7 95.6 903.4 92.3 903 89.2C903 88.6 903.1 88 903.5 87.5C903.9 87 904.4 86.7 905 86.6C905.6 86.6 906.2 86.6 906.7 87C907.2 87.4 907.5 87.9 907.6 88.5C907.8 89.3 910.3 92 915.4 94.3C918.4 95.6 925.9 98.4 932.2 95.3C932.7 95.1 933.4 95 933.9 95.3C934.5 95.5 934.9 95.9 935.2 96.4C935.5 96.9 935.5 97.5 935.3 98.1C935.1 98.7 934.8 99.1 934.2 99.4C931.5 100.7 928.5 101.4 925.5 101.3V101.4Z" fill="#144A8F"/>
<path d="M924.3 75.9C924.4 76.4 924.3 76.9 924.1 77.3C923.9 77.7 923.5 78 923 78.2C921.2 78.8 919.3 79.2 917.4 79.2C910.9 79.4 908.2 71.4 908.2 71.4C908.2 71.4 910.8 56.2 916.5 56.3C918.4 56.3 922.8 69.8 924.3 75.9Z" fill="#EB2126"/>
<path d="M918.7 132.2C908.1 132.2 899.2 122.8 899.2 117C899.2 111.2 901.4 92.4 906 73.7C906 73.5 906 73.3 906.2 73.1C909.1 61.5 913 52.1 917.9 52.1C930.9 52.1 938.2 116.3 938.2 117C938.2 122.9 929.3 132.2 918.7 132.2ZM909.6 79C906.4 94 903.8 112 903.8 117C903.8 122 910.3 127.6 918.7 127.6C927.1 127.6 933.6 120.1 933.6 117C933.6 113.9 931.5 99.4 928.2 84.5C928.2 84.2 928.1 83.8 928 83.5C923.5 84.7 918.1 83.8 912.9 81.1C911.7 80.5 910.6 79.8 909.6 79ZM910.8 73.8C911.5 74.7 913.7 76.7 917.4 78.1C919.5 78.9 923.4 80 927 79C921.7 57.3 918 56.7 917.9 56.7C915.7 56.7 913.1 64.1 910.7 73.8H910.8Z" fill="#144A8F"/>
<path d="M952.5 165.9C952.5 167 952.2 168.2 951.5 169.1C950.9 170 950 170.8 948.9 171.2C947.8 171.6 946.7 171.8 945.6 171.5C944.5 171.3 943.5 170.7 942.6 169.9C941.8 169.1 941.2 168.1 941 166.9C940.8 165.8 940.9 164.6 941.3 163.6C941.7 162.6 942.5 161.6 943.4 161C944.3 160.4 945.5 160 946.6 160C947.7 160 949.6 160.6 950.7 161.7C951.8 162.8 952.4 164.2 952.4 165.8L952.5 165.9Z" fill="white"/>
<path d="M918.8 218.9L919 218.4C921 218 924 219.4 924.8 221.2L927.4 228.7C927.7 229.7 927.8 230.8 927.5 231.9L924.5 243.9L923.4 230.2L918.8 218.8V218.9Z" fill="#2494D1"/>
<path d="M900.6 252.4C900 252.4 899.4 252.2 899 251.7C898.6 251.3 898.3 250.7 898.3 250.1V247.3C898.3 246.7 898.5 246.1 899 245.7C899.4 245.3 900 245 900.6 245C901.2 245 901.8 245.2 902.2 245.7C902.6 246.1 902.9 246.7 902.9 247.3V250.1C902.9 250.7 902.7 251.3 902.2 251.7C901.8 252.1 901.2 252.4 900.6 252.4ZM908.9 243.2H891.6C891 243.2 890.4 243 890 242.5C889.6 242.1 889.3 241.5 889.3 240.9C889.3 240.3 889.5 239.7 890 239.3C890.4 238.9 891 238.6 891.6 238.6H908.9C909.5 238.6 910.1 238.8 910.5 239.3C910.9 239.7 911.2 240.3 911.2 240.9C911.2 241.5 911 242.1 910.5 242.5C910.1 242.9 909.5 243.2 908.9 243.2Z" fill="#144A8F"/>
<path d="M938.6 246.3H922.2C921.6 246.3 921 246.1 920.6 245.6C920.2 245.2 919.9 244.6 919.9 244C919.9 243.4 920.1 242.8 920.6 242.4C921 242 921.6 241.7 922.2 241.7H938.6C939.2 241.7 939.8 241.9 940.2 242.4C940.6 242.8 940.9 243.4 940.9 244C940.9 244.6 940.7 245.2 940.2 245.6C939.8 246 939.2 246.3 938.6 246.3Z" fill="#144A8F"/>
<path d="M920.3 221.8C922.4 223.9 926.1 229.8 924.6 231.3C923.1 232.8 918.3 231.4 916.2 229.3C914.1 227.2 913.4 224.3 914.9 222.8C918 224.1 918.2 219.7 920.3 221.8Z" fill="#2494D1"/>
<path d="M908.7 252.7H891.1C890.8 252.7 890.5 252.7 890.2 252.5C889.9 252.4 889.6 252.2 889.4 252C889.2 251.8 889 251.5 888.9 251.2C888.8 250.9 888.7 250.6 888.8 250.3L890.6 223.5C890.6 223.3 890.6 223.1 890.7 222.8L897.7 204.2C897.9 203.7 898.4 203.2 898.9 203C899.4 202.8 900.1 202.8 900.6 203C901.2 203.2 901.6 203.6 901.9 204.2C902.2 204.7 902.2 205.3 902 205.9L895.1 224.2L893.5 248.2H906.4L906.7 233.3C906.7 233 906.7 232.7 906.9 232.4L910.9 223.4C911 223.1 911.2 222.8 911.4 222.6C911.6 222.4 911.9 222.2 912.2 222.1C912.5 222 912.8 221.9 913.1 221.9C913.4 221.9 913.7 221.9 914 222.1C914.3 222.2 914.5 222.4 914.8 222.6C915 222.8 915.2 223.1 915.3 223.4C915.4 223.7 915.4 224 915.4 224.3C915.4 224.6 915.3 224.9 915.2 225.2L911.4 233.8L911 250.5C911 251.1 910.7 251.7 910.3 252.1C909.9 252.5 909.3 252.8 908.7 252.7Z" fill="#144A8F"/>
<path d="M922 239.4H910.1V246.5H922V239.4Z" fill="#EB2126"/>
<path d="M922 248.8H910.1C909.5 248.8 908.9 248.6 908.5 248.1C908.1 247.7 907.8 247.1 907.8 246.5V239.4C907.8 238.8 908 238.2 908.5 237.8C908.9 237.4 909.5 237.1 910.1 237.1H922C922.6 237.1 923.2 237.3 923.6 237.8C924 238.2 924.3 238.8 924.3 239.4V246.5C924.3 247.1 924.1 247.7 923.6 248.1C923.2 248.5 922.6 248.8 922 248.8ZM912.4 244.2H919.7V241.7H912.4V244.2Z" fill="#144A8F"/>
<path d="M939 254.9H921.4C921.1 254.9 920.8 254.9 920.5 254.7C920.2 254.6 919.9 254.4 919.7 254.1C919.5 253.9 919.3 253.6 919.2 253.3C919.1 253 919.1 252.7 919.1 252.4L921.1 230.7L917.1 221.5C916.9 220.9 916.9 220.3 917.1 219.8C917.3 219.2 917.8 218.8 918.3 218.6C918.8 218.4 919.5 218.3 920 218.6C920.6 218.8 921 219.2 921.3 219.8L925.5 229.5C925.7 229.9 925.7 230.3 925.7 230.7L923.9 250.5H937L940.8 225.7C940.8 225.4 940.9 225.1 941.1 224.8C941.3 224.5 941.5 224.3 941.7 224.1C941.9 223.9 942.2 223.8 942.5 223.7C942.8 223.7 943.1 223.7 943.4 223.7C943.7 223.7 944 223.9 944.3 224C944.6 224.1 944.8 224.4 945 224.6C945.2 224.9 945.3 225.1 945.4 225.4C945.5 225.7 945.4 226 945.4 226.3L942.7 244.3C942.8 244.3 942.9 244.3 943 244.3H945.9C946 243.8 946.3 243.4 946.7 243.1C947.1 242.8 947.6 242.7 948.1 242.7C948.6 242.7 949.1 242.9 949.5 243.1C949.9 243.4 950.2 243.8 950.3 244.3H953.1C952.7 210.6 942.9 201.5 942.8 201.4C942.3 201 942.1 200.4 942 199.8C942 199.2 942.2 198.6 942.6 198.1C943 197.6 943.6 197.4 944.2 197.3C944.8 197.3 945.4 197.4 945.9 197.8C946.4 198.2 957.8 208.3 957.8 246.5C957.8 284.7 957.6 247.7 957.1 248.1C956.7 248.5 956.1 248.8 955.5 248.8H943C942.7 248.8 942.3 248.8 942 248.6L941.3 253C941.3 253.5 940.9 254 940.5 254.4C940.1 254.8 939.6 254.9 939 254.9ZM915.5 247.7C914.9 247.7 914.3 247.5 913.9 247C913.5 246.6 913.2 246 913.2 245.4V244.9C913.2 244.3 913.4 243.7 913.9 243.3C914.3 242.9 914.9 242.6 915.5 242.6C916.1 242.6 916.7 242.8 917.1 243.3C917.5 243.7 917.8 244.3 917.8 244.9V245.4C917.8 246 917.6 246.6 917.1 247C916.7 247.4 916.1 247.7 915.5 247.7Z" fill="#144A8F"/>
<path d="M900.3 206.1L892.8 223.7L891.5 241H908.8L912.2 239.1L922 239.4V244H940.3L941.6 239.4H955.3C955.3 239.4 951.5 205.7 944.9 201.2C920 218.1 900.3 206.1 900.3 206.1Z" fill="white"/>
<path d="M945.3 225.8L946.3 238.7H941.5L945.3 225.8Z" fill="#2494D1"/>
<path d="M897.8 210.9C897.8 210.9 912.8 219.9 930.9 210.9C945.3 203.7 900.4 206.1 900.4 206.1L897.8 210.9Z" fill="#2494D1"/>
<path d="M955.4 246.5H940.7L941.6 239.4H955.3C955.3 239.4 955.4 244.2 955.4 246.5Z" fill="#EB2126"/>
<path d="M955.4 248.8H940.7C940.4 248.8 940 248.8 939.7 248.6C939.4 248.5 939.1 248.3 938.9 248C938.7 247.8 938.5 247.5 938.4 247.2C938.4 246.9 938.3 246.6 938.4 246.2L939.3 239.1C939.3 238.5 939.6 238 940.1 237.7C940.5 237.3 941.1 237.1 941.6 237.1H955.3C955.9 237.1 956.5 237.3 956.9 237.7C957.3 238.1 957.6 238.7 957.6 239.3C957.6 239.3 957.7 244.2 957.7 246.5C957.7 247.1 957.4 247.7 957 248.1C956.6 248.5 956 248.8 955.4 248.8ZM943.3 244.2H953.1C953.1 243.3 953.1 242.5 953.1 241.7H943.7L943.4 244.2H943.3Z" fill="#144A8F"/>
<path d="M950.4 202.9C950.4 202.9 960.6 189.4 976.5 193.2C992.5 196.9 996.6 187.5 996.6 187.5C996.6 187.5 988.7 216.5 968.3 208.5C968.3 208.5 971.4 211.1 974.3 213.6C968.2 218 962.7 220.6 951.7 214" fill="#2494D1"/>
<path d="M949 205.2C949 205.2 959.3 190.1 972.4 193.2C985.5 196.3 993.4 193 993.4 193C993.4 193 984.3 211.6 969.8 203C967.3 201.2 963.9 201.6 962.2 203.9C960.5 206.2 961.3 209.5 963.8 211.4C960 213 954.9 211 952.1 209.2" fill="white"/>
<path d="M904.6 208C904.6 208 906.2 203.9 900.4 206.1C894.6 208.3 890.8 241 890.8 241H893.4C894.8 241 897.7 240.7 897.6 239.3C897.6 239.3 897.8 229.6 898.5 224.2C899.8 219.2 904.6 208 904.6 208Z" fill="#2494D1"/>
<path d="M974.5 130.6C974.5 161.9 949.5 210.9 918.8 210.9C888.1 210.9 863.1 161.9 863.1 130.6C863.1 99.3 888.1 86.8 918.8 86.8C949.5 86.8 974.5 99.3 974.5 130.6Z" fill="white"/>
<path d="M918.7 213.2C886.7 213.2 860.7 163.2 860.7 130.6C860.7 98 881.9 84.5 918.7 84.5C955.5 84.5 976.7 101.3 976.7 130.6C976.7 163.2 950.7 213.2 918.6 213.2H918.7ZM918.7 89C902.6 89 865.3 93 865.3 130.5C865.3 168 889.8 208.5 918.7 208.5C947.6 208.5 972.1 160.6 972.1 130.5C972.1 100.4 934.7 89 918.7 89Z" fill="#144A8F"/>
<path d="M871 125.4C871 125.4 865.5 126.3 862.8 125.2C859.2 123.7 865.1 119.2 865.1 119.2L871 125.5V125.4Z" fill="#2494D1"/>
<path d="M932.1 119.5C932.1 126.5 927.5 128.8 918.8 132.1C909 132.1 889.2 126.5 889.2 119.5C889.2 112.5 910.8 106.9 920.6 106.9C930.4 106.9 932 112.6 932 119.5" fill="#2494D1"/>
<path d="M927.2 182.3C927.2 182.3 924.2 169.6 933.7 165.4C931.9 170.3 928.2 180.9 930.5 184.6C932.8 188.3 927.2 182.3 927.2 182.3Z" fill="#2494D1"/>
<path d="M918.7 213.2C886.7 213.2 860.7 163.2 860.7 130.6C860.7 98 881.9 84.5 918.7 84.5C955.5 84.5 976.7 101.3 976.7 130.6C976.7 163.2 950.7 213.2 918.6 213.2H918.7ZM918.7 89C902.6 89 865.3 93 865.3 130.5C865.3 168 889.8 208.5 918.7 208.5C947.6 208.5 972.1 160.6 972.1 130.5C972.1 100.4 934.7 89 918.7 89Z" fill="#144A8F"/>
<path d="M900.9 141.5C900.9 141.5 904 154.8 924.8 156.7C926.2 156.8 927 155.1 926.3 153.9C925.3 152.3 922.2 149.8 922.1 147.8C926.7 148.3 934.2 150.6 938.2 148.4C938.5 148.3 938.7 148 938.8 147.8C939 147.5 939 147.2 939 146.9C939 146.6 938.9 146.3 938.7 146C938.5 145.7 938.3 145.5 938 145.4C935.4 144.2 935.6 139.9 934.4 137.7" fill="#2494D1"/>
<path d="M901.5 137.3C901.5 137.3 903.3 151.9 929.2 150C927.7 148 926 145.9 926 143C931.1 143.6 937.6 143.7 940.9 139.9C937.8 139.4 934.4 137 933 134.4" fill="white"/>
<path d="M924.7 152.5C901.3 152.5 899.3 138.2 899.2 137.6C899.2 137 899.4 136.4 899.7 136C900.1 135.5 900.6 135.3 901.2 135.2C901.8 135.2 902.4 135.2 902.8 135.6C903.3 135.9 903.6 136.5 903.7 137C903.7 137.5 905.6 147.9 924.6 147.9H924.9C924.1 146.4 923.6 144.7 923.6 143C923.6 142.7 923.6 142.4 923.8 142.1C924 141.8 924.1 141.5 924.4 141.3C924.6 141.1 924.9 140.9 925.2 140.8C925.5 140.8 925.8 140.7 926.2 140.8C930.4 141.3 933.5 141.2 935.9 140.5C933.9 139.3 932.2 137.6 931 135.6C930.8 135.1 930.8 134.5 931 133.9C931.2 133.3 931.6 132.9 932.1 132.6C932.6 132.3 933.2 132.3 933.7 132.4C934.2 132.5 934.7 132.9 935.1 133.3C936.2 135.3 939 137.2 941.4 137.7C941.8 137.7 942.2 137.9 942.5 138.2C942.8 138.5 943 138.8 943.2 139.2C943.3 139.6 943.4 140 943.2 140.4C943.2 140.8 943 141.2 942.7 141.5C939.4 145.4 933.9 145.9 929 145.7C929.6 146.8 930.3 147.8 931.1 148.8C931.4 149.1 931.5 149.5 931.6 149.9C931.6 150.3 931.6 150.7 931.4 151.1C931.2 151.5 931 151.8 930.6 152C930.3 152.2 929.9 152.4 929.4 152.4C927.8 152.4 926.2 152.5 924.8 152.5H924.7Z" fill="#144A8F"/>
<path d="M936 117C936 121.6 928.3 129.9 918.8 129.9C909.3 129.9 901.6 121.5 901.6 117C901.6 112.5 908.5 54.5 918 54.5C927.5 54.5 936 112.5 936 117Z" fill="white"/>
<path d="M918.7 132.2C908.1 132.2 899.2 122.8 899.2 117C899.2 116.3 905 52.1 917.9 52.1C930.8 52.1 938.2 116.3 938.2 117C938.2 122.9 929.3 132.2 918.7 132.2ZM917.9 56.7C912 56.7 903.8 107.9 903.8 116.9C903.8 125.9 910.3 127.5 918.7 127.5C927.1 127.5 933.6 120 933.6 116.9C933.6 113.8 931.5 99.3 928.2 84.4C922.2 57.4 917.9 56.6 917.9 56.6V56.7Z" fill="#144A8F"/>
<path d="M929.1 198.5C929.3 199.7 927.3 198.5 925.3 198.8C923.2 199.2 921.8 201.2 921.6 200C921.4 198.8 922.6 196.2 924.7 195.8C926.8 195.4 928.9 197.3 929.1 198.5Z" fill="#144A8F"/>
<path d="M908.6 198.5C908.4 199.7 910.4 198.5 912.4 198.8C914.5 199.2 915.9 201.2 916.1 200C916.3 198.8 915.1 196.2 913 195.8C910.9 195.4 908.8 197.3 908.6 198.5Z" fill="#144A8F"/>
<path d="M886.7 98.1C886.7 98.1 873.1 91.4 860.5 92.2C856 105.1 861.2 118.1 870.9 123.1" fill="white"/>
<path d="M870.8 125.4C870.4 125.4 870.1 125.4 869.7 125.1C858.5 119.3 853.6 104.8 858.2 91.4C858.3 91 858.6 90.6 859 90.3C859.4 90 859.8 89.9 860.2 89.8C873.3 88.9 887 95.7 887.6 96C888.1 96.3 888.5 96.8 888.7 97.3C888.9 97.9 888.8 98.5 888.6 99C888.3 99.5 887.9 99.9 887.3 100.1C886.7 100.3 886.1 100.3 885.6 100.1C885.5 100.1 873.5 94.2 862.1 94.3C859 105.1 863.1 116.4 871.8 120.9C872.3 121.1 872.6 121.5 872.8 122C873 122.5 873.1 123 872.9 123.5C872.7 124 872.5 124.4 872.1 124.8C871.7 125.2 871.2 125.3 870.7 125.3L870.8 125.4Z" fill="#144A8F"/>
<path d="M864.9 100.9C864.6 102.8 864.9 110.9 872.2 116.5C872.2 116.5 872.3 116.5 872.4 116.6H872.6C872.6 116.6 872.7 116.5 872.7 116.4V116.2C872.2 115 872 113.7 871.8 112.3V112.1C871.8 112.1 871.8 112 872 111.9C872 111.9 872.1 111.9 872.2 111.9H872.4C873.1 112.3 873.9 112.7 875.4 112.3C875.5 112.3 875.6 112.3 875.7 112.1C875.7 112.1 875.9 111.9 875.9 111.8C875.9 111.7 875.9 111.6 875.9 111.5C875.9 111.4 875.9 111.3 875.9 111.2C875.5 110.7 875.3 110.1 875.2 109.5C875.2 109.4 875.2 109.3 875.2 109.2C875.2 109.1 875.2 109 875.4 108.9C875.4 108.9 875.6 108.8 875.7 108.7C875.7 108.7 875.9 108.7 876 108.7C878.7 108.7 880.9 109.1 882.6 107.9" fill="#2494D1"/>
<path d="M881.6 106.1C876.9 103.9 871.9 102.3 866.8 101.4L881.6 106.1Z" fill="white"/>
<path d="M881.6 108.4C881.2 108.4 880.9 108.4 880.6 108.2C876.1 106.1 871.3 104.6 866.4 103.7C865.8 103.6 865.3 103.2 865 102.7C864.7 102.2 864.5 101.6 864.6 101C864.6 100.4 865 99.9 865.5 99.5C866 99.1 866.6 99 867.2 99.1C872.5 100.1 877.8 101.7 882.7 104C883.2 104.2 883.5 104.6 883.8 105.1C884 105.6 884.1 106.1 884 106.6C883.9 107.1 883.6 107.6 883.2 107.9C882.8 108.2 882.3 108.4 881.8 108.4H881.6Z" fill="#144A8F"/>
<path d="M950.8 98.1C950.8 98.1 964.4 91.4 977 92.2C981.5 105.1 976.3 118.1 966.6 123.1" fill="white"/>
<path d="M966.7 125.4C966.2 125.4 965.7 125.2 965.3 124.9C964.9 124.6 964.6 124.1 964.5 123.6C964.4 123.1 964.5 122.6 964.6 122.1C964.8 121.6 965.2 121.2 965.6 121C974.3 116.5 978.4 105.2 975.3 94.4C963.9 94.2 952 100.1 951.8 100.2C951.3 100.4 950.6 100.4 950.1 100.2C949.5 100 949.1 99.6 948.8 99.1C948.5 98.6 948.5 98 948.7 97.4C948.9 96.8 949.3 96.4 949.8 96.1C950.4 95.8 964.1 89.1 977.2 89.9C977.7 89.9 978.1 90.1 978.4 90.4C978.7 90.7 979 91.1 979.2 91.5C983.8 104.9 978.9 119.4 967.7 125.2C967.4 125.4 967 125.5 966.6 125.5L966.7 125.4Z" fill="#144A8F"/>
<path d="M972.6 100.9C972.9 102.8 972.6 110.9 965.3 116.5C965.3 116.5 965.2 116.5 965.1 116.6H964.9C964.9 116.6 964.8 116.5 964.8 116.4V116.2C965.2 115 965.5 113.7 965.7 112.3V112.1C965.7 112.1 965.7 112 965.5 111.9C965.3 111.8 965.4 111.9 965.3 111.9H965.1C964.4 112.3 963.6 112.7 962.1 112.3C962 112.3 961.9 112.3 961.8 112.1C961.8 112.1 961.6 111.9 961.6 111.8C961.6 111.7 961.6 111.6 961.6 111.5C961.6 111.4 961.6 111.3 961.6 111.2C961.9 110.7 962.2 110.1 962.3 109.5C962.3 109.4 962.3 109.3 962.3 109.2C962.3 109.1 962.3 109 962.1 108.9C962.1 108.9 961.9 108.8 961.8 108.7C961.8 108.7 961.6 108.7 961.5 108.7C958.8 108.7 956.6 109.1 954.9 107.9" fill="#2494D1"/>
<path d="M955.8 106.1C960.5 103.9 965.5 102.3 970.6 101.4L955.8 106.1Z" fill="white"/>
<path d="M955.8 108.4C955.3 108.4 954.8 108.2 954.4 107.9C954 107.6 953.7 107.1 953.6 106.6C953.5 106.1 953.6 105.6 953.8 105.1C954 104.6 954.4 104.2 954.9 104C959.8 101.7 965 100 970.4 99.1C971 99.1 971.6 99.1 972.1 99.5C972.6 99.9 972.9 100.4 973 101C973.1 101.6 973 102.2 972.6 102.7C972.3 103.2 971.8 103.5 971.2 103.7C966.3 104.6 961.5 106.1 957 108.2C956.7 108.4 956.3 108.4 956 108.4H955.8Z" fill="#144A8F"/>
<path d="M964.3 178.1C958.4 190.8 946.9 197.9 938.5 194.1C930.1 190.2 928.1 176.8 933.9 164.1C939.8 151.4 951.3 144.3 959.7 148.1C968.1 152 970.1 165.4 964.3 178.1Z" fill="white"/>
<path d="M943.5 197.4C941.5 197.4 939.5 197 937.6 196.1C932.8 193.9 929.6 189.1 928.7 182.7C927.8 176.6 928.9 169.6 932 163.1C938.4 149.3 951.3 141.6 960.8 146C970.3 150.4 972.9 165.2 966.5 179C963.5 185.5 958.9 190.9 953.7 194.2C950.3 196.3 946.8 197.4 943.6 197.4H943.5ZM954.9 149.4C948.3 149.4 940.4 155.7 936 165.1C933.4 170.8 932.3 176.9 933.1 182.1C933.8 187 936.1 190.5 939.4 192C942.7 193.5 946.9 193 951.1 190.4C955.6 187.6 959.5 182.9 962.2 177.2C967.4 165.9 965.9 153.6 958.8 150.3C957.6 149.7 956.3 149.5 954.9 149.5V149.4Z" fill="#144A8F"/>
<path d="M873.1 178.1C879 190.8 890.5 197.9 898.9 194.1C907.3 190.2 909.3 176.8 903.5 164.1C897.6 151.4 886.1 144.3 877.7 148.2C869.3 152.1 867.3 165.5 873.1 178.2" fill="white"/>
<path d="M894 197.4C890.7 197.4 887.3 196.3 883.9 194.2C878.7 191 874.1 185.6 871.1 179C864.7 165.2 867.3 150.4 876.8 146C886.3 141.6 899.3 149.3 905.6 163.1C908.6 169.6 909.8 176.6 908.8 182.7C907.8 189.2 904.6 193.9 899.9 196.1C898.1 196.9 896.1 197.4 894 197.4ZM882.5 149.4C881.2 149.4 879.8 149.7 878.6 150.2C871.5 153.5 869.9 165.8 875.2 177.1C877.8 182.8 881.8 187.5 886.3 190.3C890.5 192.9 894.6 193.5 898 191.9C901.3 190.3 903.6 186.8 904.3 182C905.1 176.8 904.1 170.8 901.4 165C897.1 155.6 889.2 149.3 882.6 149.3L882.5 149.4Z" fill="#144A8F"/>
<path d="M873.1 178.1C879 190.8 890.5 197.9 898.9 194.1C907.3 190.2 909.3 176.8 903.5 164.1C897.6 151.4 886.1 144.3 877.7 148.2C869.3 152.1 867.3 165.5 873.1 178.2" fill="white"/>
<path d="M894 197.4C890.7 197.4 887.3 196.3 883.9 194.2C878.7 191 874.1 185.6 871.1 179C864.7 165.2 867.3 150.4 876.8 146C886.3 141.6 899.3 149.3 905.6 163.1C908.6 169.6 909.8 176.6 908.8 182.7C907.8 189.2 904.6 193.9 899.9 196.1C898.1 196.9 896.1 197.4 894 197.4ZM882.5 149.4C881.2 149.4 879.8 149.7 878.6 150.2C871.5 153.5 869.9 165.8 875.2 177.1C877.8 182.8 881.8 187.5 886.3 190.3C890.5 192.9 894.6 193.5 898 191.9C901.3 190.3 903.6 186.8 904.3 182C905.1 176.8 904.1 170.8 901.4 165C897.1 155.6 889.2 149.3 882.6 149.3L882.5 149.4Z" fill="#144A8F"/>
<path d="M904.3 168.2C903.9 169 903.4 169.7 902.7 170.3C902 170.9 901.2 171.3 900.4 171.5C899.5 171.7 898.7 171.7 897.8 171.5C896.9 171.3 896.1 170.9 895.4 170.4C894.7 169.9 894.2 169.2 893.8 168.4C893.4 167.6 893.2 166.7 893.2 165.9C893.2 165 893.4 164.2 893.8 163.4C894.2 162.6 894.8 161.9 895.5 161.4C895.3 161.4 895.1 161.4 894.8 161.4C892.7 161.4 890.6 162 888.8 163.2C887 164.4 885.7 166.2 885 168.2C884.3 170.2 884.3 172.4 885 174.5C885.6 176.5 886.9 178.3 888.6 179.6C890.3 180.9 892.4 181.6 894.5 181.6C896.6 181.6 898.7 181 900.5 179.7C902.2 178.5 903.5 176.7 904.2 174.6C904.9 172.6 904.9 170.4 904.2 168.3L904.3 168.2Z" fill="#144A8F"/>
<path d="M906.7 193.2C905.3 195 904.5 197.2 904.7 199.5C904.8 201.8 905.8 203.9 907.5 205.5C909.9 207.8 915.2 209.2 917.9 209.4C917.9 209.4 898.1 208.1 891.4 198.3C894.3 195.3 901.8 191.3 904 188.4C906.2 185.5 911 180 914.1 182.8" fill="#2494D1"/>
<path d="M911.1 182.2C911.1 182.2 914.9 160.7 898.5 154.5C902 162.5 909.4 179.8 905.9 186.3C902.4 192.8 911.2 182.2 911.2 182.2H911.1Z" fill="#2494D1"/>
<path d="M918.7 213.2C907.7 213.2 896.5 207.3 886.6 196.1C886.4 195.9 886.3 195.7 886.2 195.4C880.3 192.6 874.7 186.8 871.1 179C864.7 165.2 867.3 150.4 876.8 146C881.6 143.8 887.3 144.5 892.8 147.9C898.1 151.1 902.6 156.5 905.6 163.1C908.6 169.5 909.6 176.2 908.9 181.9C911.6 179.4 915.3 178 919 178C922.7 178 926.3 179.6 929 182.2L937.2 190.4C937.6 190.8 937.8 191.4 937.8 192C937.8 192.6 937.5 193.1 937.1 193.6C936.7 194 936.1 194.3 935.5 194.3C934.9 194.3 934.3 194.1 933.9 193.7L925.7 185.5C923.9 183.7 921.4 182.6 918.7 182.6C916 182.6 913.6 183.6 911.7 185.5L903.7 193.5C903.7 193.5 903.6 193.6 903.5 193.7C902.4 194.7 901.2 195.6 899.9 196.2C898.1 197 896.2 197.4 894.3 197.4C900.5 203.2 909 208.6 918.8 208.6C928.6 208.6 920 208.8 920.4 209.3C920.8 209.7 921.1 210.3 921.1 210.9C921.1 211.5 920.9 212.1 920.4 212.5C920 212.9 919.4 213.2 918.8 213.2H918.7ZM875.2 177.2C880.5 188.7 890.7 195.4 897.9 192C905 188.7 906.6 176.4 901.4 165.1C898.8 159.4 894.8 154.7 890.3 151.9C886.1 149.3 882 148.7 878.6 150.3C871.5 153.6 869.9 165.9 875.2 177.2Z" fill="#144A8F"/>
<path d="M963.2 219.6C959.1 219.6 955 218.6 951.3 216.7C950.8 216.4 950.4 215.9 950.2 215.4C950 214.8 950.1 214.2 950.3 213.7C950.6 213.2 951 212.8 951.6 212.5C952.2 212.3 952.8 212.3 953.3 212.5C959.5 215.5 965.5 215.7 970.6 213.3C968.6 211.6 967 210.3 967 210.3C966.6 209.9 966.3 209.5 966.2 208.9C966.2 208.4 966.2 207.8 966.5 207.4C966.8 206.9 967.2 206.6 967.7 206.4C968.2 206.2 968.8 206.2 969.3 206.4C973.6 208.1 977.5 208.1 981.1 206.3C985.7 204 989 199.3 991.1 195.2C987.6 196.6 982.7 197.1 976 195.6C961.7 192.2 950.9 205.6 950.8 205.7C950.4 206.1 949.9 206.4 949.3 206.5C948.7 206.5 948.1 206.4 947.7 206C947.3 205.6 946.9 205.1 946.8 204.5C946.8 203.9 946.8 203.3 947.2 202.8C947.7 202.2 959.9 187 977.1 191.1C990.8 194.3 994.5 187 994.6 186.7C994.8 186.2 995.3 185.8 995.8 185.5C996.3 185.3 996.9 185.3 997.5 185.5C998 185.7 998.5 186.1 998.7 186.6C999 187.1 999 187.7 998.9 188.3C998.7 189 994.2 205 983.1 210.5C980.9 211.6 978.6 212.2 976.2 212.4C976.4 212.6 976.5 212.9 976.6 213.2C976.6 213.5 976.7 213.8 976.6 214.1C976.6 214.4 976.5 214.7 976.3 215C976.1 215.3 975.9 215.5 975.7 215.7C972 218.4 967.6 219.8 963.1 219.8L963.2 219.6Z" fill="#144A8F"/>
<path d="M910.5 242.6H891.6V250.4H910.5V242.6Z" fill="#EB2126"/>
<path d="M939.7 246.1H920.8V253.9H939.7V246.1Z" fill="#EB2126"/>
<path d="M930 254.9C929.4 254.9 928.8 254.7 928.4 254.2C928 253.8 927.7 253.2 927.7 252.6V249.4C927.7 248.8 927.9 248.2 928.4 247.8C928.8 247.4 929.4 247.1 930 247.1C930.6 247.1 931.2 247.3 931.6 247.8C932 248.2 932.3 248.8 932.3 249.4V252.6C932.3 253.2 932.1 253.8 931.6 254.2C931.2 254.6 930.6 254.9 930 254.9Z" fill="#144A8F"/>
<path d="M891.9 241.7C891.9 241.7 894.5 241.7 896.5 241.6C897.1 241.6 897.6 242.4 897.3 243.2C896.4 246.2 897.2 248.7 896.5 249.6C895.7 250.7 891 249 891 249L891.9 241.7Z" fill="#A62126"/>
<path d="M920.6 245.6C920.6 245.6 923.2 245.3 925.2 244.9C925.8 244.8 926.4 245.6 926.2 246.4C925.7 249.5 926.8 251.9 926.2 252.9C925.5 254.1 920.6 252.9 920.6 252.9V245.5V245.6Z" fill="#A62126"/>
<path d="M910.1 114C910.1 114 919.8 122.1 926.4 120.3C930.4 119.2 926.2 127.8 910.7 125.6C894.6 123.4 902.9 106.9 902.9 106.9L910.1 113.9V114Z" fill="#EB2126"/>
<path d="M912.2 97.2C913.3 99.8 921.7 103.8 927.6 103.4C928 103.4 928.4 103.4 928.7 103.7C929 103.9 929.3 104.2 929.4 104.6C930.8 109.1 930.8 114.3 929.7 116.4C928.5 118.4 902.9 113.7 902.7 102.9C902.6 92.1 906.9 91.9 906.9 91.9L912.2 97.2Z" fill="#EB2126"/>
<path d="M912.4 79.1C913.3 81.6 919.9 85.6 924.3 86C924.8 86 925.3 86.2 925.7 86.6C926.1 86.9 926.4 87.4 926.6 87.9C927.8 91.3 928.1 95 928.6 98.2C928.9 100.3 904.6 95.7 904.5 84.9C904.5 74.1 908 73.9 908 73.9L912.4 79.2V79.1Z" fill="#EB2126"/>
<path d="M926.9 118.7C919.5 118.7 912.9 115.6 910.5 114.3C906 111.9 901.1 108.1 900.6 104.6C900.6 104 900.7 103.4 901.1 103C901.5 102.5 902 102.2 902.6 102.2C903.2 102.2 903.8 102.2 904.3 102.6C904.8 102.9 905.1 103.5 905.2 104.1C905.4 105 908 107.9 913.3 110.6C916.2 112.1 926.4 116.5 934.7 112.4C935 112.2 935.3 112.1 935.6 112.1C935.9 112.1 936.2 112.1 936.5 112.1C936.8 112.1 937.1 112.3 937.3 112.5C937.5 112.7 937.7 113 937.9 113.2C938 113.5 938.1 113.8 938.1 114.1C938.1 114.4 938.1 114.7 938 115C937.9 115.3 937.7 115.6 937.5 115.8C937.3 116 937 116.2 936.7 116.3C933.6 117.8 930.2 118.6 926.8 118.5L926.9 118.7ZM925.5 101.4C920.6 101.3 915.8 100 911.6 97.7C907.7 95.6 903.4 92.3 903 89.2C903 88.6 903.1 88 903.5 87.5C903.9 87 904.4 86.7 905 86.6C905.6 86.6 906.2 86.6 906.7 87C907.2 87.4 907.5 87.9 907.6 88.5C907.8 89.3 910.3 92 915.4 94.3C918.4 95.6 925.9 98.4 932.2 95.3C932.7 95.1 933.4 95 933.9 95.3C934.5 95.5 934.9 95.9 935.2 96.4C935.5 96.9 935.5 97.5 935.3 98.1C935.1 98.7 934.8 99.1 934.2 99.4C931.5 100.7 928.5 101.4 925.5 101.3V101.4Z" fill="#144A8F"/>
<path d="M924.3 75.9C924.4 76.4 924.3 76.9 924.1 77.3C923.9 77.7 923.5 78 923 78.2C921.2 78.8 919.3 79.2 917.4 79.2C910.9 79.4 908.2 71.4 908.2 71.4C908.2 71.4 910.8 56.2 916.5 56.3C918.4 56.3 922.8 69.8 924.3 75.9Z" fill="#EB2126"/>
<path d="M918.7 132.2C908.1 132.2 899.2 122.8 899.2 117C899.2 111.2 901.4 92.4 906 73.7C906 73.5 906 73.3 906.2 73.1C909.1 61.5 913 52.1 917.9 52.1C930.9 52.1 938.2 116.3 938.2 117C938.2 122.9 929.3 132.2 918.7 132.2ZM909.6 79C906.4 94 903.8 112 903.8 117C903.8 122 910.3 127.6 918.7 127.6C927.1 127.6 933.6 120.1 933.6 117C933.6 113.9 931.5 99.4 928.2 84.5C928.2 84.2 928.1 83.8 928 83.5C923.5 84.7 918.1 83.8 912.9 81.1C911.7 80.5 910.6 79.8 909.6 79ZM910.8 73.8C911.5 74.7 913.7 76.7 917.4 78.1C919.5 78.9 923.4 80 927 79C921.7 57.3 918 56.7 917.9 56.7C915.7 56.7 913.1 64.1 910.7 73.8H910.8Z" fill="#144A8F"/>
<path d="M952 168.1C951.7 168.9 951.1 169.6 950.5 170.2C949.8 170.8 949 171.2 948.2 171.4C947.3 171.6 946.4 171.6 945.6 171.4C944.8 171.2 943.9 170.8 943.2 170.3C942.5 169.8 941.9 169.1 941.6 168.3C941.2 167.5 941 166.6 941 165.7C941 164.8 941.2 163.9 941.6 163.2C942 162.4 942.6 161.7 943.3 161.2C943.1 161.2 942.9 161.2 942.6 161.2C940.6 161.2 938.7 161.8 937.1 162.9C935.5 164 934.2 165.5 933.4 167.4C932.6 169.2 932.5 171.2 932.8 173.1C933.2 175 934.1 176.8 935.5 178.2C936.9 179.6 938.7 180.5 940.6 180.9C942.5 181.3 944.5 181.1 946.3 180.3C948.1 179.5 949.7 178.3 950.8 176.6C951.9 175 952.5 173 952.5 171.1C952.5 170.1 952.3 169.1 952 168.1Z" fill="#144A8F"/>
<path d="M918.8 218.9L919 218.4C921 218 924 219.4 924.8 221.2L927.4 228.7C927.7 229.7 927.8 230.8 927.5 231.9L924.5 243.9L923.4 230.2L918.8 218.8V218.9Z" fill="#2494D1"/>
<path d="M900.6 252.4C900 252.4 899.4 252.2 899 251.7C898.6 251.3 898.3 250.7 898.3 250.1V247.3C898.3 246.7 898.5 246.1 899 245.7C899.4 245.3 900 245 900.6 245C901.2 245 901.8 245.2 902.2 245.7C902.6 246.1 902.9 246.7 902.9 247.3V250.1C902.9 250.7 902.7 251.3 902.2 251.7C901.8 252.1 901.2 252.4 900.6 252.4ZM908.9 243.2H891.6C891 243.2 890.4 243 890 242.5C889.6 242.1 889.3 241.5 889.3 240.9C889.3 240.3 889.5 239.7 890 239.3C890.4 238.9 891 238.6 891.6 238.6H908.9C909.5 238.6 910.1 238.8 910.5 239.3C910.9 239.7 911.2 240.3 911.2 240.9C911.2 241.5 911 242.1 910.5 242.5C910.1 242.9 909.5 243.2 908.9 243.2Z" fill="#144A8F"/>
<path d="M938.6 246.3H922.2C921.6 246.3 921 246.1 920.6 245.6C920.2 245.2 919.9 244.6 919.9 244C919.9 243.4 920.1 242.8 920.6 242.4C921 242 921.6 241.7 922.2 241.7H938.6C939.2 241.7 939.8 241.9 940.2 242.4C940.6 242.8 940.9 243.4 940.9 244C940.9 244.6 940.7 245.2 940.2 245.6C939.8 246 939.2 246.3 938.6 246.3Z" fill="#144A8F"/>
<path d="M920.3 221.8C922.4 223.9 926.1 229.8 924.6 231.3C923.1 232.8 918.3 231.4 916.2 229.3C914.1 227.2 913.4 224.3 914.9 222.8C918 224.1 918.2 219.7 920.3 221.8Z" fill="#2494D1"/>
<path d="M908.7 252.7H891.1C890.8 252.7 890.5 252.7 890.2 252.5C889.9 252.4 889.6 252.2 889.4 252C889.2 251.8 889 251.5 888.9 251.2C888.8 250.9 888.7 250.6 888.8 250.3L890.6 223.5C890.6 223.3 890.6 223.1 890.7 222.8L897.7 204.2C897.9 203.7 898.4 203.2 898.9 203C899.4 202.8 900.1 202.8 900.6 203C901.2 203.2 901.6 203.6 901.9 204.2C902.2 204.7 902.2 205.3 902 205.9L895.1 224.2L893.5 248.2H906.4L906.7 233.3C906.7 233 906.7 232.7 906.9 232.4L910.9 223.4C911 223.1 911.2 222.8 911.4 222.6C911.6 222.4 911.9 222.2 912.2 222.1C912.5 222 912.8 221.9 913.1 221.9C913.4 221.9 913.7 221.9 914 222.1C914.3 222.2 914.5 222.4 914.8 222.6C915 222.8 915.2 223.1 915.3 223.4C915.4 223.7 915.4 224 915.4 224.3C915.4 224.6 915.3 224.9 915.2 225.2L911.4 233.8L911 250.5C911 251.1 910.7 251.7 910.3 252.1C909.9 252.5 909.3 252.8 908.7 252.7Z" fill="#144A8F"/>
<path d="M922 239.4H910.1V246.5H922V239.4Z" fill="#EB2126"/>
<path d="M922 248.8H910.1C909.5 248.8 908.9 248.6 908.5 248.1C908.1 247.7 907.8 247.1 907.8 246.5V239.4C907.8 238.8 908 238.2 908.5 237.8C908.9 237.4 909.5 237.1 910.1 237.1H922C922.6 237.1 923.2 237.3 923.6 237.8C924 238.2 924.3 238.8 924.3 239.4V246.5C924.3 247.1 924.1 247.7 923.6 248.1C923.2 248.5 922.6 248.8 922 248.8ZM912.4 244.2H919.7V241.7H912.4V244.2Z" fill="#144A8F"/>
<path d="M939 254.9H921.4C921.1 254.9 920.8 254.9 920.5 254.7C920.2 254.6 919.9 254.4 919.7 254.1C919.5 253.9 919.3 253.6 919.2 253.3C919.1 253 919.1 252.7 919.1 252.4L921.1 230.7L917.1 221.5C916.9 220.9 916.9 220.3 917.1 219.8C917.3 219.2 917.8 218.8 918.3 218.6C918.8 218.4 919.5 218.3 920 218.6C920.6 218.8 921 219.2 921.3 219.8L925.5 229.5C925.7 229.9 925.7 230.3 925.7 230.7L923.9 250.5H937L940.8 225.7C940.8 225.4 940.9 225.1 941.1 224.8C941.3 224.5 941.5 224.3 941.7 224.1C941.9 223.9 942.2 223.8 942.5 223.7C942.8 223.7 943.1 223.7 943.4 223.7C943.7 223.7 944 223.9 944.3 224C944.6 224.2 944.8 224.4 945 224.6C945.2 224.9 945.3 225.1 945.4 225.4C945.5 225.7 945.4 226 945.4 226.3L942.7 244.3C942.8 244.3 942.9 244.3 943 244.3H945.9C946 243.8 946.3 243.4 946.7 243.1C947.1 242.8 947.6 242.7 948.1 242.7C948.6 242.7 949.1 242.9 949.5 243.1C949.9 243.4 950.2 243.8 950.3 244.3H953.1C952.7 210.6 942.9 201.5 942.8 201.4C942.3 201 942.1 200.4 942 199.8C942 199.2 942.2 198.6 942.6 198.1C943 197.6 943.6 197.4 944.2 197.3C944.8 197.3 945.4 197.4 945.9 197.8C946.4 198.2 957.8 208.3 957.8 246.5C957.8 284.7 957.6 247.7 957.1 248.1C956.7 248.5 956.1 248.8 955.5 248.8H943C942.7 248.8 942.3 248.8 942 248.6L941.3 253C941.3 253.5 940.9 254 940.5 254.4C940.1 254.8 939.6 254.9 939 254.9ZM915.5 247.7C914.9 247.7 914.3 247.5 913.9 247C913.5 246.6 913.2 246 913.2 245.4V244.9C913.2 244.3 913.4 243.7 913.9 243.3C914.3 242.9 914.9 242.6 915.5 242.6C916.1 242.6 916.7 242.8 917.1 243.3C917.5 243.7 917.8 244.3 917.8 244.9V245.4C917.8 246 917.6 246.6 917.1 247C916.7 247.4 916.1 247.7 915.5 247.7Z" fill="#144A8F"/>
<path d="M221 102.3V220.4H205.5V132.3L166.2 220.4H155.3L115.9 132.2V220.4H100.4V102.3H117.1L160.8 199.9L204.5 102.3H221.1H221Z" fill="white"/>
<path d="M247.2 148.1C251.1 140.9 256.4 135.3 263.2 131.3C270 127.3 277.5 125.3 285.8 125.3C294.1 125.3 301.1 127.1 307.1 130.6C313.1 134.1 317.6 138.6 320.6 143.9V126.8H336.3V220.3H320.6V202.9C317.5 208.4 312.9 212.9 306.9 216.5C300.8 220.1 293.7 221.9 285.7 221.9C277.7 221.9 269.9 219.9 263.2 215.8C256.5 211.7 251.2 206 247.3 198.6C243.4 191.2 241.5 182.8 241.5 173.3C241.5 163.8 243.4 155.4 247.3 148.1H247.2ZM316.4 155C313.6 149.8 309.7 145.8 304.9 143C300.1 140.2 294.7 138.8 288.9 138.8C283.1 138.8 277.8 140.2 273 142.9C268.2 145.6 264.4 149.6 261.6 154.8C258.8 160 257.3 166.2 257.3 173.2C257.3 180.2 258.7 186.6 261.6 191.9C264.4 197.2 268.3 201.2 273 204C277.8 206.8 283.1 208.2 288.9 208.2C294.7 208.2 300 206.8 304.9 204C309.7 201.2 313.6 197.2 316.4 191.9C319.2 186.6 320.7 180.4 320.7 173.4C320.7 166.4 319.3 160.2 316.4 155Z" fill="white"/>
<path d="M362.6 148.1C366.5 140.9 371.8 135.3 378.6 131.3C385.4 127.3 393 125.3 401.4 125.3C409.8 125.3 415.5 127 421.7 130.3C428 133.7 432.7 138.1 436 143.5V93.9999H451.7V220.3H436V202.7C432.9 208.3 428.4 212.9 422.3 216.4C416.3 220 409.2 221.8 401.1 221.8C393 221.8 385.3 219.8 378.5 215.7C371.7 211.6 366.4 205.9 362.5 198.5C358.6 191.1 356.7 182.7 356.7 173.2C356.7 163.7 358.6 155.3 362.5 148L362.6 148.1ZM431.7 155C428.9 149.8 425 145.8 420.2 143C415.4 140.2 410 138.8 404.2 138.8C398.4 138.8 393.1 140.2 388.3 142.9C383.5 145.6 379.7 149.6 376.9 154.8C374.1 160 372.6 166.2 372.6 173.2C372.6 180.2 374 186.6 376.9 191.9C379.7 197.2 383.6 201.2 388.3 204C393.1 206.8 398.4 208.2 404.2 208.2C410 208.2 415.3 206.8 420.2 204C425 201.2 428.9 197.2 431.7 191.9C434.5 186.6 436 180.4 436 173.4C436 166.4 434.6 160.2 431.7 155Z" fill="white"/>
<path d="M562.8 179.4H488C488.6 188.6 491.7 195.8 497.5 201C503.2 206.2 510.2 208.8 518.4 208.8C526.6 208.8 530.7 207.2 535.2 204.1C539.7 201 542.9 196.8 544.7 191.6H561.4C558.9 200.6 553.9 207.9 546.4 213.5C538.9 219.1 529.6 221.9 518.4 221.9C507.2 221.9 501.6 219.9 494.6 215.9C487.6 211.9 482.1 206.3 478.1 198.9C474.1 191.6 472.1 183.1 472.1 173.4C472.1 163.7 474 155.3 477.9 148C481.8 140.7 487.2 135.1 494.2 131.2C501.2 127.3 509.2 125.3 518.3 125.3C527.4 125.3 535 127.2 541.9 131.1C548.7 135 554 140.3 557.7 147.1C561.4 153.9 563.2 161.5 563.2 170.1C563.2 178.7 563 176.2 562.7 179.5L562.8 179.4ZM543.3 151.5C540.7 147.2 537.1 144 532.6 141.8C528.1 139.6 523.1 138.5 517.7 138.5C509.8 138.5 503.2 141 497.6 146C492.1 151 488.9 157.9 488.1 166.8H547.2C547.2 160.9 545.9 155.8 543.3 151.5Z" fill="white"/>
<path d="M646.4 139.7H626.8V220.4H611.3V139.7H599.2V126.9H611.3V120.2C611.3 109.7 614 102.1 619.4 97.2C624.8 92.4 633.5 89.9 645.4 89.9V102.9C638.6 102.9 633.8 104.2 631 106.9C628.2 109.6 626.8 114 626.8 120.1V126.8H646.4V139.6V139.7Z" fill="white"/>
<path d="M681.5 215.9C674.4 211.9 668.8 206.3 664.8 198.9C660.8 191.6 658.7 183.1 658.7 173.4C658.7 163.7 660.8 155.4 664.9 148.1C669.1 140.8 674.7 135.1 681.9 131.2C689.1 127.3 697.1 125.3 706 125.3C714.9 125.3 722.9 127.3 730.1 131.2C737.3 135.1 742.9 140.7 747.1 148C751.3 155.3 753.3 163.8 753.3 173.4C753.3 183 751.2 191.6 746.9 198.9C742.6 206.2 736.9 211.9 729.6 215.9C722.3 219.9 714.2 221.9 705.4 221.9C696.6 221.9 688.7 219.9 681.6 215.9H681.5ZM721 204.3C725.9 201.7 729.8 197.8 732.9 192.5C735.9 187.3 737.4 180.9 737.4 173.4C737.4 165.9 735.9 159.5 733 154.3C730 149.1 726.2 145.2 721.4 142.6C716.6 140 711.4 138.8 705.9 138.8C700.4 138.8 695 140.1 690.3 142.6C685.6 145.2 681.8 149.1 679 154.3C676.2 159.5 674.7 165.9 674.7 173.4C674.7 180.9 676.1 187.5 678.9 192.7C681.7 197.9 685.4 201.8 690.1 204.4C694.8 207 699.9 208.2 705.5 208.2C711.1 208.2 716.3 206.9 721.2 204.3H721Z" fill="white"/>
<path d="M800.9 129.6C806 126.6 812.1 125.2 819.4 125.2V141.2H815.3C797.9 141.2 789.2 150.6 789.2 169.5V220.4H773.7V126.9H789.2V142.1C791.9 136.8 795.8 132.6 800.9 129.6Z" fill="white"/>
<path d="M1314 0H1811C1824.25 0 1835 10.7452 1835 24V296C1835 309.255 1824.25 320 1811 320H1314V0Z" fill="#F5D56F"/>
<path d="M1461.88 141.375C1458.49 134.258 1453.59 128.775 1447.18 124.925C1440.76 120.958 1433.29 118.975 1424.78 118.975C1416.26 118.975 1408.56 120.958 1401.68 124.925C1394.91 128.775 1389.54 134.375 1385.58 141.725C1381.73 148.958 1379.8 157.358 1379.8 166.925C1379.8 176.492 1381.73 184.892 1385.58 192.125C1389.54 199.358 1394.91 204.958 1401.68 208.925C1408.56 212.775 1416.26 214.7 1424.78 214.7C1436.68 214.7 1446.48 211.142 1454.18 204.025C1461.88 196.908 1466.37 187.283 1467.65 175.15H1419V162.2H1484.63V174.45C1483.69 184.483 1480.54 193.7 1475.18 202.1C1469.81 210.383 1462.75 216.975 1454 221.875C1445.25 226.658 1435.51 229.05 1424.78 229.05C1413.46 229.05 1403.13 226.425 1393.8 221.175C1384.47 215.808 1377.06 208.4 1371.58 198.95C1366.21 189.5 1363.53 178.825 1363.53 166.925C1363.53 155.025 1366.21 144.35 1371.58 134.9C1377.06 125.333 1384.47 117.925 1393.8 112.675C1403.13 107.308 1413.46 104.625 1424.78 104.625C1437.73 104.625 1449.16 107.833 1459.08 114.25C1469.11 120.667 1476.4 129.708 1480.95 141.375H1461.88ZM1544.01 229.575C1535.02 229.575 1526.86 227.533 1519.51 223.45C1512.27 219.367 1506.56 213.592 1502.36 206.125C1498.27 198.542 1496.23 189.792 1496.23 179.875C1496.23 170.075 1498.33 161.442 1502.53 153.975C1506.85 146.392 1512.68 140.617 1520.03 136.65C1527.38 132.567 1535.61 130.525 1544.71 130.525C1553.81 130.525 1562.03 132.567 1569.38 136.65C1576.73 140.617 1582.51 146.333 1586.71 153.8C1591.02 161.267 1593.18 169.958 1593.18 179.875C1593.18 189.792 1590.96 198.542 1586.53 206.125C1582.21 213.592 1576.32 219.367 1568.86 223.45C1561.39 227.533 1553.11 229.575 1544.01 229.575ZM1544.01 215.575C1549.72 215.575 1555.09 214.233 1560.11 211.55C1565.12 208.867 1569.15 204.842 1572.18 199.475C1575.33 194.108 1576.91 187.575 1576.91 179.875C1576.91 172.175 1575.39 165.642 1572.36 160.275C1569.32 154.908 1565.36 150.942 1560.46 148.375C1555.56 145.692 1550.25 144.35 1544.53 144.35C1538.7 144.35 1533.33 145.692 1528.43 148.375C1523.65 150.942 1519.8 154.908 1516.88 160.275C1513.96 165.642 1512.51 172.175 1512.51 179.875C1512.51 187.692 1513.91 194.283 1516.71 199.65C1519.62 205.017 1523.47 209.042 1528.26 211.725C1533.04 214.292 1538.29 215.575 1544.01 215.575ZM1626.54 98.5V228H1610.62V98.5H1626.54ZM1644.24 179.7C1644.24 169.9 1646.22 161.325 1650.19 153.975C1654.15 146.508 1659.58 140.733 1666.46 136.65C1673.46 132.567 1681.28 130.525 1689.91 130.525C1697.38 130.525 1704.32 132.275 1710.74 135.775C1717.15 139.158 1722.05 143.65 1725.44 149.25V98.5H1741.54V228H1725.44V209.975C1722.29 215.692 1717.62 220.417 1711.44 224.15C1705.25 227.767 1698.02 229.575 1689.74 229.575C1681.22 229.575 1673.46 227.475 1666.46 223.275C1659.58 219.075 1654.15 213.183 1650.19 205.6C1646.22 198.017 1644.24 189.383 1644.24 179.7ZM1725.44 179.875C1725.44 172.642 1723.98 166.342 1721.06 160.975C1718.14 155.608 1714.18 151.525 1709.16 148.725C1704.26 145.808 1698.84 144.35 1692.89 144.35C1686.94 144.35 1681.51 145.75 1676.61 148.55C1671.71 151.35 1667.8 155.433 1664.89 160.8C1661.97 166.167 1660.51 172.467 1660.51 179.7C1660.51 187.05 1661.97 193.467 1664.89 198.95C1667.8 204.317 1671.71 208.458 1676.61 211.375C1681.51 214.175 1686.94 215.575 1692.89 215.575C1698.84 215.575 1704.26 214.175 1709.16 211.375C1714.18 208.458 1718.14 204.317 1721.06 198.95C1723.98 193.467 1725.44 187.108 1725.44 179.875Z" fill="black"/>
</svg>
